<?xml version="1.0" encoding="iso-8859-1"?>
<!-- Generator: Adobe Illustrator 16.0.2, SVG Export Plug-In . SVG Version: 6.00 Build 0)  -->
<!DOCTYPE svg PUBLIC "-//W3C//DTD SVG 1.1//EN" "http://www.w3.org/Graphics/SVG/1.1/DTD/svg11.dtd">
<svg version="1.1" id="Layer_1" xmlns="http://www.w3.org/2000/svg" xmlns:xlink="http://www.w3.org/1999/xlink" x="0px" y="0px"
	 width="799.92px" height="799.92px" viewBox="0 0 799.92 799.92" style="enable-background:new 0 0 799.92 799.92;"
	 xml:space="preserve">
<g id="BACKGROUND">
	<rect style="fill:#FFFFFF;" width="799.92" height="799.92"/>
</g>
<g id="OBJECTS">
	<g>
		<g>
			<g>
				<g>
					<path style="fill:#DB8B00;" d="M524.774,104.148h-14.647c-3.684,0-6.696,3.206-6.696,7.125v5.345
						c0,3.919,3.014,7.126,6.696,7.126h14.647V104.148z"/>
					<path style="fill:#DB8B00;" d="M659.313,104.148h14.649c3.685,0,6.697,3.206,6.697,7.125v5.345
						c0,3.919-3.017,7.125-6.697,7.125h-14.649V104.148z"/>
				</g>
				<path style="fill:#DB8B00;" d="M556.714,69.889c23.553,0,47.106,0,70.662,0c20.313,0,37.203,19.332,39.568,44.057h-7.633
					c-2.648-21.539-17.578-38.168-35.459-38.168c-21.206,0-42.411,0-63.618,0c-17.879,0-32.809,16.629-35.461,38.168h-7.629
					C519.508,89.22,536.396,69.889,556.714,69.889z"/>
				<path style="fill:#BFF0FF;" d="M659.313,113.946H524.774c2.651-21.539,17.581-38.168,35.46-38.168c21.207,0,42.413,0,63.619,0
					C641.733,75.778,656.663,92.407,659.313,113.946z"/>
				<path style="fill:#4D4D4D;" d="M497.572,200.807h28.687c2.732,0,4.968,2.617,4.968,5.814v18.607
					c0,3.197-2.234,5.813-4.968,5.813h-28.687c-2.732,0-4.969-2.615-4.969-5.813v-18.607
					C492.604,203.423,494.84,200.807,497.572,200.807z"/>
				<path style="fill:#808080;" d="M497.572,200.807h28.687c2.732,0,4.968,2.227,4.968,4.95v15.841c0,2.722-2.234,4.95-4.968,4.95
					h-28.687c-2.732,0-4.969-2.228-4.969-4.95v-15.841C492.604,203.034,494.84,200.807,497.572,200.807z"/>
				<path style="fill:#4D4D4D;" d="M657.831,200.807h28.686c2.732,0,4.968,2.617,4.968,5.814v18.607
					c0,3.197-2.234,5.813-4.968,5.813h-28.686c-2.732,0-4.969-2.615-4.969-5.813v-18.607
					C652.862,203.423,655.097,200.807,657.831,200.807z"/>
				<path style="fill:#808080;" d="M657.831,200.807h28.686c2.732,0,4.968,2.227,4.968,4.95v15.841c0,2.722-2.234,4.95-4.968,4.95
					h-28.686c-2.732,0-4.969-2.228-4.969-4.95v-15.841C652.862,203.034,655.097,200.807,657.831,200.807z"/>
				<path style="fill:#A7E1F2;" d="M573.44,85.261c1.608,0,2.214,1.963,2.104,2.975c-0.806,7.526-1.412,16.244-1.752,25.71h-32.789
					c0.659-10.131,3.002-19.346,6.448-26.717c0.508-1.086,1.498-1.98,2.643-1.968H573.44z"/>
				<path style="fill:#A7E1F2;" d="M610.566,85.261c-1.611,0-2.215,1.963-2.107,2.975c0.806,7.526,1.413,16.244,1.754,25.71h32.789
					c-0.661-10.131-3.002-19.346-6.45-26.717c-0.508-1.086-1.498-1.98-2.642-1.968H610.566z"/>
				<path style="fill:#A7E1F2;" d="M584.241,80.219h15.608c1.339,0,2.344,1.188,2.434,2.638l0.171,2.762
					c0.103,1.623-0.505,2.639-2.479,2.639h-15.859c-2.094,0-2.58-1.015-2.479-2.639l0.17-2.762
					C581.896,81.407,582.901,80.219,584.241,80.219z"/>
				<rect x="591.263" y="75.778" style="fill:#A7E1F2;" width="1.564" height="4.441"/>
				<path style="fill:#DB8B00;" d="M669.458,221.598c15.958,0,27.672-15.031,29.014-33.305l3.009-41.042
					c1.502-20.469-6.022-33.305-29.567-33.305c-80.258,0-79.478,0-159.735,0c-23.544,0-31.068,12.836-29.566,33.305l3.01,41.042
					c1.34,18.274,13.055,33.305,29.011,33.305C593.252,221.598,590.838,221.598,669.458,221.598z"/>
				<path style="opacity:0.5;fill:#FFFFFF;enable-background:new    ;" d="M623.7,101.5l23.364-14.958
					c1.146,1.225,2.229,2.537,3.243,3.93L623.7,107.506V101.5L623.7,101.5z M623.7,95.335l19.44-12.446
					c-3.358-2.708-7.098-4.734-11.087-5.917l-8.354,5.349V95.335L623.7,95.335z M623.7,76.288v-0.51h0.153
					c0.209,0,0.419,0.005,0.628,0.009L623.7,76.288z M613.639,113.946h-9.382L623.7,101.5v6.006L613.639,113.946L613.639,113.946z
					 M623.7,75.778h-8.588l-59.621,38.168h9.383L623.7,76.288V75.778L623.7,75.778z M623.7,82.322l-49.4,31.624h20.327l29.073-18.61
					V82.322z"/>
				<path style="fill:#F2A010;" d="M689.398,192.101c2.78-4.397,4.543-9.617,5.009-15.195l2.892-34.755
					c1.444-17.334-5.791-28.205-28.437-28.205c-77.192,0-76.442,0-153.636,0c-22.646,0-29.883,10.87-28.438,28.205l2.895,34.755
					c0.465,5.579,2.228,10.8,5.009,15.196c5.086,5.75,11.984,9.324,19.938,9.324c78.622,0,76.208,0,154.828,0
					C677.413,201.425,684.313,197.851,689.398,192.101z"/>
				<path style="fill:#FFB940;" d="M505.14,118.91c7.517,0,19.842,24.443,20.529,39.998c0.688,15.554-4.846,28.163-12.361,28.163
					c-7.517,0-14.167-12.609-14.855-28.163C497.764,143.353,497.623,118.91,505.14,118.91z"/>
				<g>
					<path style="fill:#F2A010;" d="M524.774,104.148h-14.647c-2.58,0-4.83,1.572-5.946,3.86c1.116,2.288,3.367,3.86,5.946,3.86
						h14.647V104.148z"/>
					<path style="fill:#F2A010;" d="M659.313,104.148h14.649c2.578,0,4.83,1.572,5.947,3.86c-1.117,2.288-3.369,3.86-5.947,3.86
						h-14.649V104.148z"/>
				</g>
				<path style="fill:#F2A010;" d="M556.714,69.889c23.553,0,47.106,0,70.662,0c19.595,0,36.004,17.99,39.262,41.455l0.308,2.602
					h-7.633v-2.602c-2.648-21.539-17.578-38.168-35.459-38.168c-21.205,0-42.411,0-63.618,0c-17.878,0-32.809,16.629-35.46,38.168
					v2.602h-7.63l0.308-2.602C520.71,87.878,537.116,69.889,556.714,69.889z"/>
				<path style="fill:#DB8B00;" d="M644.875,176.213c-10.342,6.09-30.277,10.215-53.177,10.215
					c-22.898,0-42.834-4.125-53.177-10.215c0.781-0.388,1.973-0.36,3.331-0.263c15.604,1.131,31.99,1.813,49.846,1.813
					c17.854,0,34.242-0.682,49.846-1.813C642.903,175.853,644.094,175.825,644.875,176.213z"/>
				<path style="fill:#FFB940;" d="M678.303,118.91c-7.516,0-19.84,24.443-20.528,39.998c-0.688,15.554,4.846,28.163,12.36,28.163
					c7.516,0,14.166-12.609,14.856-28.163C685.681,143.353,685.818,118.91,678.303,118.91z"/>
				<path style="fill:#555E6D;" d="M591.698,178.761c-17.854,0-34.242-1.044-49.845-2.777c-2.347-0.26-4.188-0.195-4.298,2.897
					l-0.214,6.078c-0.093,2.708-1.635,5.611-4.648,5.611c-13.643,0-13.223,0-26.862,0c-1.379,0-2.576-0.648-3.458-1.691
					c-0.483-0.798-0.756-1.748-0.869-2.756l-2.946-26.092c-0.583-5.167,0.195-7.588,7.774-5.876
					c23.989,5.419,54.055,8.427,85.366,8.427c31.313,0,61.378-3.008,85.367-8.427c7.577-1.712,8.356,0.708,7.773,5.876
					l-2.946,26.092c-0.112,1.008-0.387,1.958-0.869,2.756c-0.882,1.042-2.078,1.691-3.457,1.691c-13.643,0-13.222,0-26.862,0
					c-3.015,0-4.557-2.904-4.65-5.611l-0.213-6.078c-0.108-3.092-1.951-3.157-4.297-2.897
					C625.94,177.716,609.554,178.761,591.698,178.761z"/>
				<ellipse style="fill:#555E6D;" cx="591.698" cy="164.101" rx="18.486" ry="12.153"/>
				<ellipse style="fill:#E6E6E6;" cx="591.698" cy="164.1" rx="8.429" ry="5.351"/>
				<path style="fill:#FFFFFF;" d="M563.998,203.872h56.093c1.599,0,2.906,1.307,2.906,2.905v8.607c0,1.599-1.31,2.906-2.906,2.906
					h-56.093c-1.598,0-2.905-1.308-2.905-2.906v-8.607C561.093,205.179,562.4,203.872,563.998,203.872z"/>
				<g>
					<path style="fill:#78808F;" d="M504.171,158.254l27.53,4.886c0.815,0.145,1.508,0.668,1.508,1.484v10.285
						c0,0.814-0.681,1.484-1.508,1.484l-25.518,0.003c-0.826,0-1.399-0.675-1.508-1.485l-2.014-15.173
						C502.557,158.929,503.354,158.109,504.171,158.254z"/>
					<path style="fill:#78808F;" d="M679.226,158.254l-27.53,4.886c-0.814,0.145-1.506,0.668-1.506,1.484v10.285
						c0,0.814,0.679,1.484,1.506,1.484l25.518,0.003c0.828,0,1.4-0.675,1.509-1.485l2.015-15.173
						C680.841,158.929,680.042,158.109,679.226,158.254z"/>
				</g>
				<g>
					<path style="fill:#9CA4B3;" d="M504.171,158.254l27.53,4.886c0.815,0.145,1.508,0.668,1.508,1.484v5.779
						c0,0.814-0.681,1.484-1.508,1.484l-25.518,0.003c-0.826,0-1.399-0.675-1.508-1.485l-1.565-11.806
						C503.396,158.336,503.78,158.185,504.171,158.254z"/>
					<path style="fill:#9CA4B3;" d="M679.226,158.254l-27.53,4.886c-0.814,0.145-1.506,0.668-1.506,1.484v5.779
						c0,0.814,0.679,1.484,1.506,1.484l25.518,0.003c0.828,0,1.4-0.675,1.509-1.485l1.566-11.806
						C680.003,158.336,679.615,158.185,679.226,158.254z"/>
				</g>
				<path style="fill:#FF6E42;" d="M510.355,187.353c1.664,0,3.021-1.357,3.021-3.021c0-1.665-1.356-3.021-3.021-3.021
					s-3.022,1.357-3.022,3.021C507.333,185.995,508.691,187.353,510.355,187.353z"/>
				<path style="fill:#E85D33;" d="M510.355,187.353c1.664,0,3.021-1.357,3.021-3.021c0-1.665-1.356-3.021-3.021-3.021
					s-3.022,1.357-3.022,3.021C507.333,185.995,508.691,187.353,510.355,187.353z"/>
				<path style="fill:#FF6E42;" d="M510.354,181.31h-0.077v0.001c-1.476,0.037-2.688,1.134-2.907,2.558
					c0.222,1.063,1.475,1.879,2.984,1.879c1.513,0,2.765-0.815,2.987-1.879c-0.22-1.424-1.432-2.521-2.908-2.558v-0.001H510.354z"/>
				<path style="fill:#FF6E42;" d="M673.732,187.353c1.664,0,3.022-1.357,3.022-3.021c0-1.665-1.358-3.021-3.022-3.021
					s-3.021,1.357-3.021,3.021C670.711,185.995,672.068,187.353,673.732,187.353z"/>
				<path style="fill:#E85D33;" d="M673.732,187.353c1.664,0,3.022-1.357,3.022-3.021c0-1.665-1.358-3.021-3.022-3.021
					s-3.021,1.357-3.021,3.021C670.711,185.995,672.068,187.353,673.732,187.353z"/>
				<path style="fill:#FF6E42;" d="M673.732,181.31h-0.078v0.001c-1.476,0.037-2.688,1.134-2.907,2.558
					c0.222,1.063,1.475,1.879,2.985,1.879c1.513,0,2.764-0.815,2.987-1.879c-0.221-1.424-1.433-2.521-2.908-2.558v-0.001H673.732z"
					/>
				<g>
					<g>
						<path style="fill:#87BECF;" d="M551.479,109.153L551.479,109.153c-0.075,0.553,0.313,1.067,0.866,1.142l33.129,4.519
							c0.554,0.076,1.065-0.314,1.142-0.867v-0.001c0.076-0.552-0.314-1.064-0.866-1.14l-33.128-4.519
							C552.066,108.212,551.554,108.602,551.479,109.153z"/>
						<path style="fill:#87BECF;" d="M568.521,106.822c-6.345-1.538-27.68,1.307-34.651,4.726l0.141,1.037l34.65-4.724
							L568.521,106.822z"/>
					</g>
					<g>
						<path style="fill:#87BECF;" d="M614.947,109.153L614.947,109.153c-0.075,0.553,0.313,1.067,0.865,1.142l33.13,4.519
							c0.552,0.076,1.064-0.314,1.139-0.867v-0.001c0.076-0.552-0.313-1.064-0.865-1.14l-33.13-4.519
							C615.534,108.212,615.021,108.602,614.947,109.153z"/>
						<path style="fill:#87BECF;" d="M631.988,106.822c-6.342-1.538-27.678,1.307-34.651,4.726l0.144,1.037l34.65-4.724
							L631.988,106.822z"/>
					</g>
				</g>
			</g>
		</g>
		<g>
			<g>
				<path style="fill:#4D4D4D;" d="M107.917,200.647h23.752c2.84,0,5.164,2.617,5.164,5.815v18.606c0,3.198-2.323,5.815-5.164,5.815
					h-23.752c-2.84,0-5.164-2.617-5.164-5.815v-18.606C102.753,203.264,105.077,200.647,107.917,200.647z"/>
				<path style="fill:#4D4D4D;" d="M282.79,200.647h23.751c2.841,0,5.164,2.617,5.164,5.815v18.606c0,3.198-2.323,5.815-5.164,5.815
					H282.79c-2.841,0-5.164-2.617-5.164-5.815v-18.606C277.626,203.264,279.949,200.647,282.79,200.647z"/>
				<path style="fill:#808080;" d="M107.917,200.647h23.752c2.84,0,5.164,2.228,5.164,4.951v15.84c0,2.723-2.323,4.951-5.164,4.951
					h-23.752c-2.84,0-5.164-2.228-5.164-4.951v-15.84C102.753,202.875,105.077,200.647,107.917,200.647z"/>
				<path style="fill:#808080;" d="M282.79,200.647h23.751c2.841,0,5.164,2.228,5.164,4.951v15.84c0,2.723-2.323,4.951-5.164,4.951
					H282.79c-2.841,0-5.164-2.228-5.164-4.951v-15.84C277.626,202.875,279.949,200.647,282.79,200.647z"/>
				<path style="fill:#BFF0FF;" d="M279.459,113.788l-2.414-12.325c-3.375-17.211-13.434-26.485-30.25-26.485
					c-26.617,0-53.236-0.201-79.854,0.009c-18.542,0.146-26.514,11.965-29.358,26.476l-2.416,12.325H279.459z"/>
				<path style="fill:#4D4D4D;" d="M281.095,95.964h11.683c2.937,0,5.34,2.558,5.34,5.684v4.263c0,3.125-2.403,5.683-5.34,5.683
					h-11.683V95.964z"/>
				<path style="fill:#4D4D4D;" d="M133.36,95.964h-11.682c-2.938,0-5.34,2.558-5.34,5.684v4.263c0,3.125,2.403,5.683,5.34,5.683
					h11.682V95.964z"/>
				<g>
					<path style="fill:#A7E1F2;" d="M189.534,85.101c2.255,0,3.103,1.965,2.953,2.976c-1.129,7.525-1.98,16.242-2.458,25.71h-45.96
						c0.926-10.133,4.208-19.346,9.04-26.719c0.711-1.085,2.099-1.98,3.703-1.968L189.534,85.101L189.534,85.101z"/>
					<path style="fill:#A7E1F2;" d="M225.093,85.101c-2.256,0-3.104,1.965-2.953,2.976c1.13,7.525,1.98,16.242,2.458,25.71h45.959
						c-0.926-10.133-4.208-19.346-9.038-26.719c-0.712-1.085-2.1-1.98-3.705-1.968L225.093,85.101L225.093,85.101z"/>
				</g>
				<g>
					<path style="fill:#A7E1F2;" d="M199.509,76.616h15.612c1.337,0,2.343,1.189,2.432,2.638l0.171,2.762
						c0.103,1.623-0.505,2.639-2.479,2.639h-15.862c-2.093,0-2.58-1.014-2.479-2.639l0.171-2.762
						C197.166,77.806,198.17,76.616,199.509,76.616z"/>
					<rect x="206.531" y="69.73" style="fill:#A7E1F2;" width="1.565" height="6.886"/>
				</g>
				<path style="fill:#B3B3B3;" d="M129.898,113.788c-9.417,0-16.331,7.402-17.122,16.402l-0.181,2.058
					c-6.086,5.115-10.026,12.743-10.77,21.205l-3.01,34.248c-1.501,17.081,6.024,27.792,29.567,27.792c33.656,0,124.206,0,157.86,0
					c23.544,0,31.068-10.711,29.566-27.792l-3.008-34.248c-0.745-8.462-4.683-16.09-10.771-21.205l-0.18-2.058
					c-0.79-9-7.705-16.402-17.121-16.402C265.832,113.788,148.796,113.788,129.898,113.788z"/>
				<path style="fill:#CCCCCC;" d="M149.25,113.788c-7.063,0-12.249,3.778-12.842,8.372l-0.135,1.05
					c-4.564,2.611-7.52,6.505-8.078,10.825l-2.257,17.482c-1.126,8.718,4.519,14.186,22.176,14.186c25.242,0,93.156,0,118.398,0
					c17.66,0,23.302-5.468,22.176-14.186l-2.256-17.482c-0.559-4.32-3.513-8.214-8.077-10.825l-0.136-1.05
					c-0.594-4.594-5.781-8.372-12.842-8.372C251.205,113.788,163.424,113.788,149.25,113.788z"/>
				<g>
					<path style="fill:#4D4D4D;" d="M301.965,132.247c6.087,5.114,10.028,12.742,10.771,21.206l2.646,30.126l-34.469-0.742V146.42
						L301.965,132.247z"/>
					<path style="fill:#4D4D4D;" d="M112.597,132.247c-6.087,5.114-10.028,12.742-10.771,21.206l-2.647,30.126l34.469-0.742V146.42
						L112.597,132.247z"/>
				</g>
				<g>
					<path style="fill:#4D4D4D;" d="M280.915,165.703v-19.284l21.05-14.173c6.087,5.114,10.028,12.742,10.771,21.206l1.076,12.25
						L280.915,165.703L280.915,165.703z"/>
					<path style="fill:#4D4D4D;" d="M133.648,165.703v-19.284l-21.051-14.173c-6.087,5.114-10.028,12.742-10.771,21.206
						l-1.077,12.25L133.648,165.703L133.648,165.703z"/>
				</g>
				<path style="fill:#333333;" d="M99.244,182.836l-0.428,4.864c-1.501,17.081,6.024,27.792,29.567,27.792
					c33.656,0,124.206,0,157.86,0c23.544,0,31.068-10.711,29.566-27.792l-0.427-4.864H99.244z"/>
				<path style="fill:#4D4D4D;" d="M99.244,182.836l-0.428,4.296c-1.501,15.089,6.024,24.551,29.567,24.551
					c33.656,0,124.206,0,157.86,0c23.544,0,31.068-9.462,29.566-24.551l-0.427-4.296H99.244z"/>
				<path style="fill:#CCCCCC;" d="M211.699,139.462c14.889,0,13.895,2.186,17.942,14.069l7.358,21.61
					c5.264,15.462,3.576,23.615-12.062,23.615c-18.56,0-16.856,0-35.416,0c-15.638,0-17.325-8.153-12.061-23.615l7.358-21.61
					c4.046-11.884,3.052-14.069,17.942-14.069C212.495,139.462,201.964,139.462,211.699,139.462z"/>
				<path style="fill:#4D4D4D;" d="M218.195,195.666h-27.947c-12.34,0-13.672-6.435-9.518-18.635l5.807-17.053
					c4.001-11.753,2.74-11.102,20.397-11.102h7.052c11.75,0,10.964,1.727,14.16,11.102l5.805,17.053
					c4.154,12.201,2.824,18.635-9.516,18.635H218.195z"/>
				<rect x="205.794" y="144.326" style="fill:#CCCCCC;" width="3.092" height="54.431"/>
				<rect x="180.125" y="169.996" style="fill:#CCCCCC;" width="54.431" height="3.092"/>
				<path style="fill:#4D4D4D;" d="M121.527,142.885l24.242,7.07c3.851,1.123,6.992,3.549,7.26,7.874l0,0
					c0.301,4.845-1.508,7.874-7.399,7.874h-28.501c-6.25,0-7.701-3.028-7.4-7.874l0.512-8.245
					C110.509,145.259,114.373,140.799,121.527,142.885z"/>
				<path style="fill:#E6E6E6;" d="M126.566,162.737c3.944,0,7.161-3.217,7.161-7.161c0-3.945-3.217-7.161-7.161-7.161
					c-3.943,0-7.161,3.216-7.161,7.161C119.406,159.52,122.623,162.737,126.566,162.737z"/>
				<path style="fill:#E6E6E6;" d="M141.835,162.737c2.814,0,5.11-2.295,5.11-5.109c0-2.815-2.295-5.111-5.11-5.111
					s-5.11,2.296-5.11,5.111C136.726,160.442,139.021,162.737,141.835,162.737z"/>
				<path style="fill:#FF6E42;" d="M115.817,151.163c1.664,0,3.022-1.357,3.022-3.021s-1.358-3.021-3.022-3.021
					c-1.665,0-3.021,1.357-3.021,3.021C112.795,149.806,114.152,151.163,115.817,151.163z"/>
				<path style="fill:#4D4D4D;" d="M293.101,142.885l-24.241,7.07c-3.852,1.123-6.993,3.549-7.26,7.874l0,0
					c-0.302,4.845,1.506,7.874,7.398,7.874H297.5c6.25,0,7.7-3.028,7.4-7.874l-0.512-8.245
					C304.119,145.259,300.254,140.799,293.101,142.885z"/>
				<path style="fill:#E6E6E6;" d="M288.061,162.737c3.945,0,7.16-3.217,7.16-7.161c0-3.945-3.215-7.161-7.16-7.161
					s-7.16,3.216-7.16,7.161C280.901,159.52,284.116,162.737,288.061,162.737z"/>
				<path style="fill:#E6E6E6;" d="M272.793,162.737c2.813,0,5.108-2.295,5.108-5.109c0-2.815-2.296-5.111-5.108-5.111
					c-2.814,0-5.111,2.296-5.111,5.111C267.683,160.442,269.979,162.737,272.793,162.737z"/>
				<path style="fill:#CCCCCC;" d="M249.187,69.73c17.835,0,28.504,9.471,32.082,27.048l3.462,17.01h-5.271l-2.414-12.325
					c-3.375-17.211-13.434-26.485-30.25-26.485c-26.617,0-53.236-0.201-79.854,0.009c-18.542,0.146-26.514,11.965-29.358,26.476
					l-2.416,12.325h-5.269l3.462-17.01c3.017-14.819,11.471-26.891,31.137-27.04C192.726,69.525,220.957,69.73,249.187,69.73z"/>
				<path style="opacity:0.5;fill:#FFFFFF;enable-background:new    ;" d="M270.815,86.045l-30.275,19.381V99.42l26.897-17.219
					C268.668,83.35,269.794,84.633,270.815,86.045L270.815,86.045z M240.541,93.255l22.443-14.366
					c-3.983-2.322-8.742-3.628-14.284-3.869l-8.159,5.223V93.255L240.541,93.255z M240.541,105.426l-11.819,7.566v-6.006
					l11.819-7.566V105.426L240.541,105.426z M240.541,80.243l-11.819,7.566v13.013l11.819-7.566V80.243L240.541,80.243z
					 M228.722,81.774v-6.006l1.268-0.811c3.12,0.007,6.239,0.012,9.358,0.017L228.722,81.774z M228.722,112.992l-1.242,0.795h-9.382
					l10.624-6.802V112.992L228.722,112.992z M228.722,75.768l-59.391,38.02h9.383l50.008-32.014V75.768L228.722,75.768z
					 M228.722,87.809l-40.582,25.979h20.328l20.254-12.966V87.809z"/>
				<polygon style="fill:#E6E6E6;" points="136.273,123.21 184.818,153.532 181.14,164.336 				"/>
				<polygon style="fill:#E6E6E6;" points="278.356,123.21 229.641,153.532 233.318,164.336 				"/>
				<path style="fill:#333333;" d="M144.936,208.832h16.339v-5.123H133.3C135.369,206.989,139.078,208.832,144.936,208.832
					L144.936,208.832z M166.176,208.832h23.93v-5.123h-23.93V208.832L166.176,208.832z M195.007,208.832h23.93v-5.123h-23.93
					V208.832L195.007,208.832z M223.838,208.832h23.929v-5.123h-23.929V208.832L223.838,208.832z M252.669,208.832h16.34
					c5.856,0,9.565-1.842,11.634-5.123h-27.974V208.832z"/>
				<path style="fill:#B3B3B3;" d="M284.199,113.788h-4.739l-2.414-12.325c-3.375-17.211-13.434-26.485-30.25-26.485
					c-26.617,0-53.236-0.201-79.854,0.009c-18.542,0.146-26.514,11.965-29.358,26.476l-2.416,12.325h-4.739l2.932-14.403
					c3.017-14.82,11.471-26.891,31.137-27.04c28.229-0.213,56.459-0.009,84.689-0.009c17.835,0,28.504,9.471,32.082,27.049
					L284.199,113.788z"/>
				<g>
					<path style="fill:#E6E6E6;" d="M288.061,163.723c4.488,0,8.146-3.66,8.146-8.147c0-4.488-3.658-8.146-8.146-8.146
						s-8.146,3.659-8.146,8.146C279.916,160.063,283.573,163.723,288.061,163.723z"/>
					<path style="fill:#FFFFFF;" d="M288.061,147.43c3.896,0,7.151,2.734,7.957,6.389c-0.806,3.653-4.061,6.388-7.957,6.388
						s-7.151-2.734-7.957-6.388C280.91,150.164,284.165,147.43,288.061,147.43z"/>
				</g>
				<path style="fill:#E6E6E6;" d="M272.793,163.379c3.168,0,5.751-2.584,5.751-5.753c0-3.168-2.583-5.752-5.751-5.752
					c-3.17,0-5.754,2.584-5.754,5.752C267.04,160.795,269.623,163.379,272.793,163.379z"/>
				<path style="fill:#FFFFFF;" d="M272.793,151.874c2.75,0,5.048,1.931,5.618,4.512c-0.57,2.58-2.868,4.51-5.618,4.51
					c-2.752,0-5.051-1.93-5.62-4.51C267.743,153.805,270.041,151.874,272.793,151.874z"/>
				<path style="fill:#E6E6E6;" d="M126.566,163.723c4.487,0,8.147-3.66,8.147-8.147c0-4.488-3.66-8.146-8.147-8.146
					c-4.486,0-8.146,3.659-8.146,8.146C118.42,160.063,122.08,163.723,126.566,163.723z"/>
				<path style="fill:#FFFFFF;" d="M126.566,147.43c-3.895,0-7.152,2.734-7.956,6.389c0.804,3.653,4.061,6.388,7.956,6.388
					c3.896,0,7.152-2.734,7.956-6.388C133.719,150.164,130.462,147.43,126.566,147.43z"/>
				<path style="fill:#E6E6E6;" d="M141.835,163.379c3.168,0,5.752-2.584,5.752-5.753c0-3.168-2.584-5.752-5.752-5.752
					s-5.753,2.584-5.753,5.752C136.083,160.795,138.667,163.379,141.835,163.379z"/>
				<path style="fill:#FFFFFF;" d="M141.835,151.874c-2.751,0-5.051,1.931-5.618,4.512c0.567,2.58,2.867,4.51,5.618,4.51
					c2.75,0,5.05-1.93,5.618-4.51C146.885,153.805,144.586,151.874,141.835,151.874z"/>
				<g>
					<path style="fill:#E85D33;" d="M298.81,151.163c1.667,0,3.024-1.357,3.024-3.021s-1.357-3.021-3.024-3.021
						c-1.662,0-3.021,1.357-3.021,3.021C295.788,149.806,297.148,151.163,298.81,151.163z"/>
					<path style="fill:#FF6E42;" d="M298.81,145.12l-0.078,0.001l0,0c-1.475,0.038-2.688,1.133-2.908,2.557
						c0.225,1.065,1.475,1.879,2.986,1.879c1.513,0,2.764-0.814,2.988-1.879c-0.22-1.424-1.433-2.52-2.908-2.557l0,0L298.81,145.12z
						"/>
				</g>
				<path style="fill:#E85D33;" d="M115.817,151.163c1.664,0,3.022-1.357,3.022-3.021s-1.358-3.021-3.022-3.021
					c-1.665,0-3.021,1.357-3.021,3.021C112.795,149.806,114.152,151.163,115.817,151.163z"/>
				<path style="fill:#FF6E42;" d="M115.817,145.12l-0.079,0.001l0,0c-1.476,0.038-2.689,1.133-2.908,2.557
					c0.223,1.065,1.475,1.879,2.987,1.879c1.511,0,2.763-0.814,2.986-1.879c-0.219-1.424-1.432-2.52-2.908-2.557l0,0L115.817,145.12
					z"/>
				<g>
					<g>
						<path style="fill:#87BECF;" d="M166.811,108.995L166.811,108.995c-0.076,0.553,0.314,1.066,0.866,1.142l33.129,4.519
							c0.552,0.074,1.065-0.315,1.141-0.868l0,0c0.075-0.553-0.314-1.066-0.867-1.142l-33.129-4.518
							C167.399,108.053,166.886,108.443,166.811,108.995z"/>
						<path style="fill:#87BECF;" d="M183.854,106.663c-6.343-1.538-27.678,1.306-34.651,4.725l0.141,1.038l34.652-4.725
							L183.854,106.663z"/>
					</g>
					<g>
						<path style="fill:#87BECF;" d="M230.279,108.995L230.279,108.995c-0.076,0.553,0.316,1.066,0.868,1.142l33.127,4.519
							c0.554,0.074,1.066-0.315,1.142-0.868l0,0c0.076-0.553-0.313-1.066-0.866-1.142l-33.129-4.518
							C230.869,108.053,230.355,108.443,230.279,108.995z"/>
						<path style="fill:#87BECF;" d="M247.322,106.663c-6.343-1.538-27.678,1.306-34.651,4.725l0.14,1.038l34.654-4.725
							L247.322,106.663z"/>
					</g>
				</g>
			</g>
		</g>
		<g>
			<g>
				<g>
					<path style="fill:#363C47;" d="M301.112,587.51c-2.832,0-5.382,0.823-7.169,2.139l0,0l-0.003,0.002
						c-0.271,0.198-0.523,0.409-0.757,0.63l-11.29,9.396l1.579,2.09l7.948-6.612c0.671,3.251,4.755,5.753,9.692,5.753
						c5.406,0,9.791-2.999,9.791-6.696C310.902,590.509,306.518,587.51,301.112,587.51z"/>
					<path style="fill:#363C47;" d="M113.166,587.51c2.832,0,5.382,0.823,7.17,2.139l0,0l0.003,0.002
						c0.27,0.198,0.523,0.409,0.756,0.63l11.29,9.396l-1.579,2.09l-7.948-6.612c-0.67,3.251-4.755,5.753-9.692,5.753
						c-5.406,0-9.79-2.999-9.79-6.696C103.375,590.509,107.759,587.51,113.166,587.51z"/>
				</g>
				<g>
					<path style="fill:#555E6D;" d="M301.112,587.51c-2.832,0-5.382,0.823-7.169,2.139l0,0l-0.003,0.002
						c-0.271,0.198-0.523,0.409-0.757,0.63l-10.412,8.664l0.701,0.929l7.948-6.613c0.671,3.252,4.755,5.754,9.692,5.754
						s9.02-2.501,9.692-5.752C310.132,590.011,306.049,587.51,301.112,587.51z"/>
					<path style="fill:#555E6D;" d="M113.166,587.51c2.832,0,5.382,0.823,7.17,2.139l0,0l0.003,0.002
						c0.27,0.198,0.523,0.409,0.756,0.63l10.413,8.664l-0.702,0.929l-7.948-6.613c-0.67,3.252-4.755,5.754-9.692,5.754
						s-9.02-2.501-9.692-5.752C104.146,590.011,108.229,587.51,113.166,587.51z"/>
				</g>
				<path style="fill:#BFF0FF;" d="M276.735,598.959H137.833h-0.001c2.075-17.011,16.899-30.311,34.731-30.311
					c20.673,0,48.77,0,69.444,0c17.831,0,32.655,13.3,34.73,30.311H276.735z"/>
				<path style="fill:#4D4D4D;" d="M273.07,685.82h28.687c2.732,0,4.968,2.615,4.968,5.813v18.607c0,3.197-2.235,5.813-4.968,5.813
					H273.07c-2.732,0-4.968-2.615-4.968-5.813v-18.607C268.102,688.438,270.338,685.82,273.07,685.82z"/>
				<path style="fill:#808080;" d="M273.07,685.82h28.687c2.732,0,4.968,2.227,4.968,4.948v15.843c0,2.722-2.235,4.948-4.968,4.948
					H273.07c-2.732,0-4.968-2.228-4.968-4.948V690.77C268.102,688.047,270.338,685.82,273.07,685.82z"/>
				<path style="fill:#4D4D4D;" d="M112.812,685.82h28.686c2.733,0,4.968,2.615,4.968,5.813v18.607c0,3.197-2.235,5.813-4.968,5.813
					h-28.686c-2.732,0-4.968-2.615-4.968-5.813v-18.607C107.844,688.438,110.08,685.82,112.812,685.82z"/>
				<path style="fill:#808080;" d="M112.812,685.82h28.686c2.733,0,4.968,2.227,4.968,4.948v15.843c0,2.722-2.235,4.948-4.968,4.948
					h-28.686c-2.732,0-4.968-2.228-4.968-4.948V690.77C107.844,688.047,110.08,685.82,112.812,685.82z"/>
				<path style="fill:#363C47;" d="M284.699,598.959c15.956,0,27.671,14.201,29.012,31.467l3.009,38.772
					c1.5,19.34-6.022,31.467-29.567,31.467c-80.258,0-79.479,0-159.737,0c-23.544,0-31.069-12.127-29.567-31.467l3.01-38.774
					c1.34-17.264,13.055-31.465,29.011-31.465C208.492,598.959,206.077,598.959,284.699,598.959z"/>
				<path style="fill:#555E6D;" d="M280.276,598.959c15.044,0,26.09,12.775,27.354,28.308l2.713,33.358
					c-1.58,12.132-9.635,19.401-27.753,19.401c-75.673,0-74.938,0-150.61,0c-18.119,0-26.174-7.271-27.753-19.401l2.713-33.358
					c1.264-15.531,12.309-28.308,27.354-28.308C208.423,598.959,206.146,598.959,280.276,598.959z"/>
				<path style="fill:#363C47;" d="M212.739,682.3H201.83c-0.325-0.004-0.655-0.007-0.993-0.007
					c-13.259,0-17.991-2.736-22.315-13.722l-16.277-41.35c-5.408-13.736-17.604-28.264-30.826-28.264h151.713
					c-13.215,0.014-25.402,14.533-30.808,28.264l-16.277,41.35c-4.325,10.984-9.056,13.722-22.316,13.722
					C213.394,682.293,213.063,682.296,212.739,682.3z"/>
				<path style="fill:#555E6D;" d="M212.739,672.445H201.83c-0.325-0.004-0.655-0.006-0.993-0.006
					c-13.259,0-17.991-2.412-22.315-12.101l-16.277-36.459c-5.408-12.112-17.604-24.922-30.826-24.922h151.713
					c-13.215,0.011-25.402,12.814-30.808,24.922l-16.277,36.459c-4.325,9.688-9.056,12.101-22.316,12.101
					C213.394,672.439,213.063,672.441,212.739,672.445z"/>
				<ellipse style="fill:#E6E6E6;" cx="208.284" cy="608.699" rx="4.543" ry="3.108"/>
				<path style="fill:#E6E6E6;" d="M213.753,668.44c14.89,0,13.895-1.88,17.941-12.092l7.358-18.571
					c5.265-13.288,3.577-20.297-12.061-20.297c-18.56,0-16.855,0-35.416,0c-15.638,0-17.326,7.009-12.061,20.297l7.358,18.571
					c4.046,10.212,3.052,12.092,17.942,12.092C214.549,668.44,204.019,668.44,213.753,668.44z"/>
				<path style="fill:#363C47;" d="M212.905,663.61c0.518,0,1.014-0.003,1.486-0.01v-41.288h-3.374v41.298H212.905L212.905,663.61z
					 M207.566,622.313h-3.374v41.289c0.469,0.007,0.957,0.01,1.471,0.01h1.903V622.313L207.566,622.313z M200.741,622.313h-3.374
					v40.627c0.9,0.257,1.999,0.425,3.374,0.528V622.313L200.741,622.313z M193.916,622.324c-1.241,0.033-2.363,0.126-3.374,0.276
					v29.744l0.581,1.466c1.201,3.032,1.854,5.157,2.793,6.634V622.324L193.916,622.324z M187.09,623.518
					c-5.157,2.193-5.058,7.353-1.932,15.242l1.932,4.874V623.518L187.09,623.518z M217.843,663.468
					c1.375-0.104,2.474-0.273,3.374-0.53v-40.625h-3.374V663.468L217.843,663.468z M224.668,660.42
					c0.931-1.474,1.583-3.594,2.777-6.607l0.597-1.506v-29.703c-1.011-0.152-2.133-0.245-3.374-0.278V660.42L224.668,660.42z
					 M231.494,643.595l1.916-4.835c3.123-7.885,3.226-13.04-1.916-15.236V643.595z"/>
				<path style="fill:#A7E1F2;" d="M188.679,576.475c1.61,0,2.214,1.54,2.106,2.332c-0.805,5.899-1.413,12.732-1.752,20.152h-32.789
					c0.66-7.942,3.002-15.163,6.449-20.941c0.508-0.851,1.498-1.552,2.642-1.543H188.679L188.679,576.475z"/>
				<path style="fill:#A7E1F2;" d="M225.806,576.475c-1.609,0-2.214,1.54-2.106,2.332c0.806,5.899,1.413,12.732,1.753,20.152h32.789
					c-0.661-7.942-3.002-15.163-6.449-20.941c-0.508-0.851-1.497-1.552-2.642-1.543H225.806L225.806,576.475z"/>
				<path style="fill:#A7E1F2;" d="M199.479,572.092h15.612c1.337,0,2.343,1.189,2.432,2.639l0.171,2.764
					c0.101,1.621-0.505,2.638-2.479,2.638h-15.861c-2.094,0-2.579-1.015-2.479-2.638l0.171-2.764
					C197.137,573.281,198.142,572.092,199.479,572.092z"/>
				<rect x="206.503" y="568.648" style="fill:#A7E1F2;" width="1.563" height="6.887"/>
				<path style="fill:#555E6D;" d="M171.953,564.427c23.554,0,47.108,0,70.662,0c20.315,0,37.205,15.151,39.568,34.532h-5.448h0.002
					c-2.075-17.011-16.899-30.311-34.73-30.311c-20.674,0-48.771,0-69.444,0c-17.832,0-32.656,13.3-34.731,30.311h0.001h-5.448
					C134.748,579.578,151.638,564.427,171.953,564.427z"/>
				<g>
					<path style="fill:#B3B3B3;" d="M117.869,632.924l-3.928-12.413c-2.393-7.563,3.609-9.386,7.273-6.759l21.062,15.1
						c4.528,3.247,2.588,9.521-3.762,9.608l-10.652,0.146C123.367,638.668,118.814,635.912,117.869,632.924z"/>
					<circle style="fill:#FFFAF0;" cx="127.857" cy="628.834" r="6.977"/>
					<circle style="fill:#FF6E42;" cx="118.438" cy="618.083" r="3.748"/>
					<path style="fill:#E6E6E6;" d="M127.857,636.003c3.949,0,7.169-3.222,7.169-7.17s-3.221-7.168-7.169-7.168
						c-3.948,0-7.169,3.22-7.169,7.168S123.909,636.003,127.857,636.003z"/>
					<path style="fill:#FFFFFF;" d="M127.857,621.665c3.429,0,6.294,2.406,7.002,5.621c-0.708,3.216-3.573,5.622-7.002,5.622
						c-3.428,0-6.294-2.406-7.001-5.622C121.563,624.071,124.429,621.665,127.857,621.665z"/>
					<path style="fill:#E85D33;" d="M118.438,621.807c2.051,0,3.724-1.673,3.724-3.723c0-2.052-1.673-3.725-3.724-3.725
						s-3.725,1.673-3.725,3.725C114.714,620.134,116.387,621.807,118.438,621.807z"/>
					<path style="fill:#FF6E42;" d="M118.438,614.359l-0.097,0.001l0,0c-1.819,0.045-3.313,1.396-3.583,3.151
						c0.274,1.312,1.817,2.315,3.681,2.315c1.862,0,3.404-1.005,3.68-2.315c-0.27-1.755-1.764-3.106-3.583-3.151l0,0
						L118.438,614.359z"/>
					<path style="fill:#B3B3B3;" d="M296.7,632.924l3.928-12.413c2.394-7.563-3.609-9.386-7.272-6.759l-21.062,15.1
						c-4.528,3.247-2.588,9.521,3.762,9.608l10.652,0.146C291.202,638.668,295.754,635.912,296.7,632.924z"/>
					<circle style="fill:#FFFAF0;" cx="286.711" cy="628.834" r="6.977"/>
					<circle style="fill:#FF6E42;" cx="296.13" cy="618.083" r="3.748"/>
					<path style="fill:#E6E6E6;" d="M286.711,636.003c3.949,0,7.169-3.222,7.169-7.17s-3.221-7.168-7.169-7.168
						c-3.948,0-7.169,3.22-7.169,7.168S282.763,636.003,286.711,636.003z"/>
					<path style="fill:#FFFFFF;" d="M286.711,621.665c-3.428,0-6.293,2.406-7.001,5.621c0.708,3.216,3.574,5.622,7.001,5.622
						c3.428,0,6.294-2.406,7.001-5.622C293.005,624.071,290.139,621.665,286.711,621.665z"/>
					<path style="fill:#E85D33;" d="M296.13,621.807c2.051,0,3.725-1.673,3.725-3.723c0-2.052-1.673-3.725-3.725-3.725
						c-2.051,0-3.725,1.673-3.725,3.725C292.406,620.134,294.08,621.807,296.13,621.807z"/>
					<path style="fill:#FF6E42;" d="M296.13,614.359l0.096,0.001l0,0c1.819,0.045,3.314,1.396,3.584,3.151
						c-0.275,1.312-1.818,2.315-3.681,2.315c-1.863,0-3.406-1.005-3.681-2.315c0.271-1.755,1.765-3.106,3.584-3.151l0,0
						L296.13,614.359z"/>
				</g>
				<path style="opacity:0.5;fill:#FFFFFF;enable-background:new    ;" d="M269.378,581.698l-22.096,14.145v-6.006l18.576-11.893
					C267.123,579.108,268.298,580.364,269.378,581.698L269.378,581.698z M247.282,583.673l14.251-9.124
					c-3.664-2.439-7.818-4.218-12.28-5.15l-1.971,1.262V583.673z M247.282,595.843l-4.868,3.116h-5.4v-2.549l10.268-6.573V595.843
					L247.282,595.843z M247.282,570.659l-10.268,6.573v13.014l10.268-6.573V570.659L247.282,570.659z M237.014,571.198v-2.55h3.982
					L237.014,571.198z M237.014,598.959h-3.983l3.983-2.549V598.959L237.014,598.959z M237.014,568.648h-5.4l-47.348,30.311h9.382
					l43.366-27.761V568.648L237.014,568.648z M237.014,577.232l-33.939,21.727h20.328l13.611-8.713V577.232z"/>
				<path style="fill:#FFFFFF;" d="M179.238,683.059h56.093c1.598,0,2.905,1.308,2.905,2.904v8.607c0,1.598-1.307,2.904-2.905,2.904
					h-56.093c-1.598,0-2.905-1.308-2.905-2.904v-8.607C176.333,684.365,177.64,683.059,179.238,683.059z"/>
				<g>
					<g>
						<path style="fill:#87BECF;" d="M166.782,594.166v0.002c-0.075,0.552,0.315,1.065,0.867,1.14l33.129,4.521
							c0.552,0.075,1.065-0.315,1.141-0.867v-0.001c0.075-0.552-0.314-1.063-0.867-1.141l-33.129-4.52
							C167.37,593.226,166.857,593.614,166.782,594.166z"/>
						<path style="fill:#87BECF;" d="M183.825,591.835c-6.343-1.538-27.678,1.307-34.651,4.726l0.141,1.037l34.652-4.724
							L183.825,591.835z"/>
					</g>
					<g>
						<path style="fill:#87BECF;" d="M230.25,594.166v0.002c-0.075,0.552,0.314,1.065,0.867,1.14l33.129,4.521
							c0.552,0.075,1.065-0.315,1.141-0.867v-0.001c0.075-0.552-0.314-1.063-0.866-1.141l-33.129-4.52
							C230.838,593.226,230.325,593.614,230.25,594.166z"/>
						<path style="fill:#87BECF;" d="M247.293,591.835c-6.343-1.538-27.678,1.307-34.652,4.726l0.142,1.037l34.651-4.724
							L247.293,591.835z"/>
					</g>
				</g>
			</g>
		</g>
		<g>
			<g>
				<path style="fill:#F75478;" d="M171.954,319.976c23.553,0,47.106,0,70.662,0c20.315,0,37.203,19.332,39.568,44.057h-4.379h0.002
					c-2.141-22.397-17.438-39.908-35.842-39.908c-21.335,0-47.305,0-68.64,0c-18.399,0-33.698,17.51-35.841,39.908h0.004h-5.104
					C134.748,339.307,151.637,319.976,171.954,319.976z"/>
				<path style="fill:#BFF0FF;" d="M277.805,364.033H137.489h-0.004c2.143-22.397,17.441-39.908,35.841-39.908
					c21.335,0,47.305,0,68.64,0c18.403,0,33.701,17.51,35.842,39.908H277.805z"/>
				<path style="fill:#4D4D4D;" d="M113.007,450.893h23.752c2.841,0,5.164,2.616,5.164,5.814v18.605
					c0,3.198-2.323,5.814-5.164,5.814h-23.752c-2.839,0-5.164-2.616-5.164-5.814v-18.605
					C107.843,453.509,110.168,450.893,113.007,450.893z"/>
				<path style="fill:#808080;" d="M113.007,450.893h23.752c2.841,0,5.164,2.228,5.164,4.95v15.841c0,2.723-2.323,4.95-5.164,4.95
					h-23.752c-2.839,0-5.164-2.229-5.164-4.95v-15.841C107.843,453.119,110.168,450.893,113.007,450.893z"/>
				<path style="fill:#4D4D4D;" d="M277.807,450.893h23.754c2.839,0,5.164,2.616,5.164,5.814v18.605
					c0,3.198-2.325,5.814-5.164,5.814h-23.754c-2.839,0-5.162-2.616-5.162-5.814v-18.605
					C272.645,453.509,274.968,450.893,277.807,450.893z"/>
				<path style="fill:#808080;" d="M277.807,450.893h23.754c2.839,0,5.164,2.228,5.164,4.95v15.841c0,2.723-2.325,4.95-5.164,4.95
					h-23.754c-2.839,0-5.162-2.229-5.162-4.95v-15.841C272.645,453.119,274.968,450.893,277.807,450.893z"/>
				<path style="fill:#F75478;" d="M291.943,347.339l20.093-2.194c2.922-0.319,5.34,2.559,5.34,5.684v4.262
					c0,3.126-2.418,5.365-5.34,5.684l-20.093,2.193l-9.759,1.065l-2.216,0.242l-0.214-3.509l12.188-1.331L291.943,347.339
					L291.943,347.339z"/>
				<path style="fill:#A7E1F2;" d="M188.68,335.347c1.609,0,2.214,1.964,2.105,2.976c-0.806,7.525-1.413,16.242-1.754,25.71h-32.786
					c0.658-10.132,3.001-19.346,6.447-26.718c0.508-1.085,1.497-1.98,2.642-1.968H188.68L188.68,335.347z"/>
				<path style="fill:#A7E1F2;" d="M225.806,335.347c-1.608,0-2.214,1.964-2.107,2.976c0.806,7.525,1.413,16.242,1.753,25.71h32.789
					c-0.66-10.132-3.001-19.346-6.447-26.718c-0.51-1.085-1.5-1.98-2.644-1.968H225.806L225.806,335.347z"/>
				<path style="fill:#A7E1F2;" d="M199.48,328.164h15.61c1.338,0,2.343,1.189,2.435,2.638l0.171,2.763
					c0.101,1.622-0.507,2.638-2.48,2.638h-15.859c-2.094,0-2.581-1.015-2.481-2.638l0.172-2.763
					C197.137,329.353,198.141,328.164,199.48,328.164z"/>
				<rect x="206.502" y="324.125" style="fill:#A7E1F2;" width="1.564" height="4.039"/>
				<path style="fill:#EB365E;" d="M284.701,364.033c15.955,0,27.669,14.2,29.011,31.465l3.008,38.773
					c1.502,19.34-6.021,31.466-29.567,31.466c-80.258,0-79.478,0-159.735,0c-23.544,0-31.069-12.126-29.567-31.466l3.008-38.773
					c1.342-17.265,13.057-31.465,29.012-31.465C208.492,364.033,206.078,364.033,284.701,364.033z"/>
				<path style="fill:#F75478;" d="M278.958,364.033c14.771,0,25.618,12.694,26.859,28.128l2.787,34.661
					c1.389,17.288-5.579,28.129-27.375,28.129c-74.307,0-73.583,0-147.89,0c-21.796,0-28.762-10.841-27.374-28.129l2.786-34.661
					c1.241-15.434,12.088-28.128,26.859-28.128C208.403,364.033,206.167,364.033,278.958,364.033z"/>
				<path style="fill:#FF7A97;" d="M277.08,364.033c-5.164,26.896-30.809,56.266-69.794,56.266
					c-38.988,0-64.633-29.371-69.797-56.266c2.899,24.046,12.255,49.334,26.8,66.894h85.992
					C264.825,413.367,274.181,388.079,277.08,364.033z"/>
				<path style="fill:#F75478;" d="M122.626,347.339l-20.094-2.194c-2.921-0.319-5.34,2.559-5.34,5.684v4.262
					c0,3.126,2.419,5.365,5.34,5.684l20.094,2.193l9.759,1.065l2.216,0.242l0.214-3.509l-12.188-1.331L122.626,347.339
					L122.626,347.339z"/>
				<path style="opacity:0.5;fill:#FFFFFF;enable-background:new    ;" d="M244.073,351.649l23.011-14.682
					c1.057,1.289,2.051,2.658,2.977,4.098l-25.987,16.576L244.073,351.649L244.073,351.649z M244.073,345.499l19.41-12.386
					c-3.006-2.818-6.372-5.064-9.99-6.606l-9.42,6.012V345.499L244.073,345.499z M244.073,326.502v-2.301
					c1.015,0.075,2.018,0.203,3.008,0.381L244.073,326.502z M234.054,364.033h-9.392l19.41-12.384v5.992L234.054,364.033
					L234.054,364.033z M244.073,324.202c-0.696-0.051-1.399-0.077-2.107-0.077h-3.551l-62.532,39.908h9.383l58.808-37.53
					L244.073,324.202L244.073,324.202z M244.073,332.519l-49.381,31.514h20.334l29.047-18.534V332.519z"/>
				<g>
					<path style="fill:#EB365E;" d="M147.434,465.737h-1.453h-1.161h-0.271h-1.417h-1.399h-0.178h-1.204h-1.366h-0.799h-0.554
						h-1.335h-1.324h-0.265h-1.043h-1.298h-1.248h-0.035h-1.272h-1.262h-1.133c-23.544,0-31.069-12.126-29.567-31.466l0.623-8.038
						h20.036c6.198,0,15.563,3.985,19.746,9.254l14.307,18.027C157.245,459.416,156.579,465.737,147.434,465.737z"/>
					<path style="fill:#EB365E;" d="M316.096,426.233l0.623,8.038c1.502,19.34-6.021,31.466-29.567,31.466h-1.132h-1.262h-1.272
						h-0.036h-1.248h-1.297h-1.044h-0.265h-1.324h-1.337h-0.552h-0.799h-1.366h-1.203h-0.181h-1.399h-1.415h-0.271h-1.163h-1.451
						c-9.145,0-9.81-6.321-5.126-12.223l14.307-18.027c4.18-5.269,13.547-9.254,19.746-9.254H316.096z"/>
				</g>
				<path style="fill:#EB365E;" d="M177.28,441.553h60.009c2.682,0,4.873,2.194,4.873,4.874v14.438c0,2.681-2.191,4.874-4.873,4.874
					H177.28c-2.681,0-4.873-2.193-4.873-4.874v-14.438C172.407,443.747,174.599,441.553,177.28,441.553z"/>
				<path style="fill:#4D4D4D;" d="M254.074,420.299c13.022,0,13.021,21.254-17.619,21.254h-58.341
					c-30.64,0-30.642-21.254-17.619-21.254H254.074z"/>
				<path style="fill:#FFFFFF;" d="M179.885,444.831h54.798c1.954,0,3.554,1.598,3.554,3.553v10.522c0,1.955-1.6,3.554-3.554,3.554
					h-54.798c-1.953,0-3.554-1.599-3.554-3.554v-10.522C176.332,446.429,177.932,444.831,179.885,444.831z"/>
				<path style="fill:#F75478;" d="M207.284,437.135c5.148,0,9.345-2.788,9.345-6.209c0-3.42-4.196-6.21-9.345-6.21
					c-5.146,0-9.343,2.79-9.343,6.21C197.941,434.347,202.137,437.135,207.284,437.135z"/>
				<path style="fill:#E6E6E6;" d="M207.284,434.55c3.88,0,7.046-1.629,7.046-3.624c0-1.996-3.166-3.624-7.046-3.624
					c-3.881,0-7.045,1.628-7.045,3.624C200.239,432.921,203.403,434.55,207.284,434.55z"/>
				<g>
					<g>
						<path style="fill:#4D4D4D;" d="M115.346,401.959c4.527,0,9.054,0,13.583,0c4.53,0,9.058,0,13.588,0
							c1.651,0,3.006,1.578,3.006,3.502c0,2.324,0,4.646,0,6.966c0,2.323,0,4.645,0,6.966c0,1.926-1.488,3.5-3.302,3.5
							c-4.981,0-9.959,0-14.936,0c-4.978,0-9.957,0-14.935,0c-1.811,0-3.05-1.573-2.745-3.5c0.367-2.321,0.731-4.644,1.097-6.966
							c0.365-2.319,0.728-4.643,1.095-6.966C112.102,403.534,113.693,401.959,115.346,401.959z"/>
						<path style="fill:#E6E6E6;" d="M123.372,403.97c2.859,0,5.723,0,8.582,0c2.861,0,5.725,0,8.588,0
							c1.429,0,2.585,1.275,2.565,2.828c-0.021,1.878-0.042,3.755-0.061,5.629c-0.02,1.877-0.046,3.753-0.066,5.628
							c-0.016,1.555-1.29,2.828-2.837,2.828c-3.088,0-6.181,0-9.267,0c-3.089,0-6.177,0-9.267,0
							c0.296-2.816,0.589-5.638,0.881-8.456C122.782,409.61,123.076,406.79,123.372,403.97z"/>
						<path style="fill:#E85D33;" d="M117.008,403.97c1.226,0,2.449,0,3.68,0c-0.329,2.82-0.656,5.642-0.985,8.457
							c-0.327,2.819-0.658,5.64-0.988,8.456c-1.325,0-2.649,0-3.971,0c-1.547,0-2.619-1.271-2.393-2.828
							c0.276-1.875,0.546-3.752,0.821-5.628c0.276-1.875,0.552-3.751,0.823-5.629C114.222,405.244,115.58,403.97,117.008,403.97z"/>
						<path style="fill:#FFFFFF;" d="M143.027,414.096c-0.018,1.556-1.272,2.829-2.788,2.829c-3.039,0-6.076,0-9.111,0
							c-3.032,0-6.071,0-9.104,0c0.225-2.159,0.447-4.316,0.67-6.476c0.225-2.158,0.454-4.318,0.679-6.479c2.859,0,5.723,0,8.582,0
							c2.861,0,5.725,0,8.588,0c1.429,0,2.585,1.275,2.565,2.828c-0.014,1.217-0.026,2.435-0.04,3.649
							C143.055,411.664,143.038,412.88,143.027,414.096z"/>
						<path style="fill:#FF6E42;" d="M117.008,403.97c1.226,0,2.449,0,3.68,0c-0.251,2.161-0.507,4.321-0.759,6.479
							c-0.251,2.158-0.5,4.315-0.752,6.476c-1.304,0-2.603,0-3.904,0c-1.518,0-2.57-1.272-2.341-2.829
							c0.174-1.216,0.347-2.434,0.525-3.647c0.178-1.218,0.362-2.434,0.538-3.649C114.222,405.244,115.58,403.97,117.008,403.97z"/>
					</g>
					<g>
						<path style="fill:#4D4D4D;" d="M299.222,401.959c-4.529,0-9.056,0-13.583,0c-4.53,0-9.058,0-13.588,0
							c-1.653,0-3.006,1.578-3.006,3.502c0,2.324,0,4.646,0,6.966c0,2.323,0,4.645,0,6.966c0,1.926,1.488,3.5,3.302,3.5
							c4.979,0,9.959,0,14.937,0c4.977,0,9.954,0,14.934,0c1.812,0,3.051-1.573,2.746-3.5c-0.367-2.321-0.734-4.644-1.1-6.966
							c-0.362-2.319-0.728-4.643-1.093-6.966C302.466,403.534,300.875,401.959,299.222,401.959z"/>
						<path style="fill:#E6E6E6;" d="M291.197,403.97c-2.858,0-5.723,0-8.581,0c-2.863,0-5.725,0-8.589,0
							c-1.428,0-2.585,1.275-2.567,2.828c0.022,1.878,0.042,3.755,0.063,5.629c0.02,1.877,0.047,3.753,0.066,5.628
							c0.016,1.555,1.291,2.828,2.837,2.828c3.089,0,6.181,0,9.267,0c3.089,0,6.177,0,9.266,0c-0.297-2.816-0.588-5.638-0.879-8.456
							C291.787,409.61,291.491,406.79,291.197,403.97z"/>
						<path style="fill:#E85D33;" d="M297.56,403.97c-1.226,0-2.451,0-3.68,0c0.327,2.82,0.656,5.642,0.983,8.457
							c0.329,2.819,0.661,5.64,0.99,8.456c1.326,0,2.649,0,3.969,0c1.547,0,2.621-1.271,2.395-2.828
							c-0.275-1.875-0.545-3.752-0.821-5.628c-0.275-1.875-0.552-3.751-0.825-5.629C300.346,405.244,298.989,403.97,297.56,403.97z"
							/>
						<path style="fill:#FFFFFF;" d="M271.54,414.096c0.021,1.556,1.272,2.829,2.79,2.829c3.039,0,6.076,0,9.109,0
							c3.034,0,6.071,0,9.106,0c-0.227-2.159-0.447-4.316-0.67-6.476c-0.225-2.158-0.453-4.318-0.679-6.479
							c-2.858,0-5.723,0-8.581,0c-2.863,0-5.725,0-8.589,0c-1.428,0-2.585,1.275-2.567,2.828c0.016,1.217,0.029,2.435,0.04,3.649
							C271.513,411.664,271.531,412.88,271.54,414.096z"/>
						<path style="fill:#FF6E42;" d="M297.56,403.97c-1.226,0-2.451,0-3.68,0c0.251,2.161,0.507,4.321,0.759,6.479
							c0.251,2.158,0.498,4.315,0.75,6.476c1.306,0,2.605,0,3.907,0c1.517,0,2.569-1.272,2.34-2.829
							c-0.176-1.216-0.347-2.434-0.524-3.647c-0.179-1.218-0.363-2.434-0.541-3.649C300.344,405.244,298.989,403.97,297.56,403.97z"
							/>
					</g>
				</g>
				<g>
					<g>
						<path style="fill:#87BECF;" d="M167.145,359.24h-0.002c-0.073,0.553,0.315,1.066,0.867,1.142l33.13,4.519
							c0.552,0.075,1.063-0.314,1.14-0.868l0,0c0.075-0.553-0.314-1.065-0.866-1.141l-33.129-4.518
							C167.733,358.298,167.218,358.688,167.145,359.24z"/>
						<path style="fill:#87BECF;" d="M184.186,356.909c-6.341-1.538-27.676,1.306-34.651,4.725l0.143,1.038l34.651-4.725
							L184.186,356.909z"/>
					</g>
					<g>
						<path style="fill:#87BECF;" d="M230.612,359.24L230.612,359.24c-0.076,0.553,0.316,1.066,0.868,1.142l33.129,4.519
							c0.552,0.075,1.063-0.314,1.14-0.868l0,0c0.075-0.553-0.314-1.065-0.866-1.141l-33.129-4.518
							C231.202,358.298,230.687,358.688,230.612,359.24z"/>
						<path style="fill:#87BECF;" d="M247.655,356.909c-6.343-1.538-27.678,1.306-34.651,4.725l0.143,1.038l34.651-4.725
							L247.655,356.909z"/>
					</g>
				</g>
			</g>
		</g>
		<g>
			<g>
				<path style="fill:#4D4D4D;" d="M507.911,686.044h23.752c2.839,0,5.164,2.615,5.164,5.813v18.606
					c0,3.198-2.325,5.813-5.164,5.813h-23.752c-2.841,0-5.164-2.615-5.164-5.813v-18.606
					C502.747,688.659,505.07,686.044,507.911,686.044z"/>
				<path style="fill:#808080;" d="M507.911,686.044h23.752c2.839,0,5.164,2.228,5.164,4.949v15.842
					c0,2.722-2.325,4.949-5.164,4.949h-23.752c-2.841,0-5.164-2.229-5.164-4.949v-15.842
					C502.747,688.271,505.07,686.044,507.911,686.044z"/>
				<path style="fill:#4D4D4D;" d="M654.371,686.044h23.751c2.842,0,5.164,2.615,5.164,5.813v18.606
					c0,3.198-2.322,5.813-5.164,5.813h-23.751c-2.841,0-5.164-2.615-5.164-5.813v-18.606
					C649.207,688.659,651.53,686.044,654.371,686.044z"/>
				<path style="fill:#808080;" d="M654.371,686.044h23.751c2.842,0,5.164,2.228,5.164,4.949v15.842
					c0,2.722-2.322,4.949-5.164,4.949h-23.751c-2.841,0-5.164-2.229-5.164-4.949v-15.842
					C649.207,688.271,651.53,686.044,654.371,686.044z"/>
				<path style="fill:#54C15E;" d="M558.808,555.125c41.962,0,26.454,0,68.419,0c18.491,0,34.521,7.046,34.521,24.188v40.894h-5.329
					v-37.615c0-15.813-14.785-22.313-31.844-22.313c-38.709,0-24.405,0-63.114,0c-17.06,0-31.844,6.498-31.844,22.313v37.615h-5.329
					v-40.894C524.287,562.17,540.315,555.125,558.808,555.125z"/>
				<path style="fill:#BFF0FF;" d="M656.418,620.206H529.616v-37.615c0-15.813,14.784-22.313,31.844-22.313
					c38.709,0,24.405,0,63.114,0c17.059,0,31.844,6.499,31.844,22.313V620.206z"/>
				<path style="fill:#B3B3B3;" d="M509.643,592.439H497.96c-2.938,0-5.341,2.558-5.341,5.685v4.262
					c0,3.126,2.403,5.685,5.341,5.685h7.716l14.62,7.215l1.403-3.223l-12.058-5.95L509.643,592.439L509.643,592.439z
					 M676.327,592.439h11.683c2.938,0,5.34,2.558,5.34,5.685v4.262c0,3.126-2.401,5.685-5.34,5.685h-7.716l-14.62,7.215
					l-1.404-3.223l12.059-5.95L676.327,592.439L676.327,592.439z"/>
				<path style="fill:#CCCCCC;" d="M509.643,592.439H497.96c-2.938,0-5.341,2.558-5.341,5.685v2.136
					c0,3.126,2.403,5.685,5.341,5.685h7.716l14.62,7.215l0.642-1.474l-11.295-5.573v-2.126V592.439L509.643,592.439z M693.35,600.26
					c0,3.126-2.401,5.685-5.34,5.685h-7.716l-14.62,7.215l-0.641-1.474l11.294-5.573v-2.126V592.44h11.683
					c2.938,0,5.34,2.558,5.34,5.685V600.26z"/>
				<path style="fill:#A7E1F2;" d="M579.368,572.677c2.021,0,2.778,2.465,2.644,3.735c-1.011,9.45-1.772,20.396-2.201,32.283h-41.17
					c0.827-12.724,3.77-24.291,8.098-33.548c0.639-1.362,1.88-2.486,3.316-2.472L579.368,572.677L579.368,572.677z"/>
				<path style="fill:#A7E1F2;" d="M607.131,572.677c-2.021,0-2.781,2.465-2.646,3.735c1.013,9.45,1.772,20.396,2.199,32.283h41.174
					c-0.83-12.724-3.771-24.291-8.1-33.548c-0.639-1.362-1.88-2.486-3.316-2.472L607.131,572.677L607.131,572.677z"/>
				<path style="opacity:0.5;fill:#FFFFFF;enable-background:new    ;" d="M612.733,596.746l40.112-25.835
					c0.986,1.355,1.787,2.854,2.381,4.498l-42.494,27.372L612.733,596.746L612.733,596.746z M612.733,590.553l36.427-23.457
					c-3.197-2.543-7.275-4.326-11.877-5.429l-24.55,15.807V590.553L612.733,590.553z M612.733,571.404l16.961-10.92
					c-1.677-0.14-3.386-0.206-5.12-0.206h-3.942l-7.897,5.085L612.733,571.404L612.733,571.404z M585.681,620.206h-9.376
					l36.43-23.46v6.035L585.681,620.206L585.681,620.206z M612.733,565.363l-83.117,53.514v1.329h7.316l75.801-48.802V565.363
					L612.733,565.363z M612.733,577.474l-66.375,42.732h20.322l46.053-29.653V577.474z"/>
				<path style="fill:#A7E1F2;" d="M585.213,565.456h15.61c1.337,0,2.343,1.188,2.434,2.638l0.172,2.763
					c0.101,1.622-0.508,2.638-2.479,2.638H585.09c-2.094,0-2.581-1.016-2.48-2.638l0.172-2.763
					C582.87,566.644,583.874,565.456,585.213,565.456z"/>
				<rect x="592.235" y="560.278" style="fill:#A7E1F2;" width="1.563" height="5.178"/>
				<path style="fill:#3D9E45;" d="M504.926,700.888h176.184c8.616,0,15.666-7.05,15.666-15.666v-45.424
					c0-52.611-207.516-55.102-207.516,0v45.424C489.26,693.838,496.309,700.888,504.926,700.888z"/>
				<path style="fill:#54C15E;" d="M696.774,650.03v-10.232c0-52.61-207.516-55.101-207.516,0v10.232c0,4.29,7.049,7.8,15.666,7.8
					h176.184C689.726,657.83,696.774,654.32,696.774,650.03z"/>
				<path style="fill:#3D9E45;" d="M672.841,646.854c7.474,0,13.567-6.096,13.567-13.566c0-7.475-6.095-13.568-13.567-13.568
					c-7.474,0-13.567,6.096-13.567,13.568C659.271,640.759,665.367,646.854,672.841,646.854z"/>
				<path style="fill:#3D9E45;" d="M513.193,646.854c7.472,0,13.567-6.096,13.567-13.566c0-7.475-6.097-13.568-13.567-13.568
					c-7.475,0-13.567,6.096-13.567,13.568C499.626,640.759,505.72,646.854,513.193,646.854z"/>
				<polygon style="fill:#60CA68;" points="661.747,608.979 637.88,642.934 653.525,657.83 				"/>
				<polygon style="fill:#60CA68;" points="524.287,608.979 548.563,642.934 532.918,657.83 				"/>
				<path style="fill:#3D9E45;" d="M696.46,673.513c-1.457-7.136-7.803-12.547-15.352-12.547h-27.563V658.6
					c0-8.616-7.051-15.666-15.666-15.666h-89.315c-8.615,0-15.663,7.052-15.663,15.666v2.366h-27.976
					c-7.549,0-13.895,5.412-15.353,12.547c1.458,5.68,7.804,9.986,15.353,9.986h34.119h107.943h34.12
					C688.657,683.499,695.003,679.191,696.46,673.513z"/>
				<path style="fill:#CCCCCC;" d="M513.193,643.732c5.754,0,10.445-4.693,10.445-10.445c0-5.754-4.691-10.446-10.445-10.446
					c-5.753,0-10.446,4.692-10.446,10.446C502.747,639.039,507.44,643.732,513.193,643.732z"/>
				<path style="fill:#CCCCCC;" d="M672.841,643.732c5.753,0,10.445-4.693,10.445-10.445c0-5.754-4.692-10.446-10.445-10.446
					c-5.754,0-10.446,4.692-10.446,10.446C662.395,639.039,667.087,643.732,672.841,643.732z"/>
				<path style="fill:#E6E6E6;" d="M513.193,622.841c4.994,0,9.169,3.506,10.201,8.19c-1.032,4.687-5.206,8.19-10.201,8.19
					s-9.171-3.505-10.201-8.19C504.022,626.347,508.198,622.841,513.193,622.841z"/>
				<path style="fill:#E6E6E6;" d="M672.841,622.841c4.994,0,9.171,3.506,10.201,8.19c-1.03,4.687-5.207,8.19-10.201,8.19
					c-4.995,0-9.172-3.505-10.202-8.19C663.669,626.347,667.846,622.841,672.841,622.841z"/>
				<path style="fill:#B3B3B3;" d="M504.926,700.888h34.119h107.943h34.12c8.616,0,15.666-7.05,15.666-15.666v-1.597
					c0-8.616-7.05-15.666-15.666-15.666h-34.12v-2.366c0-8.617-7.048-15.667-15.665-15.667h-76.612
					c-8.617,0-15.666,7.052-15.666,15.667v2.366h-34.119c-8.617,0-15.666,7.05-15.666,15.666v1.597
					C489.26,693.838,496.309,700.888,504.926,700.888z"/>
				<path style="fill:#CCCCCC;" d="M696.46,680.505c-1.457-7.135-7.803-12.546-15.352-12.546h-34.12v-2.366
					c0-8.617-7.048-15.667-15.665-15.667h-76.612c-8.617,0-15.666,7.052-15.666,15.667v2.366h-34.119
					c-7.549,0-13.895,5.412-15.353,12.547c1.458,5.679,7.804,9.985,15.353,9.985h34.119h107.943h34.12
					C688.657,690.491,695.003,686.184,696.46,680.505z"/>
				<path style="fill:#E6E6E6;" d="M505.775,684.529h9.896c1.425,0,2.494-1.146,2.588-2.543l0.184-2.663
					c0.108-1.565-0.536-2.543-2.638-2.543h-10.161c-2.229,0-2.745,0.978-2.639,2.543l0.183,2.663
					C503.284,683.384,504.352,684.529,505.775,684.529z"/>
				<path style="fill:#E6E6E6;" d="M670.364,684.529h9.896c1.422,0,2.492-1.146,2.588-2.543l0.183-2.663
					c0.106-1.565-0.538-2.543-2.64-2.543h-10.16c-2.229,0-2.745,0.978-2.64,2.543l0.184,2.663
					C667.87,683.384,668.94,684.529,670.364,684.529z"/>
				<path style="fill:#4D4D4D;" d="M556.195,657.961h72.821c4.815,0,8.753,3.938,8.753,8.753c0,14.115,0,1.505,0,15.619
					c0,4.815-3.939,8.753-8.753,8.753h-72.821c-4.814,0-8.753-3.938-8.753-8.753c0-14.114,0-1.504,0-15.619
					C547.442,661.9,551.381,657.961,556.195,657.961z"/>
				<g>
					<rect x="543.524" y="665.88" style="fill:#CCCCCC;" width="99.885" height="4.252"/>
					<rect x="543.524" y="678.917" style="fill:#CCCCCC;" width="99.885" height="4.251"/>
				</g>
				<g>
					<rect x="607.719" y="653.205" style="fill:#CCCCCC;" width="4.251" height="37.881"/>
					<rect x="573.243" y="653.205" style="fill:#CCCCCC;" width="4.249" height="37.881"/>
				</g>
				<g>
					<g>
						<path style="fill:#87BECF;" d="M552.636,596.969L552.636,596.969c-0.038,0.558,0.386,1.042,0.94,1.081l33.355,2.314
							c0.558,0.038,1.042-0.386,1.079-0.941l0,0c0.04-0.556-0.383-1.042-0.938-1.08l-33.356-2.314
							C553.16,595.99,552.676,596.412,552.636,596.969z"/>
						<path style="fill:#87BECF;" d="M569.487,593.513c-6.432-1.113-27.529,3.138-34.263,7.012l0.209,1.024l34.263-7.01
							L569.487,593.513z"/>
					</g>
					<g>
						<path style="fill:#87BECF;" d="M617.431,595.746L617.431,595.746c-0.163,0.534,0.143,1.103,0.677,1.264l32.002,9.688
							c0.53,0.161,1.101-0.145,1.262-0.677v-0.002c0.162-0.531-0.143-1.101-0.675-1.263l-32.004-9.687
							C618.16,594.908,617.591,595.213,617.431,595.746z"/>
						<path style="fill:#87BECF;" d="M634.627,596.132c-6.021-2.52-27.538-3.075-34.963-0.8l-0.024,1.047l34.964,0.8
							L634.627,596.132z"/>
					</g>
				</g>
			</g>
		</g>
		<g>
			<path style="fill:#2E74C9;" d="M669.809,363.794l-9.764-33.303c-3.54-12.076-11.313-16.035-24.734-16.035h-84.967
				c-13.422,0-25.002,3.73-27.548,16.035l-6.893,33.298l5.741-0.098l6.229-30.109c2.301-11.122,12.771-14.493,24.9-14.493h80.102
				c12.133,0,19.158,3.579,22.359,14.493l8.832,30.115L669.809,363.794z"/>
			<path style="fill:#4D4D4D;" d="M498.551,423.788h23.752c2.84,0,5.163,2.616,5.163,5.813v45.369c0,3.197-2.323,5.813-5.163,5.813
				h-23.752c-2.84,0-5.164-2.616-5.164-5.813v-45.369C493.387,426.404,495.71,423.788,498.551,423.788z"/>
			<path style="fill:#4D4D4D;" d="M663.352,423.788h23.752c2.841,0,5.164,2.616,5.164,5.813v45.369c0,3.197-2.323,5.813-5.164,5.813
				h-23.752c-2.84,0-5.164-2.616-5.164-5.813v-45.369C658.188,426.404,660.511,423.788,663.352,423.788z"/>
			<path style="fill:#808080;" d="M498.551,423.788h23.752c2.84,0,5.163,2.227,5.163,4.95v42.602c0,2.723-2.323,4.95-5.163,4.95
				h-23.752c-2.84,0-5.164-2.228-5.164-4.95v-42.602C493.387,426.015,495.71,423.788,498.551,423.788z"/>
			<path style="fill:#808080;" d="M663.352,423.788h23.752c2.841,0,5.164,2.227,5.164,4.95v42.602c0,2.723-2.323,4.95-5.164,4.95
				h-23.752c-2.84,0-5.164-2.228-5.164-4.95v-42.602C658.188,426.015,660.511,423.788,663.352,423.788z"/>
			<path style="fill:#2E74C9;" d="M676.137,345.867h11.683c2.938,0,5.341,2.558,5.341,5.683v4.263c0,3.126-2.403,5.683-5.341,5.683
				h-7.716l-14.619,7.216l-1.403-3.222l12.057-5.95L676.137,345.867L676.137,345.867z M509.451,345.867H497.77
				c-2.938,0-5.34,2.558-5.34,5.683v4.263c0,3.126,2.402,5.683,5.34,5.683h7.716l14.62,7.216l1.403-3.222l-12.058-5.95V345.867
				L509.451,345.867z"/>
			<path style="fill:#4D4D4D;" d="M670.242,363.688c15.955,0,27.67,11.324,29.012,25.09l3.009,30.917
				c1.501,15.421-6.022,25.091-29.566,25.091c-80.259,0-79.479,0-159.736,0c-23.545,0-31.069-9.67-29.568-25.091l3.011-30.917
				c1.34-13.767,13.055-25.09,29.012-25.09C594.034,363.688,591.619,363.688,670.242,363.688z"/>
			<path style="fill:#BFF0FF;" d="M655.236,333.583l8.832,30.115l-142.425-0.005l6.23-30.109c2.301-11.121,12.77-14.493,24.9-14.493
				h80.102C645.01,319.089,652.035,322.668,655.236,333.583z"/>
			<path style="fill:#2E74C9;" d="M670.242,363.688c15.955,0,27.67,11.324,29.012,25.09l2.363,24.292
				c-0.715,11.86-8.981,19.073-29.488,19.073h-28.616l-3.792-10.276c-2.922-7.92-2.203-9.375-12.955-9.375
				c-7.026,0-60.851,0-67.879,0c-10.752,0-10.033,1.455-12.955,9.375l-3.791,10.276h-28.617c-20.506,0-28.771-7.213-29.486-19.073
				l2.364-24.292c1.34-13.767,13.055-25.09,29.012-25.09C594.034,363.688,591.619,363.688,670.242,363.688z"/>
			<path style="fill:#458DE6;" d="M667.145,363.688c15.316,0,26.563,10.305,27.851,22.833l2.27,22.106
				c-0.687,10.795-8.62,17.358-28.308,17.358h-27.472l-3.641-9.353c-2.805-7.208-2.114-8.533-12.437-8.533
				c-6.746,0-58.416,0-65.163,0c-10.321,0-9.632,1.325-12.438,8.533l-3.64,9.353h-27.472c-19.687,0-27.621-6.563-28.308-17.358
				l2.27-22.106c1.286-12.529,12.532-22.833,27.851-22.833C593.986,363.688,591.668,363.688,667.145,363.688z"/>
			<path style="fill:#808080;" d="M510.965,440.96h8.562c1.229,0,2.155-0.79,2.237-1.751l0.158-1.833
				c0.093-1.079-0.465-1.752-2.281-1.752h-8.791c-1.927,0-2.374,0.673-2.28,1.752l0.157,1.833
				C508.809,440.17,509.734,440.96,510.965,440.96z"/>
			<path style="fill:#808080;" d="M667.271,439.979h9.291c1.335,0,2.34-0.854,2.43-1.899l0.17-1.988
				c0.102-1.171-0.504-1.899-2.478-1.899h-9.538c-2.093,0-2.576,0.729-2.477,1.899l0.171,1.988
				C664.932,439.124,665.936,439.979,667.271,439.979z"/>
			<path style="fill:#FFFFFF;" d="M565.428,419.836h54.799c1.953,0,3.554,1.6,3.554,3.554v10.521c0,1.956-1.601,3.554-3.554,3.554
				h-54.799c-1.955,0-3.553-1.598-3.553-3.554V423.39C561.875,421.436,563.473,419.836,565.428,419.836z"/>
			<g>
				<path style="fill:#A7E1F2;" d="M578.032,335.002c2.192,0,3.019,1.964,2.871,2.976c-1.1,7.525-1.927,16.243-2.391,25.71h-44.698
					c0.899-10.132,4.092-19.346,8.791-26.717c0.692-1.085,2.041-1.98,3.602-1.969H578.032z"/>
				<path style="fill:#A7E1F2;" d="M607.621,335.002c-2.193,0-3.019,1.964-2.871,2.976c1.099,7.525,1.927,16.243,2.391,25.71h44.699
					c-0.9-10.132-4.092-19.346-8.791-26.717c-0.693-1.085-2.042-1.98-3.602-1.969H607.621z"/>
			</g>
			<path style="fill:#A7E1F2;" d="M585.021,325.976h15.611c1.337,0,2.343,1.189,2.434,2.638l0.171,2.762
				c0.101,1.623-0.505,2.639-2.479,2.639h-15.861c-2.094,0-2.577-1.014-2.479-2.639l0.172-2.762
				C582.68,327.164,583.684,325.976,585.021,325.976z"/>
			<rect x="592.045" y="319.089" style="fill:#A7E1F2;" width="1.563" height="6.886"/>
			<path style="fill:#458DE6;" d="M676.137,345.867h11.683c2.938,0,5.341,2.558,5.341,5.683v1.907c0,3.125-2.403,5.683-5.341,5.683
				h-7.716l-14.619,7.215l-0.56-1.283l11.212-5.533v-2.357V345.867L676.137,345.867z M492.43,353.456
				c0,3.125,2.402,5.683,5.34,5.683h7.716l14.62,7.215l0.56-1.283l-11.213-5.533v-2.357v-11.314H497.77
				c-2.938,0-5.34,2.558-5.34,5.683V353.456z"/>
			<path style="fill:#458DE6;" d="M669.809,363.794l-9.764-33.303c-3.54-12.076-11.313-16.035-24.734-16.035h-84.967
				c-13.42,0-25.002,3.731-27.548,16.035l-6.893,33.298l5.181-0.088l6.791-32.805c2.303-11.122,12.771-14.494,24.9-14.494h80.102
				c12.133,0,19.159,3.579,22.359,14.494l9.621,32.814L669.809,363.794z"/>
			<path style="opacity:0.5;fill:#FFFFFF;enable-background:new    ;" d="M654.462,331.274l-32.78,21.115v-6.032l30.445-19.607
				C653.029,328.057,653.805,329.559,654.462,331.274L654.462,331.274z M621.682,340.167l26.762-17.231
				c-3.562-2.6-8.287-3.706-14.354-3.833l-12.408,7.989V340.167L621.682,340.167z M621.682,321.022v-1.933h3.002L621.682,321.022z
				 M621.682,352.389l-17.391,11.202h-9.369l26.76-17.233V352.389L621.682,352.389z M621.682,319.089h-6.381L546.18,363.59h9.384
				l66.118-42.569V319.089L621.682,319.089z M621.682,327.09l-56.692,36.5h20.315l36.377-23.424V327.09z"/>
			<g>
				<g>
					<path style="fill:#87BECF;" d="M552.324,358.981L552.324,358.981c-0.076,0.553,0.313,1.066,0.867,1.141l33.129,4.519
						c0.551,0.076,1.063-0.313,1.141-0.867v-0.001c0.074-0.552-0.314-1.064-0.867-1.14l-33.129-4.518
						C552.912,358.04,552.399,358.429,552.324,358.981z"/>
					<path style="fill:#87BECF;" d="M569.367,356.65c-6.343-1.539-27.678,1.306-34.651,4.725l0.142,1.037l34.65-4.724
						L569.367,356.65z"/>
				</g>
				<g>
					<path style="fill:#87BECF;" d="M615.793,358.981L615.793,358.981c-0.076,0.553,0.314,1.066,0.866,1.141l33.129,4.519
						c0.552,0.076,1.065-0.313,1.141-0.867v-0.001c0.075-0.552-0.313-1.064-0.865-1.14l-33.13-4.518
						C616.381,358.04,615.867,358.429,615.793,358.981z"/>
					<path style="fill:#87BECF;" d="M632.836,356.65c-6.344-1.539-27.679,1.306-34.652,4.725l0.143,1.037l34.65-4.724
						L632.836,356.65z"/>
				</g>
			</g>
			<g>
				<path style="fill:#CCCCCC;" d="M690.649,387.867c0.316,1.62-0.774,2.944-2.425,2.944H498.981c-1.649,0-2.741-1.325-2.425-2.944
					l2.307-11.776c0.315-1.62,1.926-2.944,3.576-2.944h182.327c1.65,0,3.261,1.325,3.576,2.944L690.649,387.867z"/>
			</g>
			<g>
				<path style="fill:#4144E8;" d="M679.85,374.911h1.835c2.354,0,4.607,2.09,5.36,4.639l1.436,4.856
					c0.843,2.854,0.193,4.64-3.276,4.64h-2.055L679.85,374.911z"/>
				<path style="fill:#D9D9D9;" d="M665.331,374.911h10.543l3.3,14.135h-10.763c-3.683,0-4.953-1.784-5.442-4.64l-0.832-4.856
					C661.701,377.001,662.979,374.911,665.331,374.911z"/>
				<path style="fill:#4144E8;" d="M507.88,374.911h-1.835c-2.352,0-4.604,2.09-5.359,4.639l-1.435,4.856
					c-0.843,2.854-0.194,4.64,3.276,4.64h2.054L507.88,374.911z"/>
				<path style="fill:#D9D9D9;" d="M522.398,374.911h-10.543l-3.3,14.135h10.764c3.683,0,4.954-1.784,5.441-4.64l0.832-4.856
					C526.029,377.001,524.752,374.911,522.398,374.911z"/>
			</g>
			<g>
				<path style="fill:#6467FF;" d="M679.85,374.911h1.835c2.354,0,4.607,2.09,5.36,4.639l1.41,4.775
					c-0.491,0.583-1.521,0.908-3.252,0.908h-2.055L679.85,374.911z"/>
				<path style="fill:#EDEDED;" d="M665.331,374.911h10.543l2.409,10.323h-9.872c-3.683,0-4.953-1.303-5.442-3.388l-0.832-3.548
					c-0.021-0.095-0.039-0.188-0.053-0.282C662.287,376.214,663.475,374.911,665.331,374.911z"/>
				<path style="fill:#6467FF;" d="M507.88,374.911h-1.835c-2.352,0-4.604,2.09-5.359,4.639l-1.41,4.775
					c0.491,0.583,1.521,0.908,3.253,0.908h2.054L507.88,374.911z"/>
				<path style="fill:#EDEDED;" d="M522.398,374.911h-10.543l-2.408,10.323h9.872c3.683,0,4.954-1.303,5.441-3.388l0.832-3.548
					c0.022-0.095,0.039-0.188,0.054-0.282C525.443,376.214,524.256,374.911,522.398,374.911z"/>
			</g>
			<g>
				<g>
					<rect x="596.03" y="373.146" style="fill:#4D4D4D;" width="4.046" height="17.665"/>
					<rect x="606.521" y="373.146" style="fill:#4D4D4D;" width="4.046" height="17.665"/>
					<rect x="617.013" y="373.146" style="fill:#4D4D4D;" width="4.046" height="17.665"/>
				</g>
				<g>
					<rect x="565.271" y="373.146" style="fill:#4D4D4D;" width="4.047" height="17.665"/>
					<rect x="575.764" y="373.146" style="fill:#4D4D4D;" width="4.046" height="17.665"/>
					<rect x="586.255" y="373.146" style="fill:#4D4D4D;" width="4.046" height="17.665"/>
				</g>
			</g>
		</g>
	</g>
</g>
<g id="DESIGNED_BY_FREEPIK">
	<g>
		<path style="fill:#4D4D4D;" d="M286.024,774.285v-0.256c-0.349,0.397-0.692,0.723-1.031,0.973c-0.339,0.25-0.706,0.441-1.102,0.57
			c-0.158,0.053-0.321,0.094-0.49,0.125v-1.935c0.453-0.001,0.865-0.12,1.241-0.355c0.376-0.237,0.677-0.603,0.902-1.091
			c0.225-0.491,0.336-1.105,0.336-1.841c0-0.688-0.111-1.282-0.336-1.78c-0.225-0.496-0.529-0.876-0.912-1.141
			c-0.375-0.257-0.786-0.387-1.23-0.392v-1.869c0.421,0.06,0.795,0.171,1.122,0.332c0.513,0.258,1.013,0.653,1.501,1.184v-3.828
			c0-0.53,0.105-0.934,0.318-1.204c0.211-0.272,0.514-0.408,0.907-0.408c0.392,0,0.694,0.125,0.906,0.375
			c0.213,0.25,0.319,0.617,0.319,1.104v11.437c0,0.494-0.114,0.864-0.342,1.111c-0.228,0.245-0.522,0.37-0.883,0.37
			c-0.355,0-0.648-0.129-0.879-0.384C286.139,775.125,286.024,774.761,286.024,774.285z M283.401,775.697
			c-0.255,0.047-0.524,0.069-0.806,0.069c-0.621,0-1.196-0.131-1.725-0.395c-0.528-0.262-0.986-0.639-1.371-1.125
			c-0.388-0.487-0.68-1.06-0.879-1.719c-0.2-0.66-0.3-1.371-0.3-2.138c0-1.621,0.396-2.887,1.188-3.791
			c0.791-0.903,1.833-1.356,3.125-1.356c0.271,0,0.528,0.017,0.769,0.051v1.869h-0.027c-0.475,0-0.899,0.133-1.273,0.402
			c-0.374,0.268-0.663,0.653-0.869,1.157c-0.207,0.504-0.309,1.088-0.309,1.752l0,0c0,0.704,0.109,1.302,0.328,1.797
			c0.218,0.493,0.517,0.865,0.897,1.113c0.38,0.252,0.795,0.377,1.244,0.377h0.009L283.401,775.697L283.401,775.697z"/>
		<path style="fill:#4D4D4D;" d="M297.457,771.134h-2.72v-1.474h2.351c-0.063-0.887-0.304-1.55-0.718-1.99
			c-0.414-0.438-0.958-0.658-1.633-0.66v-1.803h0.081c1.012,0,1.881,0.212,2.606,0.641c0.726,0.428,1.269,0.979,1.629,1.656
			c0.36,0.678,0.542,1.369,0.542,2.07c0,0.651-0.187,1.075-0.56,1.27C298.662,771.035,298.136,771.134,297.457,771.134
			L297.457,771.134z M294.737,774.041c0.064,0.004,0.129,0.007,0.194,0.007c0.31,0,0.594-0.035,0.851-0.106
			c0.256-0.075,0.504-0.188,0.746-0.344c0.24-0.153,0.461-0.321,0.664-0.498c0.202-0.18,0.465-0.421,0.788-0.724
			c0.133-0.114,0.323-0.171,0.571-0.171c0.266,0,0.481,0.074,0.645,0.219c0.164,0.147,0.248,0.353,0.248,0.617
			c0,0.234-0.093,0.508-0.276,0.822c-0.185,0.313-0.462,0.612-0.831,0.901c-0.372,0.287-0.836,0.525-1.397,0.718
			c-0.56,0.189-1.204,0.284-1.933,0.284c-0.091,0-0.181-0.002-0.27-0.005V774.041z M294.737,771.134h-2.352
			c0.007,0.589,0.125,1.106,0.356,1.557c0.231,0.45,0.539,0.79,0.921,1.018c0.33,0.195,0.687,0.307,1.074,0.334v1.722
			c-1.536-0.05-2.74-0.521-3.614-1.421c-0.925-0.948-1.387-2.237-1.387-3.865c0-0.766,0.114-1.477,0.342-2.133
			c0.228-0.653,0.561-1.216,0.997-1.686c0.437-0.469,0.975-0.826,1.615-1.077c0.617-0.241,1.3-0.366,2.047-0.374v1.803h-0.005
			c-0.646,0-1.177,0.224-1.591,0.669c-0.415,0.447-0.666,1.108-0.756,1.981l0,0h2.352L294.737,771.134L294.737,771.134z"/>
		<path style="fill:#4D4D4D;" d="M309.272,772.376c0,0.716-0.174,1.329-0.522,1.839c-0.348,0.51-0.863,0.896-1.544,1.158
			c-0.68,0.264-1.508,0.395-2.483,0.395c-0.931,0-1.729-0.143-2.394-0.428c-0.664-0.285-1.156-0.643-1.472-1.067
			c-0.317-0.429-0.475-0.855-0.475-1.287c0-0.285,0.101-0.529,0.304-0.73c0.203-0.202,0.46-0.304,0.77-0.304
			c0.272,0,0.48,0.064,0.626,0.198c0.146,0.133,0.286,0.319,0.418,0.561c0.266,0.464,0.585,0.807,0.955,1.036
			c0.37,0.228,0.875,0.341,1.515,0.341c0.519,0,0.945-0.115,1.278-0.346c0.332-0.232,0.498-0.496,0.498-0.794
			c0-0.456-0.172-0.787-0.519-0.996c-0.345-0.21-0.913-0.409-1.705-0.602c-0.893-0.22-1.619-0.455-2.18-0.696
			c-0.56-0.242-1.008-0.564-1.343-0.963c-0.336-0.4-0.504-0.892-0.504-1.474c0-0.519,0.155-1.01,0.465-1.473
			c0.311-0.461,0.768-0.83,1.374-1.105c0.604-0.276,1.333-0.414,2.188-0.414c0.671,0,1.275,0.069,1.809,0.21
			c0.536,0.139,0.983,0.326,1.34,0.561c0.358,0.231,0.63,0.494,0.816,0.778s0.279,0.563,0.279,0.837c0,0.297-0.1,0.541-0.298,0.73
			c-0.199,0.188-0.482,0.285-0.852,0.285c-0.267,0-0.492-0.077-0.679-0.229c-0.187-0.151-0.4-0.379-0.642-0.683
			c-0.196-0.253-0.426-0.456-0.692-0.61c-0.267-0.149-0.628-0.226-1.084-0.226c-0.469,0-0.858,0.099-1.168,0.3
			c-0.31,0.198-0.465,0.445-0.465,0.744c0,0.273,0.113,0.496,0.341,0.67c0.229,0.175,0.535,0.318,0.922,0.433
			c0.387,0.112,0.917,0.253,1.596,0.418c0.803,0.196,1.46,0.432,1.97,0.702c0.509,0.271,0.896,0.595,1.16,0.966
			C309.141,771.479,309.272,771.901,309.272,772.376z"/>
		<path style="fill:#4D4D4D;" d="M311.921,764.02c-0.361,0-0.669-0.11-0.926-0.334c-0.256-0.22-0.384-0.532-0.384-0.938
			c0-0.368,0.131-0.669,0.394-0.908c0.262-0.237,0.569-0.354,0.916-0.354c0.336,0,0.634,0.106,0.894,0.322
			c0.26,0.217,0.39,0.528,0.39,0.94c0,0.399-0.127,0.711-0.381,0.936C312.57,763.906,312.269,764.02,311.921,764.02L311.921,764.02z
			 M313.204,766.697L313.204,766.697v7.493c0,0.52-0.124,0.913-0.371,1.179s-0.56,0.397-0.94,0.397c-0.38,0-0.688-0.136-0.926-0.407
			c-0.238-0.273-0.355-0.662-0.355-1.169v-7.419c0-0.513,0.118-0.898,0.355-1.157c0.237-0.261,0.546-0.391,0.926-0.391
			c0.381,0,0.693,0.13,0.94,0.391C313.08,765.873,313.204,766.235,313.204,766.697z"/>
		<path style="fill:#4D4D4D;" d="M324.563,767.125v7.531c0,0.86-0.093,1.602-0.276,2.224c-0.183,0.619-0.478,1.132-0.882,1.538
			c-0.406,0.404-0.937,0.705-1.592,0.9c-0.614,0.186-1.371,0.283-2.27,0.295v-1.809c0.569-0.018,1.02-0.108,1.349-0.275
			c0.37-0.188,0.631-0.449,0.779-0.785c0.149-0.333,0.236-0.693,0.261-1.076c0.025-0.385,0.044-0.999,0.058-1.85
			c-0.4,0.559-0.859,0.983-1.383,1.274c-0.317,0.178-0.673,0.301-1.063,0.369v-1.859c0.421-0.005,0.82-0.121,1.196-0.348
			c0.384-0.231,0.694-0.58,0.937-1.045c0.239-0.467,0.36-1.028,0.36-1.694c0-1.058-0.232-1.882-0.698-2.47
			c-0.457-0.578-1.055-0.873-1.795-0.884v-1.854c0.398,0.066,0.761,0.187,1.088,0.355c0.537,0.283,1.038,0.726,1.5,1.326v-0.352
			c0-0.451,0.109-0.799,0.332-1.048c0.222-0.243,0.507-0.368,0.856-0.368c0.5,0,0.832,0.162,0.996,0.487
			C324.479,766.039,324.563,766.51,324.563,767.125z M319.542,779.613l-0.176,0.001c-0.894,0-1.69-0.125-2.395-0.375
			c-0.702-0.251-1.243-0.573-1.624-0.971c-0.379-0.395-0.569-0.802-0.569-1.221c0-0.314,0.107-0.574,0.323-0.771
			c0.216-0.2,0.476-0.301,0.778-0.301c0.38,0,0.713,0.169,0.998,0.503c0.138,0.172,0.282,0.346,0.431,0.52
			c0.149,0.174,0.315,0.323,0.494,0.447c0.182,0.122,0.398,0.214,0.651,0.272c0.253,0.06,0.545,0.091,0.874,0.091
			c0.073,0,0.145,0,0.214-0.004V779.613L319.542,779.613z M319.542,775.463c-0.252,0.045-0.52,0.066-0.802,0.066
			c-0.868,0-1.626-0.222-2.276-0.664c-0.647-0.443-1.146-1.063-1.495-1.861c-0.349-0.799-0.521-1.719-0.521-2.764
			c0-0.778,0.104-1.482,0.316-2.109c0.213-0.627,0.516-1.156,0.908-1.586c0.393-0.431,0.845-0.756,1.357-0.975
			c0.513-0.217,1.076-0.326,1.69-0.326c0.289,0,0.563,0.021,0.822,0.064v1.854H319.5c-0.741,0-1.335,0.282-1.78,0.845
			c-0.446,0.563-0.67,1.365-0.67,2.402l0,0c0,1.051,0.229,1.846,0.688,2.385s1.053,0.808,1.78,0.808h0.024L319.542,775.463
			L319.542,775.463z"/>
		<path style="fill:#4D4D4D;" d="M328.683,766.658v0.313c0.455-0.602,0.954-1.045,1.496-1.325c0.541-0.28,1.163-0.423,1.866-0.423
			c0.684,0,1.295,0.148,1.833,0.447c0.538,0.297,0.941,0.719,1.206,1.263c0.172,0.316,0.282,0.659,0.332,1.025
			c0.051,0.368,0.078,0.835,0.078,1.405v4.825c0,0.52-0.12,0.913-0.357,1.179s-0.546,0.398-0.926,0.398
			c-0.387,0-0.7-0.137-0.941-0.408c-0.24-0.273-0.359-0.662-0.359-1.169v-4.321c0-0.854-0.12-1.509-0.357-1.961
			s-0.71-0.68-1.42-0.68c-0.462,0-0.883,0.137-1.263,0.411c-0.38,0.277-0.659,0.656-0.836,1.138c-0.126,0.387-0.19,1.106-0.19,2.164
			v3.249c0,0.523-0.122,0.921-0.364,1.183c-0.244,0.264-0.56,0.396-0.945,0.396c-0.374,0-0.681-0.137-0.922-0.408
			c-0.24-0.273-0.361-0.662-0.361-1.169v-7.493c0-0.494,0.108-0.863,0.323-1.107c0.216-0.241,0.51-0.364,0.883-0.364
			c0.229,0,0.434,0.054,0.619,0.161c0.182,0.108,0.33,0.271,0.44,0.482C328.628,766.086,328.683,766.35,328.683,766.658z"/>
		<path style="fill:#4D4D4D;" d="M344.458,771.134h-2.721v-1.474h2.351c-0.063-0.887-0.302-1.55-0.717-1.99
			c-0.414-0.439-0.958-0.658-1.633-0.66v-1.803h0.082c1.012,0,1.88,0.212,2.605,0.641c0.726,0.428,1.269,0.979,1.63,1.656
			c0.36,0.678,0.541,1.369,0.541,2.07c0,0.651-0.187,1.075-0.561,1.27C345.661,771.035,345.136,771.134,344.458,771.134
			L344.458,771.134z M341.737,774.041c0.063,0.004,0.129,0.007,0.193,0.007c0.311,0,0.595-0.035,0.852-0.106
			c0.255-0.075,0.504-0.188,0.746-0.344c0.238-0.153,0.461-0.321,0.665-0.498c0.2-0.18,0.464-0.421,0.787-0.724
			c0.133-0.114,0.322-0.171,0.569-0.171c0.267,0,0.482,0.074,0.646,0.219c0.165,0.147,0.247,0.353,0.247,0.617
			c0,0.234-0.093,0.508-0.276,0.822c-0.184,0.313-0.461,0.612-0.831,0.901c-0.371,0.287-0.835,0.525-1.396,0.718
			c-0.561,0.189-1.205,0.284-1.934,0.284c-0.091,0-0.181-0.002-0.271-0.005L341.737,774.041L341.737,774.041z M341.737,771.134
			h-2.352c0.007,0.589,0.125,1.106,0.357,1.557c0.229,0.45,0.537,0.79,0.921,1.018c0.328,0.195,0.686,0.307,1.072,0.334v1.722
			c-1.535-0.05-2.74-0.521-3.614-1.421c-0.924-0.948-1.386-2.237-1.386-3.865c0-0.766,0.113-1.477,0.341-2.133
			c0.228-0.653,0.562-1.216,0.999-1.686c0.436-0.469,0.975-0.826,1.614-1.077c0.615-0.241,1.299-0.366,2.046-0.374v1.803h-0.004
			c-0.646,0-1.178,0.224-1.593,0.669c-0.415,0.447-0.665,1.108-0.754,1.981l0,0h2.352V771.134L341.737,771.134z"/>
		<path style="fill:#4D4D4D;" d="M355.028,774.285v-0.256c-0.35,0.397-0.692,0.723-1.031,0.973s-0.705,0.441-1.101,0.57
			c-0.157,0.053-0.32,0.094-0.489,0.125v-1.935c0.452-0.001,0.866-0.12,1.239-0.355c0.377-0.237,0.678-0.603,0.901-1.091
			c0.226-0.491,0.338-1.105,0.338-1.841c0-0.688-0.112-1.282-0.338-1.78c-0.224-0.496-0.528-0.876-0.912-1.141
			c-0.375-0.257-0.784-0.387-1.229-0.392v-1.869c0.421,0.06,0.795,0.171,1.121,0.332c0.512,0.258,1.013,0.653,1.5,1.184v-3.828
			c0-0.53,0.105-0.934,0.317-1.204c0.212-0.272,0.516-0.408,0.908-0.408s0.694,0.125,0.906,0.375s0.318,0.617,0.318,1.104v11.437
			c0,0.494-0.113,0.864-0.342,1.111c-0.228,0.245-0.521,0.37-0.883,0.37c-0.354,0-0.647-0.129-0.879-0.384
			C355.143,775.125,355.028,774.761,355.028,774.285z M352.407,775.697c-0.255,0.047-0.525,0.069-0.808,0.069
			c-0.622,0-1.195-0.131-1.724-0.395c-0.529-0.262-0.987-0.639-1.373-1.125c-0.386-0.487-0.679-1.06-0.878-1.719
			c-0.2-0.66-0.3-1.371-0.3-2.138c0-1.621,0.396-2.887,1.188-3.791c0.791-0.903,1.833-1.356,3.125-1.356
			c0.271,0,0.528,0.017,0.77,0.051v1.869h-0.029c-0.474,0-0.898,0.133-1.272,0.402c-0.373,0.268-0.663,0.653-0.869,1.157
			s-0.309,1.088-0.309,1.752l0,0c0,0.704,0.108,1.302,0.327,1.797c0.219,0.493,0.519,0.865,0.899,1.113
			c0.379,0.252,0.794,0.377,1.243,0.377h0.01V775.697L352.407,775.697z"/>
		<path style="fill:#4D4D4D;" d="M368.228,765.298c0.241-0.036,0.498-0.054,0.771-0.054c0.861,0,1.615,0.203,2.265,0.611
			c0.648,0.409,1.152,1.002,1.511,1.776c0.356,0.774,0.536,1.695,0.536,2.76c0,0.785-0.1,1.505-0.299,2.16
			c-0.2,0.654-0.489,1.225-0.869,1.703c-0.381,0.482-0.841,0.855-1.382,1.117c-0.542,0.264-1.139,0.395-1.791,0.395
			c-0.257,0-0.504-0.02-0.74-0.06v-1.945l0.086,0.001c0.65,0,1.214-0.283,1.685-0.85c0.472-0.568,0.708-1.379,0.708-2.438
			c0-0.683-0.098-1.272-0.294-1.766c-0.197-0.494-0.475-0.877-0.836-1.145c-0.361-0.271-0.783-0.403-1.263-0.403l-0.086,0.001
			L368.228,765.298L368.228,765.298z M365.625,762.85v3.961c0.488-0.506,0.985-0.895,1.492-1.164c0.321-0.17,0.691-0.286,1.11-0.349
			v1.866c-0.459,0.015-0.871,0.148-1.234,0.402c-0.386,0.268-0.69,0.657-0.912,1.168c-0.221,0.509-0.332,1.115-0.332,1.817l0,0
			c0,1.033,0.236,1.825,0.708,2.379c0.454,0.533,1.043,0.813,1.771,0.831v1.945c-0.132-0.021-0.26-0.05-0.385-0.083
			c-0.352-0.096-0.651-0.219-0.897-0.375c-0.246-0.154-0.457-0.314-0.632-0.479c-0.175-0.164-0.404-0.412-0.689-0.74v0.256
			c0,0.488-0.117,0.856-0.351,1.106s-0.531,0.375-0.894,0.375c-0.367,0-0.66-0.125-0.878-0.375c-0.219-0.25-0.328-0.618-0.328-1.106
			v-11.321c0-0.524,0.106-0.923,0.318-1.19c0.212-0.269,0.508-0.403,0.888-0.403c0.4,0,0.706,0.127,0.922,0.383
			C365.518,762.01,365.625,762.375,365.625,762.85z"/>
		<path style="fill:#4D4D4D;" d="M376.671,776.091l0.237-0.581l-3.191-8.035c-0.196-0.461-0.295-0.797-0.295-1.006
			c0-0.223,0.059-0.428,0.171-0.617c0.115-0.188,0.271-0.342,0.47-0.454c0.2-0.115,0.407-0.173,0.623-0.173
			c0.373,0,0.654,0.119,0.846,0.356c0.189,0.237,0.357,0.577,0.503,1.021l2.194,6.383l2.08-5.938
			c0.164-0.479,0.313-0.856,0.446-1.129c0.133-0.273,0.273-0.457,0.422-0.55c0.149-0.097,0.36-0.145,0.632-0.145
			c0.197,0,0.386,0.053,0.566,0.156c0.18,0.105,0.319,0.246,0.417,0.424c0.098,0.177,0.147,0.363,0.147,0.561
			c-0.025,0.118-0.065,0.29-0.123,0.514c-0.059,0.22-0.127,0.447-0.208,0.674l-3.383,8.854c-0.292,0.776-0.575,1.389-0.854,1.832
			c-0.279,0.442-0.647,0.785-1.107,1.021c-0.459,0.238-1.078,0.356-1.856,0.356c-0.759,0-1.329-0.083-1.708-0.246
			c-0.381-0.166-0.57-0.466-0.57-0.903c0-0.297,0.089-0.526,0.271-0.688c0.179-0.162,0.446-0.244,0.801-0.244
			c0.139,0,0.275,0.02,0.409,0.059c0.165,0.037,0.307,0.058,0.427,0.058c0.297,0,0.532-0.044,0.703-0.134
			c0.171-0.089,0.323-0.241,0.461-0.462C376.337,776.836,376.495,776.514,376.671,776.091z"/>
		<path style="fill:#4D4D4D;" d="M414.234,765.449h0.616v-0.779c0-0.813,0.103-1.456,0.31-1.938
			c0.203-0.479,0.555-0.826,1.047-1.045c0.49-0.217,1.162-0.326,2.016-0.326c1.521,0,2.273,0.366,2.273,1.114
			c0,0.238-0.08,0.443-0.24,0.615c-0.156,0.168-0.344,0.256-0.559,0.256c-0.101,0-0.277-0.02-0.527-0.06
			c-0.238-0.033-0.453-0.057-0.623-0.057c-0.467,0-0.766,0.142-0.906,0.415c-0.127,0.275-0.192,0.669-0.192,1.186v0.617h0.633
			c0.99,0,1.479,0.297,1.479,0.896c0,0.419-0.127,0.69-0.393,0.805c-0.262,0.114-0.623,0.172-1.088,0.172h-0.633v6.87
			c0,0.512-0.121,0.9-0.369,1.169c-0.242,0.271-0.555,0.405-0.943,0.405c-0.367,0-0.672-0.134-0.918-0.405
			c-0.244-0.269-0.365-0.657-0.365-1.169v-6.87h-0.713c-0.389,0-0.682-0.084-0.893-0.263c-0.209-0.172-0.316-0.399-0.316-0.678
			C412.93,765.757,413.365,765.449,414.234,765.449z"/>
		<path style="fill:#4D4D4D;" d="M422.723,772.023v2.168c0,0.522-0.133,0.918-0.373,1.18c-0.246,0.266-0.559,0.395-0.938,0.395
			c-0.381,0-0.688-0.131-0.926-0.399c-0.238-0.265-0.361-0.655-0.361-1.174v-7.224c0-1.166,0.42-1.75,1.26-1.75
			c0.437,0,0.744,0.137,0.937,0.41c0.188,0.272,0.295,0.672,0.315,1.207c0.31-0.535,0.623-0.935,0.947-1.207
			c0.332-0.273,0.764-0.41,1.312-0.41c0.549,0,1.071,0.137,1.586,0.41c0.516,0.272,0.77,0.635,0.77,1.084
			c0,0.314-0.109,0.58-0.326,0.781c-0.219,0.209-0.453,0.312-0.705,0.312c-0.1,0-0.332-0.063-0.69-0.179
			c-0.365-0.115-0.689-0.174-0.963-0.174c-0.382,0-0.693,0.103-0.935,0.299c-0.242,0.203-0.43,0.496-0.563,0.885
			c-0.129,0.396-0.222,0.867-0.273,1.404C422.746,770.585,422.723,771.244,422.723,772.023z"/>
		<path style="fill:#4D4D4D;" d="M434.645,771.131h-2.725v-1.475h2.352c-0.063-0.885-0.299-1.55-0.715-1.986
			c-0.418-0.442-0.957-0.659-1.637-0.66v-1.809h0.084c1.01,0,1.881,0.213,2.605,0.646c0.725,0.423,1.274,0.978,1.631,1.654
			c0.358,0.681,0.541,1.368,0.541,2.073c0,0.648-0.189,1.069-0.563,1.266C435.846,771.033,435.322,771.131,434.645,771.131
			L434.645,771.131z M431.92,774.039c0.064,0.004,0.131,0.006,0.199,0.006c0.309,0,0.592-0.032,0.848-0.111
			c0.254-0.067,0.506-0.186,0.746-0.34c0.242-0.151,0.461-0.317,0.664-0.5c0.203-0.176,0.467-0.416,0.791-0.719
			c0.133-0.113,0.324-0.174,0.566-0.174c0.27,0,0.481,0.074,0.649,0.221c0.166,0.148,0.244,0.352,0.244,0.617
			c0,0.236-0.09,0.509-0.27,0.82c-0.187,0.316-0.464,0.615-0.836,0.905c-0.373,0.285-0.839,0.527-1.396,0.713
			c-0.561,0.191-1.205,0.287-1.932,0.287c-0.095,0-0.187-0.002-0.275-0.005L431.92,774.039L431.92,774.039z M431.92,771.131h-2.35
			c0.01,0.589,0.123,1.109,0.354,1.56c0.236,0.444,0.541,0.785,0.926,1.017c0.328,0.194,0.685,0.305,1.07,0.333v1.722
			c-1.539-0.05-2.74-0.521-3.611-1.417c-0.924-0.952-1.391-2.241-1.391-3.868c0-0.767,0.117-1.479,0.346-2.135
			c0.228-0.658,0.56-1.216,1-1.688c0.437-0.472,0.97-0.828,1.613-1.078c0.613-0.239,1.295-0.364,2.043-0.373v1.809h-0.002
			c-0.646,0-1.178,0.22-1.592,0.669c-0.414,0.446-0.668,1.104-0.756,1.979l0,0h2.35V771.131z"/>
		<path style="fill:#4D4D4D;" d="M445.432,771.131h-2.723v-1.475h2.35c-0.063-0.885-0.303-1.55-0.715-1.986
			c-0.42-0.441-0.959-0.658-1.635-0.66v-1.809h0.08c1.008,0,1.879,0.213,2.613,0.646c0.721,0.423,1.266,0.978,1.621,1.654
			c0.358,0.681,0.545,1.368,0.545,2.073c0,0.648-0.191,1.069-0.563,1.266C446.631,771.033,446.107,771.131,445.432,771.131
			L445.432,771.131z M442.709,774.039c0.064,0.004,0.131,0.006,0.197,0.006c0.307,0,0.592-0.032,0.844-0.111
			c0.258-0.067,0.506-0.186,0.75-0.34c0.242-0.151,0.461-0.317,0.664-0.5c0.199-0.176,0.465-0.416,0.789-0.719
			c0.135-0.113,0.326-0.174,0.565-0.174c0.271,0,0.484,0.074,0.65,0.221c0.166,0.148,0.242,0.352,0.242,0.617
			c0,0.236-0.088,0.509-0.275,0.82c-0.176,0.316-0.455,0.615-0.83,0.905c-0.368,0.285-0.84,0.527-1.395,0.713
			c-0.56,0.191-1.207,0.287-1.937,0.287c-0.09,0-0.18-0.002-0.268-0.004v-1.722H442.709z M442.709,771.131h-2.35
			c0.006,0.589,0.125,1.109,0.354,1.56c0.232,0.444,0.539,0.785,0.92,1.017c0.328,0.195,0.687,0.305,1.076,0.333v1.723
			c-1.539-0.049-2.742-0.521-3.619-1.418c-0.922-0.952-1.387-2.241-1.387-3.868c0-0.767,0.115-1.479,0.346-2.135
			c0.229-0.658,0.562-1.216,0.998-1.688c0.435-0.472,0.971-0.828,1.613-1.078c0.615-0.24,1.301-0.365,2.049-0.373v1.809h-0.006
			c-0.646,0-1.176,0.22-1.594,0.669c-0.412,0.446-0.666,1.104-0.75,1.979l0,0h2.35V771.131L442.709,771.131z"/>
		<path style="fill:#4D4D4D;" d="M453.715,765.296c0.226-0.038,0.461-0.058,0.703-0.058c0.795,0,1.535,0.207,2.207,0.617
			c0.672,0.414,1.199,1.016,1.588,1.807c0.391,0.795,0.586,1.729,0.586,2.813c0,0.797-0.11,1.53-0.336,2.201
			c-0.223,0.667-0.537,1.228-0.928,1.68c-0.396,0.45-0.855,0.803-1.392,1.047c-0.54,0.239-1.108,0.362-1.727,0.362
			c-0.246,0-0.482-0.018-0.703-0.051v-1.955l0.068,0.001c0.428,0,0.83-0.125,1.194-0.372c0.371-0.254,0.666-0.627,0.886-1.127
			c0.221-0.502,0.332-1.106,0.332-1.815l0,0c0-0.684-0.107-1.272-0.314-1.763c-0.209-0.491-0.5-0.866-0.867-1.128
			c-0.366-0.263-0.78-0.396-1.229-0.396l-0.068,0.001V765.296L453.715,765.296z M451.111,766.678v0.313
			c0.485-0.602,0.994-1.042,1.522-1.325c0.328-0.18,0.689-0.303,1.08-0.368v1.864c-0.686,0.018-1.268,0.301-1.742,0.842
			c-0.491,0.567-0.737,1.396-0.737,2.494c0,1.026,0.243,1.832,0.733,2.406c0.474,0.555,1.049,0.84,1.746,0.856v1.955
			c-0.44-0.064-0.83-0.198-1.162-0.396c-0.504-0.292-0.981-0.733-1.44-1.307v3.894c0,1.136-0.416,1.71-1.244,1.71
			c-0.49,0-0.81-0.146-0.974-0.438c-0.149-0.3-0.231-0.726-0.231-1.292v-11.192c0-0.496,0.104-0.859,0.32-1.107
			c0.215-0.24,0.512-0.365,0.885-0.365c0.369,0,0.666,0.125,0.895,0.375C450.998,765.848,451.111,766.204,451.111,766.678z"/>
		<path style="fill:#4D4D4D;" d="M461.412,764.012c-0.363,0-0.67-0.112-0.924-0.334c-0.261-0.223-0.39-0.531-0.39-0.938
			c0-0.367,0.132-0.67,0.398-0.909c0.262-0.234,0.563-0.354,0.914-0.354c0.34,0,0.635,0.105,0.893,0.318
			c0.261,0.219,0.392,0.534,0.392,0.945c0,0.399-0.127,0.711-0.379,0.937C462.063,763.898,461.762,764.012,461.412,764.012
			L461.412,764.012z M462.695,766.691L462.695,766.691v7.502c0,0.516-0.123,0.907-0.369,1.172c-0.25,0.27-0.563,0.399-0.941,0.399
			c-0.381,0-0.686-0.133-0.928-0.405c-0.234-0.276-0.357-0.666-0.357-1.166v-7.429c0-0.51,0.123-0.895,0.357-1.153
			c0.242-0.266,0.547-0.394,0.928-0.394c0.379,0,0.691,0.128,0.941,0.394C462.572,765.871,462.695,766.232,462.695,766.691z"/>
		<path style="fill:#4D4D4D;" d="M471.055,774.582l-2.282-3.766l-1.408,1.327v2.065c0,0.499-0.133,0.882-0.398,1.149
			c-0.256,0.271-0.563,0.405-0.903,0.405c-0.4,0-0.718-0.131-0.941-0.399c-0.228-0.265-0.344-0.656-0.344-1.175v-11.063
			c0-0.573,0.114-1.011,0.332-1.313c0.221-0.306,0.545-0.453,0.953-0.453c0.397,0,0.713,0.137,0.946,0.412
			c0.234,0.27,0.355,0.674,0.355,1.2v6.294l2.916-3.063c0.36-0.376,0.631-0.641,0.826-0.778c0.188-0.139,0.42-0.209,0.688-0.209
			c0.326,0,0.594,0.104,0.816,0.311c0.211,0.206,0.319,0.466,0.319,0.771c0,0.38-0.354,0.889-1.057,1.522l-1.377,1.263l2.66,4.183
			c0.192,0.313,0.338,0.544,0.424,0.706c0.084,0.158,0.129,0.319,0.129,0.462c0,0.413-0.113,0.734-0.34,0.977
			c-0.226,0.235-0.523,0.354-0.885,0.354c-0.318,0-0.564-0.082-0.734-0.256S471.344,775.026,471.055,774.582z"/>
		<path style="fill:#4D4D4D;" d="M476.689,775.766c-0.392,0-0.728-0.127-1.015-0.381c-0.283-0.25-0.428-0.604-0.428-1.063
			c0-0.388,0.137-0.72,0.41-0.996c0.272-0.279,0.606-0.418,1.008-0.418c0.396,0,0.736,0.139,1.021,0.412
			c0.279,0.274,0.425,0.61,0.425,1.002c0,0.452-0.146,0.807-0.425,1.06C477.402,775.639,477.07,775.766,476.689,775.766z"/>
		<path style="fill:#4D4D4D;" d="M489.588,772.556c0,0.32-0.096,0.667-0.291,1.034c-0.188,0.37-0.486,0.717-0.885,1.049
			c-0.396,0.333-0.891,0.604-1.496,0.806c-0.6,0.2-1.279,0.307-2.029,0.307c-1.606,0-2.856-0.47-3.758-1.401
			c-0.895-0.937-1.346-2.188-1.346-3.761c0-1.065,0.203-2.006,0.619-2.824c0.407-0.813,1.004-1.446,1.78-1.893
			c0.779-0.448,1.718-0.672,2.796-0.672c0.672,0,1.286,0.1,1.852,0.297c0.561,0.195,1.031,0.451,1.424,0.759
			c0.389,0.313,0.688,0.645,0.891,0.991c0.207,0.352,0.308,0.682,0.308,0.988c0,0.306-0.113,0.57-0.342,0.787
			c-0.236,0.215-0.517,0.323-0.838,0.323c-0.22,0-0.398-0.057-0.541-0.166c-0.146-0.111-0.306-0.29-0.48-0.543
			c-0.316-0.477-0.645-0.842-0.996-1.078c-0.342-0.244-0.779-0.362-1.313-0.362c-0.763,0-1.384,0.299-1.854,0.897
			c-0.469,0.597-0.703,1.42-0.703,2.454c0,0.487,0.063,0.939,0.185,1.349c0.116,0.406,0.291,0.755,0.52,1.044
			c0.23,0.286,0.504,0.505,0.826,0.653c0.324,0.153,0.682,0.226,1.063,0.226c0.521,0,0.966-0.119,1.337-0.359
			c0.377-0.241,0.702-0.607,0.985-1.103c0.158-0.293,0.326-0.519,0.51-0.686c0.183-0.162,0.408-0.248,0.675-0.248
			c0.317,0,0.582,0.123,0.786,0.362C489.482,772.026,489.588,772.285,489.588,772.556z"/>
		<path style="fill:#4D4D4D;" d="M500.779,770.494c0,0.771-0.123,1.484-0.355,2.139c-0.248,0.652-0.592,1.215-1.051,1.68
			c-0.455,0.47-1.002,0.828-1.631,1.08c-0.637,0.246-1.342,0.373-2.127,0.375v-1.929c0.778-0.003,1.401-0.299,1.862-0.892
			c0.464-0.592,0.697-1.412,0.697-2.453l0,0c0-1.06-0.233-1.881-0.697-2.469c-0.461-0.593-1.084-0.886-1.862-0.89v-1.918
			c0.778,0.002,1.489,0.127,2.127,0.383c0.637,0.25,1.182,0.613,1.643,1.08c0.459,0.474,0.806,1.027,1.041,1.671
			C500.658,769.004,500.779,769.713,500.779,770.494z M495.615,775.768h-0.013c-0.784,0-1.491-0.127-2.12-0.383
			c-0.623-0.25-1.171-0.615-1.625-1.082c-0.461-0.477-0.812-1.033-1.054-1.677c-0.229-0.644-0.352-1.354-0.352-2.132
			c0-0.785,0.125-1.506,0.358-2.157c0.242-0.654,0.591-1.212,1.039-1.673c0.451-0.462,0.992-0.816,1.632-1.07
			c0.643-0.25,1.35-0.375,2.12-0.375h0.013v1.918h-0.013c-0.508,0-0.954,0.135-1.344,0.396c-0.387,0.262-0.68,0.649-0.889,1.165
			c-0.209,0.514-0.314,1.113-0.314,1.798c0,0.68,0.103,1.268,0.31,1.774c0.207,0.511,0.502,0.896,0.885,1.164
			c0.387,0.269,0.836,0.405,1.354,0.405h0.012V775.768L495.615,775.768z"/>
		<path style="fill:#4D4D4D;" d="M510.672,770.686v3.445c0,0.547-0.121,0.952-0.369,1.229c-0.25,0.271-0.571,0.407-0.979,0.407
			c-0.394,0-0.715-0.136-0.951-0.407c-0.248-0.276-0.373-0.683-0.373-1.229V770c0-0.652-0.02-1.161-0.063-1.523
			c-0.046-0.354-0.168-0.655-0.363-0.883c-0.195-0.235-0.508-0.352-0.93-0.352c-0.853,0-1.408,0.289-1.677,0.881
			c-0.27,0.576-0.405,1.412-0.405,2.507v3.501c0,0.539-0.123,0.947-0.363,1.225c-0.248,0.273-0.566,0.412-0.965,0.412
			c-0.396,0-0.715-0.139-0.965-0.412c-0.253-0.276-0.378-0.686-0.378-1.225v-7.418c0-0.489,0.111-0.861,0.337-1.111
			c0.229-0.258,0.524-0.383,0.889-0.383c0.356,0,0.652,0.123,0.893,0.355c0.234,0.238,0.354,0.565,0.354,0.984v0.245
			c0.453-0.535,0.936-0.932,1.444-1.182c0.517-0.259,1.082-0.385,1.714-0.385c0.649,0,1.211,0.131,1.676,0.389
			c0.471,0.262,0.854,0.656,1.162,1.178c0.438-0.528,0.907-0.923,1.41-1.182c0.499-0.256,1.051-0.386,1.661-0.386
			c0.705,0,1.32,0.144,1.834,0.419c0.511,0.278,0.892,0.68,1.146,1.194c0.221,0.475,0.33,1.211,0.33,2.219v5.062
			c0,0.547-0.123,0.952-0.367,1.229c-0.246,0.271-0.574,0.407-0.979,0.407c-0.396,0-0.716-0.139-0.966-0.412
			c-0.25-0.276-0.377-0.686-0.377-1.225v-4.361c0-0.558-0.022-1.002-0.069-1.338c-0.045-0.336-0.177-0.619-0.381-0.846
			c-0.214-0.229-0.531-0.344-0.953-0.344c-0.343,0-0.668,0.104-0.976,0.307c-0.307,0.199-0.547,0.478-0.721,0.813
			C510.77,768.801,510.672,769.574,510.672,770.686z"/>
		<path style="fill:#4D4D4D;" d="M389.966,769.867c-0.002-0.006-0.002-0.01-0.002-0.019
			C389.964,769.857,389.964,769.861,389.966,769.867z"/>
		<path style="fill:#4D4D4D;" d="M390.097,770.695h0.003c-0.05-0.235-0.088-0.471-0.118-0.701
			C390.012,770.227,390.05,770.463,390.097,770.695z"/>
		<path style="fill:#4D4D4D;" d="M390.956,773.104c-0.006-0.011-0.011-0.021-0.017-0.033
			C390.944,773.082,390.95,773.093,390.956,773.104z"/>
		<path style="fill:#4D4D4D;" d="M390.874,772.942c-0.022-0.044-0.044-0.091-0.065-0.135
			C390.83,772.855,390.852,772.898,390.874,772.942z"/>
		<path style="fill:#4D4D4D;" d="M390.338,771.623c0.127,0.4,0.28,0.788,0.457,1.158c-0.18-0.379-0.33-0.769-0.454-1.158H390.338z"
			/>
		<path style="fill:#4D4D4D;" d="M400.003,759.931c0.502,0,0.872,0.04,1.295,0.11l0.119-0.762c0,0-1.17-0.361-2.709-0.234
			l-0.122-0.415c0.479-0.101,0.838-0.526,0.838-1.034c0-0.582-0.475-1.055-1.058-1.055s-1.056,0.473-1.056,1.055
			c0,0.508,0.358,0.935,0.836,1.034l0.134,0.463c-1.635,0.226-2.936,0.862-2.936,0.862l0.231,0.705
			c0.988-0.329,1.846-0.529,2.624-0.613C398.963,759.965,399.537,759.931,400.003,759.931z"/>
		<path style="fill:#4D4D4D;" d="M390.936,763.789l0.007-0.008c0.038-0.05,0.075-0.099,0.112-0.144l-0.313-0.226l-0.488-0.356
			c-0.027,0.037-0.795,0.744-1.4,2.048c-0.025-0.041-0.057-0.08-0.091-0.119c-0.181-0.197-0.435-0.3-0.758-0.293h-0.015
			c-0.2,0-0.337-0.066-0.427-0.148c0.09-0.112,0.144-0.255,0.144-0.412c0-0.369-0.3-0.67-0.67-0.67c-0.369,0-0.668,0.301-0.668,0.67
			c0,0.37,0.299,0.669,0.668,0.669c0.058,0,0.113-0.011,0.167-0.021c0.165,0.183,0.425,0.342,0.808,0.334
			c0.196-0.002,0.342,0.049,0.438,0.153c0.11,0.121,0.148,0.297,0.16,0.429c-0.001,0.002-0.001,0.006-0.003,0.006
			c-0.437,1.188-0.312,2.67-0.312,2.67l1.057,0.042c0.022-0.539,0.1-1.482,0.372-2.231
			C390.25,764.732,390.909,763.826,390.936,763.789z"/>
		<path style="fill:#4D4D4D;" d="M409.203,760.814c-0.367,0-0.67,0.299-0.67,0.668c0,0.059,0.01,0.112,0.022,0.166
			c-0.182,0.166-0.342,0.428-0.336,0.811c0.002,0.197-0.047,0.34-0.153,0.438c-0.086,0.074-0.191,0.113-0.298,0.141
			c-0.786-1.104-1.756-1.775-1.756-1.775l-0.758,0.813c0.574,0.521,1.16,1.175,1.729,1.99c0.395,0.563,0.799,1.29,1.137,2.015
			l1.022-0.487c0,0-0.467-1.153-1.127-2.19c0.115-0.039,0.23-0.103,0.332-0.191c0.201-0.182,0.3-0.437,0.293-0.758
			c-0.002-0.208,0.066-0.35,0.148-0.441c0.113,0.087,0.258,0.144,0.412,0.144c0.371,0,0.67-0.301,0.67-0.67
			S409.574,760.814,409.203,760.814z"/>
		<path style="fill:#4D4D4D;" d="M406.547,770.016c-1.41,0.688-3.729,1.596-6.782,2.021c-1.197,0.165-2.359,0.228-3.429,0.228
			c-1.39,0-2.619-0.104-3.562-0.223c-1.076-0.137-1.917-0.302-2.433-0.418c0.123,0.391,0.273,0.779,0.454,1.158
			c0.003,0.01,0.007,0.021,0.012,0.026c0.022,0.044,0.043,0.091,0.066,0.135c0.021,0.044,0.043,0.087,0.065,0.127
			c0.006,0.011,0.011,0.022,0.017,0.032c0.302,0.57,0.666,1.096,1.08,1.55c1.439,1.574,2.907,1.822,2.921,1.824l0.023,0.005
			l0.021,0.008c0.013,0.004,1.314,0.424,3.291,0.424c1.945,0,3.855-0.392,5.674-1.166c1.349-0.689,2.623-1.736,3.254-2.67
			c0.488-0.724,0.842-1.494,1.051-2.295c0.111-0.426,0.199-1.106,0.146-1.824C408.021,769.223,407.395,769.604,406.547,770.016z"/>
		<path style="fill:#4D4D4D;" d="M403.658,770.271c1.014-0.334,1.85-0.69,2.49-1c1.118-0.545,1.842-1.036,2.118-1.238
			c-0.276-1.028-1.043-2.642-1.741-3.646c-0.966-1.378-1.966-2.262-2.867-2.83v1.898c0.961,0.001,1.744,0.781,1.744,1.744
			c0,0.961-0.783,1.744-1.744,1.744V770.271L403.658,770.271z M395.417,771.402c1.295,0.045,2.738,0.004,4.232-0.204
			c1.541-0.215,2.884-0.557,4.009-0.927v-3.328l0,0c-0.961,0-1.742-0.783-1.742-1.744c0-0.963,0.781-1.744,1.742-1.744l0,0l0,0
			v-1.898c-0.976-0.613-1.834-0.858-2.41-0.953c-0.424-0.068-0.763-0.108-1.245-0.108c-0.447,0-1.002,0.035-1.743,0.112
			c-0.743,0.078-1.572,0.273-2.532,0.597c-0.104,0.035-0.208,0.072-0.312,0.109v2.073c1.557,0,2.816,1.262,2.816,2.817
			c0,1.555-1.261,2.813-2.816,2.813L395.417,771.402L395.417,771.402z M391.389,764.123c-0.041,0.059-0.651,0.925-1.135,2.253
			c-0.362,0.995-0.346,2.443-0.346,2.46v0.003c0,0.339,0.019,0.677,0.057,1.011c0,0.009,0,0.013,0.002,0.019
			c0.004,0.043,0.011,0.084,0.016,0.127c0.029,0.23,0.068,0.466,0.118,0.701c0.477,0.121,2.563,0.609,5.316,0.707v-2.385l0,0
			c-1.555,0-2.816-1.259-2.816-2.813s1.262-2.817,2.816-2.817l0,0l0,0v-2.073c-1.224,0.452-2.33,1.119-3.215,1.938l-0.033,0.029
			C392.026,763.413,391.729,763.688,391.389,764.123z"/>
	</g>
</g>
</svg>
