<?xml version="1.0" encoding="iso-8859-1"?>
<!-- Generator: Adobe Illustrator 16.0.2, SVG Export Plug-In . SVG Version: 6.00 Build 0)  -->
<!DOCTYPE svg PUBLIC "-//W3C//DTD SVG 1.1//EN" "http://www.w3.org/Graphics/SVG/1.1/DTD/svg11.dtd">
<svg version="1.1" id="Capa_1" xmlns="http://www.w3.org/2000/svg" xmlns:xlink="http://www.w3.org/1999/xlink" x="0px" y="0px"
	 width="255.121px" height="255.121px" viewBox="0 0 255.121 255.121" style="enable-background:new 0 0 255.121 255.121;"
	 xml:space="preserve">
<g>
	<g>
		<g>
			<path style="fill:#DB8C06;" d="M60.774,82.149H46.127c-3.684,0-6.696,3.206-6.696,7.125v5.345c0,3.919,3.013,7.126,6.696,7.126
				h14.647V82.149z"/>
			<path style="fill:#DB8C06;" d="M195.313,82.149h14.649c3.685,0,6.697,3.206,6.697,7.125v5.345c0,3.919-3.017,7.125-6.697,7.125
				h-14.649V82.149z"/>
		</g>
		<path style="fill:#DB8C06;" d="M92.714,47.889c23.553,0,47.106,0,70.663,0c20.313,0,37.203,19.332,39.567,44.057h-7.632
			c-2.648-21.539-17.579-38.168-35.459-38.168c-21.206,0-42.412,0-63.619,0c-17.878,0-32.808,16.629-35.46,38.168h-7.629
			C55.508,67.221,72.397,47.889,92.714,47.889z"/>
		<path style="fill:#C4E6F6;" d="M195.313,91.946H60.774c2.652-21.539,17.582-38.168,35.46-38.168c21.207,0,42.413,0,63.619,0
			C177.733,53.778,192.664,70.408,195.313,91.946z"/>
		<path style="fill:#4E4E4E;" d="M33.572,178.807h28.687c2.732,0,4.968,2.616,4.968,5.813v18.607c0,3.197-2.235,5.813-4.968,5.813
			H33.572c-2.732,0-4.968-2.615-4.968-5.813v-18.607C28.604,181.423,30.84,178.807,33.572,178.807z"/>
		<path style="fill:#808081;" d="M33.572,178.807h28.687c2.732,0,4.968,2.228,4.968,4.95v15.841c0,2.723-2.235,4.95-4.968,4.95
			H33.572c-2.732,0-4.968-2.229-4.968-4.95v-15.841C28.604,181.035,30.84,178.807,33.572,178.807z"/>
		<path style="fill:#4E4E4E;" d="M193.832,178.807h28.686c2.732,0,4.967,2.616,4.967,5.813v18.607c0,3.197-2.234,5.813-4.967,5.813
			h-28.686c-2.732,0-4.97-2.615-4.97-5.813v-18.607C188.862,181.423,191.097,178.807,193.832,178.807z"/>
		<path style="fill:#808081;" d="M193.832,178.807h28.686c2.732,0,4.967,2.228,4.967,4.95v15.841c0,2.723-2.234,4.95-4.967,4.95
			h-28.686c-2.732,0-4.97-2.229-4.97-4.95v-15.841C188.862,181.035,191.097,178.807,193.832,178.807z"/>
		<path style="fill:#ABDCED;" d="M109.44,63.261c1.609,0,2.214,1.963,2.105,2.975c-0.806,7.526-1.412,16.244-1.752,25.71H77.005
			c0.659-10.131,3.002-19.346,6.448-26.717c0.508-1.086,1.498-1.98,2.643-1.968L109.44,63.261L109.44,63.261z"/>
		<path style="fill:#ABDCED;" d="M146.566,63.261c-1.611,0-2.214,1.963-2.107,2.975c0.807,7.526,1.414,16.244,1.754,25.71h32.789
			c-0.66-10.131-3.002-19.346-6.449-26.717c-0.508-1.086-1.498-1.98-2.643-1.968L146.566,63.261L146.566,63.261z"/>
		<path style="fill:#ABDCED;" d="M120.241,58.22h15.609c1.338,0,2.343,1.188,2.433,2.638l0.172,2.762
			c0.103,1.623-0.506,2.639-2.479,2.639h-15.86c-2.094,0-2.58-1.015-2.479-2.639l0.17-2.762
			C117.897,59.408,118.901,58.22,120.241,58.22z"/>
		<rect x="127.263" y="53.778" style="fill:#ABDCED;" width="1.564" height="4.441"/>
		<path style="fill:#DB8C06;" d="M205.458,199.598c15.957,0,27.672-15.03,29.014-33.306l3.008-41.042
			c1.502-20.469-6.021-33.305-29.566-33.305c-80.259,0-79.478,0-159.736,0c-23.544,0-31.069,12.836-29.567,33.305l3.01,41.042
			c1.34,18.274,13.055,33.306,29.011,33.306C129.251,199.598,126.838,199.598,205.458,199.598z"/>
		<path style="opacity:0.5;fill:#FFFFFF;enable-background:new    ;" d="M159.701,79.5l23.363-14.958
			c1.146,1.225,2.229,2.537,3.244,3.93l-26.607,17.034V79.5L159.701,79.5z M159.701,73.336l19.44-12.446
			c-3.358-2.708-7.099-4.734-11.087-5.917l-8.354,5.349V73.336L159.701,73.336z M159.701,54.288v-0.51h0.152
			c0.209,0,0.419,0.005,0.628,0.009L159.701,54.288z M149.639,91.946h-9.382L159.701,79.5v6.006L149.639,91.946L149.639,91.946z
			 M159.701,53.778h-8.589L91.491,91.946h9.383l58.827-37.658V53.778L159.701,53.778z M159.701,60.322L110.3,91.946h20.327
			l29.074-18.61V60.322z"/>
		<path style="fill:#F3A113;" d="M225.398,170.102c2.781-4.397,4.543-9.617,5.01-15.194l2.891-34.756
			c1.445-17.334-5.791-28.205-28.437-28.205c-77.192,0-76.442,0-153.635,0c-22.646,0-29.883,10.87-28.438,28.205l2.895,34.756
			c0.464,5.577,2.227,10.799,5.008,15.194c5.086,5.751,11.985,9.323,19.938,9.323c78.622,0,76.208,0,154.829,0
			C213.414,179.425,220.313,175.852,225.398,170.102z"/>
		<path style="fill:#FAB843;" d="M41.14,96.91c7.516,0,19.841,24.443,20.529,39.998s-4.846,28.163-12.361,28.163
			c-7.517,0-14.167-12.608-14.856-28.163C33.764,121.354,33.623,96.91,41.14,96.91z"/>
		<g>
			<path style="fill:#F3A113;" d="M60.774,82.149H46.127c-2.58,0-4.83,1.572-5.946,3.86c1.116,2.288,3.367,3.86,5.946,3.86h14.647
				V82.149z"/>
			<path style="fill:#F3A113;" d="M195.313,82.149h14.649c2.578,0,4.83,1.572,5.947,3.86c-1.117,2.288-3.369,3.86-5.947,3.86
				h-14.649V82.149z"/>
		</g>
		<path style="fill:#F3A113;" d="M92.714,47.889c23.553,0,47.106,0,70.663,0c19.595,0,36.004,17.99,39.262,41.455l0.307,2.602
			h-7.632v-2.602c-2.649-21.539-17.579-38.168-35.459-38.168c-21.206,0-42.412,0-63.619,0c-17.878,0-32.808,16.629-35.46,38.168
			v2.602h-7.629l0.307-2.602C56.71,65.879,73.116,47.889,92.714,47.889z"/>
		<path style="fill:#DB8C06;" d="M180.875,154.214c-10.342,6.09-30.276,10.215-53.176,10.215c-22.898,0-42.834-4.125-53.176-10.215
			c0.781-0.389,1.972-0.36,3.331-0.264c15.603,1.131,31.99,1.813,49.845,1.813c17.855,0,34.242-0.683,49.846-1.813
			C178.903,153.854,180.093,153.826,180.875,154.214z"/>
		<path style="fill:#FAB843;" d="M214.303,96.91c-7.517,0-19.841,24.443-20.529,39.998s4.847,28.163,12.36,28.163
			c7.516,0,14.166-12.608,14.857-28.163C221.681,121.354,221.818,96.91,214.303,96.91z"/>
		<path style="fill:#565F6E;" d="M127.698,156.762c-17.854,0-34.242-1.046-49.845-2.777c-2.346-0.26-4.188-0.194-4.297,2.896
			l-0.214,6.078c-0.093,2.707-1.635,5.611-4.649,5.611c-13.642,0-13.222,0-26.862,0c-1.379,0-2.576-0.648-3.458-1.691
			c-0.483-0.797-0.756-1.746-0.869-2.756l-2.946-26.092c-0.583-5.166,0.195-7.588,7.774-5.875
			c23.989,5.418,54.055,8.426,85.366,8.426c31.313,0,61.377-3.008,85.367-8.426c7.578-1.713,8.356,0.709,7.774,5.875l-2.946,26.092
			c-0.113,1.01-0.388,1.959-0.87,2.756c-0.881,1.043-2.078,1.691-3.457,1.691c-13.643,0-13.221,0-26.861,0
			c-3.016,0-4.558-2.904-4.65-5.611l-0.213-6.078c-0.109-3.092-1.951-3.155-4.297-2.896
			C161.94,155.716,145.554,156.762,127.698,156.762z"/>
		<ellipse style="fill:#565F6E;" cx="127.698" cy="142.102" rx="18.487" ry="12.151"/>
		<ellipse style="fill:#E6E6E6;" cx="127.698" cy="142.101" rx="8.428" ry="5.352"/>
		<path style="fill:#FFFFFF;" d="M99.998,181.873h56.093c1.598,0,2.906,1.308,2.906,2.904v8.605c0,1.6-1.31,2.906-2.906,2.906
			H99.998c-1.598,0-2.905-1.308-2.905-2.906v-8.605C97.093,183.18,98.4,181.873,99.998,181.873z"/>
		<g>
			<path style="fill:#798090;" d="M40.171,136.255l27.53,4.886c0.816,0.146,1.508,0.669,1.508,1.483v10.285
				c0,0.814-0.681,1.484-1.508,1.484l-25.517,0.003c-0.827,0-1.4-0.675-1.508-1.485l-2.014-15.172
				C38.557,136.93,39.354,136.109,40.171,136.255z"/>
			<path style="fill:#798090;" d="M215.226,136.255l-27.531,4.886c-0.814,0.146-1.506,0.669-1.506,1.483v10.285
				c0,0.814,0.68,1.484,1.506,1.484l25.518,0.003c0.828,0,1.4-0.675,1.51-1.485l2.014-15.172
				C216.841,136.93,216.042,136.109,215.226,136.255z"/>
		</g>
		<g>
			<path style="fill:#9DA4B3;" d="M40.171,136.255l27.53,4.886c0.816,0.146,1.508,0.669,1.508,1.483v5.779
				c0,0.814-0.681,1.484-1.508,1.484l-25.517,0.003c-0.827,0-1.4-0.675-1.508-1.485l-1.566-11.805
				C39.396,136.335,39.78,136.186,40.171,136.255z"/>
			<path style="fill:#9DA4B3;" d="M215.226,136.255l-27.531,4.886c-0.814,0.146-1.506,0.669-1.506,1.483v5.779
				c0,0.814,0.68,1.484,1.506,1.484l25.518,0.003c0.828,0,1.4-0.675,1.51-1.485l1.566-11.805
				C216.003,136.335,215.615,136.186,215.226,136.255z"/>
		</g>
		<path style="fill:#ED6E49;" d="M46.355,165.354c1.665,0,3.021-1.356,3.021-3.021c0-1.666-1.356-3.021-3.021-3.021
			c-1.664,0-3.022,1.355-3.022,3.021C43.333,163.996,44.691,165.354,46.355,165.354z"/>
		<path style="fill:#E85E32;" d="M46.355,165.354c1.665,0,3.021-1.356,3.021-3.021c0-1.666-1.356-3.021-3.021-3.021
			c-1.664,0-3.022,1.355-3.022,3.021C43.333,163.996,44.691,165.354,46.355,165.354z"/>
		<path style="fill:#ED6E49;" d="M46.354,159.311h-0.078l0,0c-1.475,0.037-2.688,1.135-2.907,2.56
			c0.222,1.063,1.475,1.879,2.985,1.879c1.512,0,2.764-0.816,2.987-1.879c-0.22-1.425-1.432-2.521-2.908-2.56l0,0H46.354z"/>
		<path style="fill:#ED6E49;" d="M209.732,165.354c1.664,0,3.023-1.356,3.023-3.021c0-1.666-1.359-3.021-3.023-3.021
			s-3.021,1.355-3.021,3.021C206.71,163.996,208.068,165.354,209.732,165.354z"/>
		<path style="fill:#E85E32;" d="M209.732,165.354c1.664,0,3.023-1.356,3.023-3.021c0-1.666-1.359-3.021-3.023-3.021
			s-3.021,1.355-3.021,3.021C206.71,163.996,208.068,165.354,209.732,165.354z"/>
		<path style="fill:#ED6E49;" d="M209.732,159.311h-0.078l0,0c-1.475,0.037-2.688,1.135-2.906,2.56
			c0.221,1.063,1.475,1.879,2.984,1.879c1.514,0,2.764-0.816,2.988-1.879c-0.221-1.425-1.434-2.521-2.908-2.56l0,0H209.732z"/>
		<g>
			<g>
				<path style="fill:#88BED0;" d="M87.479,87.154L87.479,87.154c-0.076,0.553,0.313,1.067,0.866,1.142l33.129,4.519
					c0.553,0.076,1.065-0.314,1.141-0.867v-0.001c0.076-0.552-0.314-1.064-0.866-1.14l-33.129-4.52
					C88.066,86.213,87.554,86.602,87.479,87.154z"/>
				<path style="fill:#88BED0;" d="M104.521,84.822c-6.344-1.538-27.679,1.307-34.651,4.726l0.141,1.037l34.65-4.724L104.521,84.822
					z"/>
			</g>
			<g>
				<path style="fill:#88BED0;" d="M150.947,87.154L150.947,87.154c-0.074,0.553,0.313,1.067,0.865,1.142l33.13,4.519
					c0.552,0.076,1.065-0.314,1.14-0.867v-0.001c0.076-0.552-0.313-1.064-0.865-1.14l-33.131-4.519
					C151.535,86.213,151.021,86.602,150.947,87.154z"/>
				<path style="fill:#88BED0;" d="M167.988,84.822c-6.341-1.538-27.677,1.307-34.65,4.726l0.143,1.037l34.65-4.724L167.988,84.822z
					"/>
			</g>
		</g>
	</g>
</g>
</svg>
