<?xml version="1.0" encoding="iso-8859-1"?>
<!-- Generator: Adobe Illustrator 16.0.2, SVG Export Plug-In . SVG Version: 6.00 Build 0)  -->
<!DOCTYPE svg PUBLIC "-//W3C//DTD SVG 1.1//EN" "http://www.w3.org/Graphics/SVG/1.1/DTD/svg11.dtd">
<svg version="1.1" id="Layer_1" xmlns="http://www.w3.org/2000/svg" xmlns:xlink="http://www.w3.org/1999/xlink" x="0px" y="0px"
	 width="170px" height="340px" viewBox="0 0 170 340" style="enable-background:new 0 0 170 340;" xml:space="preserve">
<path style="fill:#FEF673;" d="M153.607,211.41c0-9.941-2.107-60.961-2.528-77.018c-0.318-12.198-0.556-20.366-0.556-20.366
	s2.539-1.524,3.047-4.064s1.017-11.175,1.017-14.731c0-2.04-0.501-13.445-0.93-22.797c-8.366-16.84-23.57-28.076-35.638-43.078
	c-0.772-1.029-1.642-2.009-2.535-2.977c-1.133-0.266-2.318-0.513-3.564-0.736c-9.353-1.67-18.877-1.803-24.336-1.698
	c-5.459-0.105-15.52,0.028-24.87,1.698c-1.247,0.223-2.434,0.47-3.566,0.736c-0.893,0.968-1.763,1.948-2.535,2.977
	C44.547,44.358,29.342,55.594,20.975,72.434c-0.427,9.352-0.929,20.757-0.929,22.797c0,3.556,0.508,12.191,1.016,14.731
	s3.048,4.064,3.048,4.064s-0.236,8.168-0.556,20.366c-0.421,16.057-2.529,67.077-2.529,77.018c0,6.613,3.085,18.428,3.085,18.428
	L20.046,246.6l0.508,41.652c0,0,3.556,10.158,10.159,19.809c6.603,9.652,17.667,12.433,27.46,14.988
	c8.93,2.33,22.756,3.295,29.373,3.299c-0.016,0-0.015,0,0.038,0c0.052,0,0.053,0,0.037,0c6.615-0.004,19.908-0.969,28.839-3.299
	c9.793-2.556,20.856-5.336,27.46-14.988c6.604-9.65,10.158-19.809,10.158-19.809l0.509-41.652l-4.063-16.762
	C150.523,229.838,153.607,218.023,153.607,211.41 M87.584,326.348c-0.043,0-0.087,0,0-0.002
	C87.67,326.348,87.627,326.348,87.584,326.348"/>
<path style="fill:none;stroke:#000000;stroke-width:0.25;stroke-miterlimit:10;" d="M153.607,211.41
	c0-9.941-2.107-60.961-2.528-77.018c-0.318-12.198-0.556-20.366-0.556-20.366s2.539-1.524,3.047-4.064s1.017-11.175,1.017-14.731
	c0-2.04-0.501-13.445-0.93-22.797c-8.366-16.84-23.57-28.076-35.638-43.078c-0.772-1.029-1.642-2.009-2.535-2.977
	c-1.133-0.266-2.318-0.513-3.564-0.736c-9.353-1.67-18.877-1.803-24.336-1.698c-5.459-0.105-15.52,0.028-24.87,1.698
	c-1.247,0.223-2.434,0.47-3.566,0.736c-0.893,0.968-1.763,1.948-2.535,2.977C44.547,44.358,29.342,55.594,20.975,72.434
	c-0.427,9.352-0.929,20.757-0.929,22.797c0,3.556,0.508,12.191,1.016,14.731s3.048,4.064,3.048,4.064s-0.236,8.168-0.556,20.366
	c-0.421,16.057-2.529,67.077-2.529,77.018c0,6.613,3.085,18.428,3.085,18.428L20.046,246.6l0.508,41.652
	c0,0,3.556,10.158,10.159,19.809c6.603,9.652,17.667,12.433,27.46,14.988c8.93,2.33,22.756,3.295,29.373,3.299
	c-0.016,0-0.015,0,0.038,0c0.052,0,0.053,0,0.037,0c6.615-0.004,19.908-0.969,28.839-3.299c9.793-2.556,20.856-5.336,27.46-14.988
	c6.604-9.65,10.158-19.809,10.158-19.809l0.509-41.652l-4.063-16.762C150.523,229.838,153.607,218.023,153.607,211.41z
	 M87.584,326.348c-0.043,0-0.087,0,0-0.002C87.67,326.348,87.627,326.348,87.584,326.348z"/>
<path style="fill:#F3A113;" d="M153.607,211.41c0-9.941-2.107-60.961-2.528-77.018c-0.318-12.198-0.556-20.366-0.556-20.366
	s2.539-1.524,3.047-4.064s1.017-11.175,1.017-14.731c0-2.04-0.501-13.445-0.93-22.797c-8.366-16.84-23.57-28.076-35.638-43.078
	c-0.772-1.029-1.642-2.009-2.535-2.977c-1.133-0.266-2.318-0.513-3.564-0.736c-9.353-1.67-18.877-1.803-24.336-1.698
	c-5.459-0.105-15.52,0.028-24.87,1.698c-1.247,0.223-2.434,0.47-3.566,0.736c-0.893,0.968-1.763,1.948-2.535,2.977
	C44.547,44.358,29.342,55.594,20.975,72.434c-0.427,9.352-0.929,20.757-0.929,22.797c0,3.556,0.508,12.191,1.016,14.731
	s3.048,4.064,3.048,4.064s-0.236,8.168-0.556,20.366c-0.421,16.057-2.529,67.077-2.529,77.018c0,6.613,3.085,18.428,3.085,18.428
	L20.046,246.6l0.508,41.652c0,0,3.556,10.158,10.159,19.809c6.603,9.652,17.667,12.433,27.46,14.988
	c8.93,2.33,22.756,3.295,29.373,3.299c-0.016,0-0.015,0,0.038,0c0.052,0,0.053,0,0.037,0c6.615-0.004,19.908-0.969,28.839-3.299
	c9.793-2.556,20.856-5.336,27.46-14.988c6.604-9.65,10.158-19.809,10.158-19.809l0.509-41.652l-4.063-16.762
	C150.523,229.838,153.607,218.023,153.607,211.41 M87.584,326.348c-0.043,0-0.087,0,0-0.002
	C87.67,326.348,87.627,326.348,87.584,326.348"/>
<path style="fill:none;stroke:#000000;stroke-width:0.25;stroke-miterlimit:10;" d="M153.607,211.41
	c0-9.941-2.107-60.961-2.528-77.018c-0.318-12.198-0.556-20.366-0.556-20.366s2.539-1.524,3.047-4.064s1.017-11.175,1.017-14.731
	c0-2.04-0.501-13.445-0.93-22.797c-8.366-16.84-23.57-28.076-35.638-43.078c-0.772-1.029-1.642-2.009-2.535-2.977
	c-1.133-0.266-2.318-0.513-3.564-0.736c-9.353-1.67-18.877-1.803-24.336-1.698c-5.459-0.105-15.52,0.028-24.87,1.698
	c-1.247,0.223-2.434,0.47-3.566,0.736c-0.893,0.968-1.763,1.948-2.535,2.977C44.547,44.358,29.342,55.594,20.975,72.434
	c-0.427,9.352-0.929,20.757-0.929,22.797c0,3.556,0.508,12.191,1.016,14.731s3.048,4.064,3.048,4.064s-0.236,8.168-0.556,20.366
	c-0.421,16.057-2.529,67.077-2.529,77.018c0,6.613,3.085,18.428,3.085,18.428L20.046,246.6l0.508,41.652
	c0,0,3.556,10.158,10.159,19.809c6.603,9.652,17.667,12.433,27.46,14.988c8.93,2.33,22.756,3.295,29.373,3.299
	c-0.016,0-0.015,0,0.038,0c0.052,0,0.053,0,0.037,0c6.615-0.004,19.908-0.969,28.839-3.299c9.793-2.556,20.856-5.336,27.46-14.988
	c6.604-9.65,10.158-19.809,10.158-19.809l0.509-41.652l-4.063-16.762C150.523,229.838,153.607,218.023,153.607,211.41z
	 M87.584,326.348c-0.043,0-0.087,0,0-0.002C87.67,326.348,87.627,326.348,87.584,326.348z"/>
<path style="fill:none;stroke:#000000;stroke-width:0.25;stroke-miterlimit:10;" d="M31.527,221.135c0,0,0.07,0.993,0.195,2.666
	c-0.046-0.902-0.082-1.777-0.109-2.611L31.527,221.135z"/>
<path style="fill:#333333;" d="M30.714,206.07c0.371,4.432,0.813,7.674,0.813,7.674l9.141,0.584c0,0,0.07-2.943,0.166-7.117
	L30.714,206.07z"/>
<path style="fill:none;stroke:#000000;stroke-miterlimit:10;" d="M30.714,206.07c0.371,4.432,0.813,7.674,0.813,7.674l9.141,0.584
	c0,0,0.07-2.943,0.166-7.117L30.714,206.07z"/>
<path style="fill:#78AD2C;" d="M23.832,212.566c-1.004-22.756,0.882-45.502-0.595-68.111c-0.691,20.279-2.079,55.23-2.204,65.633"/>
<path style="fill:#F3A113;stroke:#000000;stroke-width:0.25;stroke-miterlimit:10;" d="M23.832,212.566
	c-1.004-22.756,0.882-45.502-0.595-68.111c-0.691,20.279-2.079,55.23-2.204,65.633"/>
<path style="fill:#F3A113;" d="M30.714,206.07c-0.055-0.66-0.108-1.346-0.159-2.051c-0.389-5.445-0.777-90.244-0.777-90.244
	l0.18-3.967c-0.005-0.02-0.009-0.04-0.014-0.06c-0.449-1.88-1.243-4.09-3.133-4.493c-1.056-0.226-2.127,0.218-3.115,0.651
	c-0.999,0.438-2.03,0.912-2.977,1.483c0.11,1.087,0.227,1.991,0.342,2.573c0.509,2.54,3.049,4.064,3.049,4.064
	s-0.237,8.168-0.557,20.366c-0.066,2.564-0.177,6.024-0.314,10.063c1.475,22.609-0.409,45.355,0.594,68.112
	c0.502,0.244,1.029,0.438,1.568,0.562c1.977,0.454,4.052,0.166,5.989-0.461C31.23,211.362,30.957,208.975,30.714,206.07"/>
<path style="fill:none;stroke:#000000;stroke-width:0.25;stroke-miterlimit:10;" d="M30.714,206.07
	c-0.055-0.66-0.108-1.346-0.159-2.051c-0.389-5.445-0.777-90.244-0.777-90.244l0.18-3.967c-0.005-0.02-0.009-0.04-0.014-0.06
	c-0.449-1.88-1.243-4.09-3.133-4.493c-1.056-0.226-2.127,0.218-3.115,0.651c-0.999,0.438-2.03,0.912-2.977,1.483
	c0.11,1.087,0.227,1.991,0.342,2.573c0.509,2.54,3.049,4.064,3.049,4.064s-0.237,8.168-0.557,20.366
	c-0.066,2.564-0.177,6.024-0.314,10.063c1.475,22.609-0.409,45.355,0.594,68.112c0.502,0.244,1.029,0.438,1.568,0.562
	c1.977,0.454,4.052,0.166,5.989-0.461C31.23,211.362,30.957,208.975,30.714,206.07z"/>
<g>
	<defs>
		<path id="SVGID_1_" d="M37.823,36.818c-1.05,0.864-2.093,1.869-3.11,2.964c-4.646,6.689-8.198,13.45-7.563,21.407
			c0.156,0.157,0.387,0.239,0.654,0.285c8.446-11.31,19.55-20.607,28.808-32.118c0.772-1.028,1.642-2.008,2.536-2.977
			C47.355,29.144,41.402,33.873,37.823,36.818"/>
	</defs>
	<clipPath id="SVGID_2_">
		<use xlink:href="#SVGID_1_"  style="overflow:visible;"/>
	</clipPath>
	
		<radialGradient id="SVGID_3_" cx="-313.7144" cy="579.0176" r="1" gradientTransform="matrix(-24.7725 -28.6432 -28.6432 24.7725 8871.0547 -23266.2344)" gradientUnits="userSpaceOnUse">
		<stop  offset="0" style="stop-color:#1E120D"/>
		<stop  offset="0.0896" style="stop-color:#281D18"/>
		<stop  offset="0.2463" style="stop-color:#433935"/>
		<stop  offset="0.4516" style="stop-color:#6F6764"/>
		<stop  offset="0.6977" style="stop-color:#ACA7A5"/>
		<stop  offset="0.9755" style="stop-color:#F8F8F7"/>
		<stop  offset="1" style="stop-color:#FFFFFF"/>
	</radialGradient>
	<polygon style="clip-path:url(#SVGID_2_);fill:url(#SVGID_3_);" points="40.479,77.621 9.15,41.396 45.184,10.232 76.513,46.456 	
		"/>
</g>
<path style="fill:none;stroke:#000000;stroke-miterlimit:10;" d="M59.147,26.379c-11.792,2.766-17.745,7.495-21.324,10.439
	c-1.051,0.865-2.092,1.869-3.109,2.965c-4.647,6.688-8.2,13.449-7.563,21.407c0.156,0.156,0.386,0.238,0.654,0.284
	c8.447-11.31,19.55-20.606,28.808-32.117C57.385,28.328,58.255,27.348,59.147,26.379z"/>
<path style="fill:#F3A113;" d="M34.713,39.782c-7.151,7.696-13.144,19.893-13.144,19.893s-0.277,5.814-0.594,12.759
	c1.946-3.918,4.267-7.531,6.829-10.961c-0.268-0.045-0.497-0.128-0.654-0.284C26.515,53.232,30.066,46.471,34.713,39.782"/>
<path style="fill:none;stroke:#000000;stroke-width:0.25;stroke-miterlimit:10;" d="M34.713,39.782
	c-7.151,7.696-13.144,19.893-13.144,19.893s-0.277,5.814-0.594,12.759c1.946-3.918,4.267-7.531,6.829-10.961
	c-0.268-0.045-0.497-0.128-0.654-0.284C26.515,53.232,30.066,46.471,34.713,39.782z"/>
<path style="fill:#F3A113;" d="M36.778,116.109c0,0-1.167-4.862-1.167-7.974c0-3.112-0.194-6.613-0.194-6.613l-1.167-0.389
	c0,0-1.944-1.945-2.723-9.919c-0.636-6.519,0.547-27.982,1.001-35.6c-4.448,5.158-8.467,10.607-11.553,16.82
	c-0.428,9.352-0.931,20.757-0.931,22.797c0,3.556,0.509,12.191,1.017,14.731c0.508,2.539,3.048,4.063,3.048,4.063
	s-0.015,0.232-0.041,0.666c0.678-0.432,1.433-0.833,2.013-0.916c1.361-0.194,3.695,0,3.695,0l0.195-4.279
	c0,0,0.389-2.334,1.167-0.972c0.777,1.361,2.139,10.113,2.139,10.113L36.778,116.109z"/>
<path style="fill:none;stroke:#000000;stroke-width:0.25;stroke-miterlimit:10;" d="M36.778,116.109c0,0-1.167-4.862-1.167-7.974
	c0-3.112-0.194-6.613-0.194-6.613l-1.167-0.389c0,0-1.944-1.945-2.723-9.919c-0.636-6.519,0.547-27.982,1.001-35.6
	c-4.448,5.158-8.467,10.607-11.553,16.82c-0.428,9.352-0.931,20.757-0.931,22.797c0,3.556,0.509,12.191,1.017,14.731
	c0.508,2.539,3.048,4.063,3.048,4.063s-0.015,0.232-0.041,0.666c0.678-0.432,1.433-0.833,2.013-0.916c1.361-0.194,3.695,0,3.695,0
	l0.195-4.279c0,0,0.389-2.334,1.167-0.972c0.777,1.361,2.139,10.113,2.139,10.113L36.778,116.109z"/>
<path d="M42.937,96.892c-4.499,2.53-7.52,4.631-7.52,4.631s0.194,3.501,0.194,6.613c0,3.112,1.167,7.974,1.167,7.974l0.007,0.033
	c0.262-0.056,0.545-0.092,0.863-0.092C37.352,109.22,40.181,102.91,42.937,96.892"/>
<path style="fill:none;stroke:#000000;stroke-miterlimit:10;" d="M42.937,96.892c-4.499,2.53-7.52,4.631-7.52,4.631
	s0.194,3.501,0.194,6.613c0,3.112,1.167,7.974,1.167,7.974l0.007,0.033c0.262-0.056,0.545-0.092,0.863-0.092
	C37.352,109.22,40.181,102.91,42.937,96.892z"/>
<path d="M41.252,187.683c0.193-10.308-0.39-23.533-0.973-29.174c-0.584-5.64-7.002-39.87-7.002-39.87s-1.361-8.753-2.14-10.114
	s-1.167,0.972-1.167,0.972l-0.194,4.279c0,0,0.39,84.798,0.778,90.244c0.05,0.706,0.104,1.391,0.159,2.051l10.12,1.141
	C40.964,201.547,41.14,193.616,41.252,187.683"/>
<path style="fill:none;stroke:#000000;stroke-miterlimit:10;" d="M41.252,187.683c0.193-10.308-0.39-23.533-0.973-29.174
	c-0.584-5.64-7.002-39.87-7.002-39.87s-1.361-8.753-2.14-10.114s-1.167,0.972-1.167,0.972l-0.194,4.279
	c0,0,0.39,84.798,0.778,90.244c0.05,0.706,0.104,1.391,0.159,2.051l10.12,1.141C40.964,201.547,41.14,193.616,41.252,187.683z"/>
<g>
	<defs>
		<path id="SVGID_4_" d="M31.332,132.058l0.563,74.145l7.835,0.883c0.063-4.727,0.21-14.795,0.355-20.182
			c0.194-7.195-0.973-25.867-1.361-29.951c-0.39-4.084-4.084-25.284-4.084-25.284L31.332,132.058z"/>
	</defs>
	<clipPath id="SVGID_5_">
		<use xlink:href="#SVGID_4_"  style="overflow:visible;"/>
	</clipPath>
	
		<linearGradient id="SVGID_6_" gradientUnits="userSpaceOnUse" x1="-337.0308" y1="554.04" x2="-336.0308" y2="554.04" gradientTransform="matrix(10.611 -0.4515 -0.4515 -10.611 3859.1084 5896.2344)">
		<stop  offset="0" style="stop-color:#1E120D"/>
		<stop  offset="0.0896" style="stop-color:#281D18"/>
		<stop  offset="0.2463" style="stop-color:#433935"/>
		<stop  offset="0.4516" style="stop-color:#6F6764"/>
		<stop  offset="0.6977" style="stop-color:#ACA7A5"/>
		<stop  offset="0.9755" style="stop-color:#F8F8F7"/>
		<stop  offset="1" style="stop-color:#FFFFFF"/>
	</linearGradient>
	<polygon style="clip-path:url(#SVGID_5_);fill:url(#SVGID_6_);" points="28.129,131.805 40.264,131.289 43.482,206.949 
		31.349,207.466 	"/>
</g>
<path style="fill:none;stroke:#000000;stroke-miterlimit:10;" d="M39.729,207.086c0.064-4.727,0.21-14.796,0.355-20.182
	c0.194-7.196-0.973-25.867-1.361-29.951c-0.389-4.085-4.085-25.284-4.085-25.284l-3.306,0.389l0.562,74.145L39.729,207.086z"/>
<path style="fill:#86B541;" d="M23.478,232.442L20.046,246.6l0.453,37.123c1.049,2.676,2.559,5.088,4.296,7.41
	C24.028,262.641,23.644,244.245,23.478,232.442"/>
<path style="fill:#F3A113;stroke:#000000;stroke-width:0.25;stroke-miterlimit:10;" d="M23.478,232.442L20.046,246.6l0.453,37.123
	c1.049,2.676,2.559,5.088,4.296,7.41C24.028,262.641,23.644,244.245,23.478,232.442z"/>
<path style="fill:#86B541;" d="M20.498,283.722l0.055,4.53c0,0,1.527,4.361,4.438,10.083c-0.068-2.472-0.133-4.867-0.196-7.202
	C23.059,288.811,21.548,286.398,20.498,283.722"/>
<path style="fill:#F3A113;stroke:#000000;stroke-width:0.25;stroke-miterlimit:10;" d="M20.498,283.722l0.055,4.53
	c0,0,1.527,4.361,4.438,10.083c-0.068-2.472-0.133-4.867-0.196-7.202C23.059,288.811,21.548,286.398,20.498,283.722z"/>
<path style="fill:#FEF566;" d="M23.551,212.251l0.28,0.316C23.831,212.567,23.68,211.198,23.551,212.251"/>
<path style="fill:none;stroke:#000000;stroke-width:0.25;stroke-miterlimit:10;" d="M23.551,212.251l0.28,0.316
	C23.831,212.567,23.68,211.198,23.551,212.251z"/>
<path style="fill:#78AD2C;" d="M21.024,211.41c0,4.576,1.478,11.643,2.388,15.561c-0.101-10.069,0.008-13.648,0.139-14.719
	l-2.508-2.816C21.031,210.204,21.024,210.871,21.024,211.41"/>
<path style="fill:#F3A113;stroke:#000000;stroke-width:0.25;stroke-miterlimit:10;" d="M21.024,211.41
	c0,4.576,1.478,11.643,2.388,15.561c-0.101-10.069,0.008-13.648,0.139-14.719l-2.508-2.816
	C21.031,210.204,21.024,210.871,21.024,211.41z"/>
<path d="M31.527,213.744c0,0-0.194,10.309,0.972,18.866c1.167,8.557,7.197,31.896,7.197,31.896l0.972-50.179L31.527,213.744z"/>
<path style="fill:none;stroke:#000000;stroke-miterlimit:10;" d="M31.527,213.744c0,0-0.194,10.309,0.972,18.866
	c1.167,8.557,7.197,31.896,7.197,31.896l0.972-50.179L31.527,213.744z"/>
<path style="fill:none;stroke:#000000;stroke-width:0.25;stroke-miterlimit:10;" d="M31.613,221.189l-0.086-0.055
	c0,0,0.072,0.993,0.195,2.666C31.677,222.897,31.641,222.023,31.613,221.189z"/>
<g>
	<defs>
		<path id="SVGID_7_" d="M38.724,218.801l-5.058,0.194c0,0-0.972,0.973,1.167,15.754c0.54,3.731,2.45,12.608,3.455,17.188
			c0.099,0.448,0.754,0.395,0.777-0.063c0.13-2.597,0.319-6.377,0.436-8.956c0.194-4.279,0.194-20.616,0.194-22.561
			c0-1.39-0.496-1.588-0.779-1.588C38.803,218.77,38.724,218.801,38.724,218.801"/>
	</defs>
	<clipPath id="SVGID_8_">
		<use xlink:href="#SVGID_7_"  style="overflow:visible;"/>
	</clipPath>
	
		<linearGradient id="SVGID_9_" gradientUnits="userSpaceOnUse" x1="-333.8418" y1="556.751" x2="-332.8418" y2="556.751" gradientTransform="matrix(12.4171 -0.6773 -0.6773 -12.4171 4556.9009 6922.792)">
		<stop  offset="0" style="stop-color:#1E120D"/>
		<stop  offset="0.0896" style="stop-color:#281D18"/>
		<stop  offset="0.2463" style="stop-color:#433935"/>
		<stop  offset="0.4516" style="stop-color:#6F6764"/>
		<stop  offset="0.6977" style="stop-color:#ACA7A5"/>
		<stop  offset="0.9755" style="stop-color:#F8F8F7"/>
		<stop  offset="1" style="stop-color:#FFFFFF"/>
	</linearGradient>
	<polygon style="clip-path:url(#SVGID_8_);fill:url(#SVGID_9_);" points="30.866,218.869 39.675,218.389 41.523,252.286 
		32.715,252.767 	"/>
</g>
<path style="fill:none;stroke:#000000;stroke-miterlimit:10;" d="M33.667,218.996l5.057-0.195c0,0,0.972-0.389,0.972,1.556
	c0,1.945,0,18.283-0.193,22.562c-0.117,2.58-0.306,6.359-0.437,8.955c-0.022,0.459-0.679,0.514-0.777,0.065
	c-1.005-4.582-2.915-13.459-3.454-17.188C32.694,219.968,33.667,218.996,33.667,218.996z"/>
<path style="fill:#BF0411;" d="M27.32,286.898c0,0,1.692-2.201,2.539-1.693s1.862,3.217,4.233,6.942s14.901,20.996,14.901,20.996
	s-8.976-2.709-13.208-6.265c-4.233-3.557-6.942-9.482-7.45-13.547C27.828,289.27,27.32,286.898,27.32,286.898"/>
<path style="fill:none;stroke:#000000;stroke-miterlimit:10;" d="M27.32,286.898c0,0,1.692-2.201,2.539-1.693
	s1.862,3.217,4.233,6.942s14.901,20.996,14.901,20.996s-8.976-2.709-13.208-6.265c-4.233-3.557-6.942-9.482-7.45-13.547
	C27.828,289.27,27.32,286.898,27.32,286.898z"/>
<path style="fill:#333333;" d="M136.983,116.05c0.298-6.831-2.531-13.141-5.288-19.159c-4.414-2.483-10.252-5.378-16.063-7.109
	c-11.733-3.495-28.049-2.746-28.049-2.746S70.732,86.288,59,89.782c-5.812,1.731-11.648,4.626-16.063,7.109
	c-2.756,6.018-5.585,12.328-5.288,19.159c-0.318,0-0.602,0.036-0.863,0.092l7.236,39.542c0,0,15.728-2.246,25.962-2.496
	c10.235-0.25,17.601,0,17.601,0s6.83-0.25,17.064,0c10.235,0.25,25.962,2.496,25.962,2.496l7.237-39.542
	C137.586,116.086,137.303,116.05,136.983,116.05"/>
<path style="fill:none;stroke:#000000;stroke-miterlimit:10;" d="M136.983,116.05c0.298-6.831-2.531-13.141-5.288-19.159
	c-4.414-2.483-10.252-5.378-16.063-7.109c-11.733-3.495-28.049-2.746-28.049-2.746S70.732,86.288,59,89.782
	c-5.812,1.731-11.648,4.626-16.063,7.109c-2.756,6.018-5.585,12.328-5.288,19.159c-0.318,0-0.602,0.036-0.863,0.092l7.236,39.542
	c0,0,15.728-2.246,25.962-2.496c10.235-0.25,17.601,0,17.601,0s6.83-0.25,17.064,0c10.235,0.25,25.962,2.496,25.962,2.496
	l7.237-39.542C137.586,116.086,137.303,116.05,136.983,116.05z"/>
<path style="fill:none;stroke:#000000;stroke-width:0.25;stroke-miterlimit:10;" d="M50.348,314.837l-1.354-1.692
	c0,0,1.662-1.553,2.71-2.201c0.989-0.614,1.206-0.723,1.206-0.723"/>
<line style="fill:none;stroke:#000000;stroke-width:0.25;stroke-miterlimit:10;" x1="40.02" y1="300.501" x2="47.469" y2="300.388"/>
<path d="M12.756,134.569l14.575-5.333v-1.902l-14.336,5.2C12.756,133.751,12.756,134.569,12.756,134.569"/>
<path style="fill:none;stroke:#000000;stroke-miterlimit:10;" d="M12.756,134.569l14.575-5.333v-1.902l-14.336,5.2
	C12.756,133.751,12.756,134.569,12.756,134.569z"/>
<path style="fill:#333333;" d="M35.863,132.081l-2.586-13.443l-7.724,2.778c0,0-7.109,1.778-9.953,5.333
	c-1.599,1.998-2.299,4.221-2.606,5.785l14.338-5.2v-0.585h2.488v6.043L35.863,132.081z"/>
<path style="fill:none;stroke:#000000;stroke-miterlimit:10;" d="M35.863,132.081l-2.586-13.443l-7.724,2.778
	c0,0-7.109,1.778-9.953,5.333c-1.599,1.998-2.299,4.221-2.606,5.785l14.338-5.2v-0.585h2.488v6.043L35.863,132.081z"/>
<path style="fill:none;stroke:#000000;stroke-width:0.25;stroke-miterlimit:10;" d="M143.105,221.135c0,0-0.071,0.993-0.196,2.666
	c0.046-0.902,0.082-1.777,0.11-2.611L143.105,221.135z"/>
<path style="fill:#333333;" d="M143.918,206.07c-0.371,4.432-0.813,7.674-0.813,7.674l-9.142,0.584c0,0-0.069-2.943-0.166-7.117
	L143.918,206.07z"/>
<path style="fill:none;stroke:#000000;stroke-miterlimit:10;" d="M143.918,206.07c-0.371,4.432-0.813,7.674-0.813,7.674
	l-9.142,0.584c0,0-0.069-2.943-0.166-7.117L143.918,206.07z"/>
<path style="fill:#78AD2C;" d="M150.801,212.566c1.003-22.756-0.882-45.502,0.594-68.111c0.692,20.279,2.079,55.23,2.204,65.633"/>
<path style="fill:#F3A113;stroke:#000000;stroke-width:0.25;stroke-miterlimit:10;" d="M150.801,212.566
	c1.003-22.756-0.882-45.502,0.594-68.111c0.692,20.279,2.079,55.23,2.204,65.633"/>
<path style="fill:#78AD2C;" d="M143.918,206.07c0.056-0.66,0.109-1.346,0.159-2.051c0.39-5.445,0.778-90.244,0.778-90.244
	l-0.18-3.967c0.005-0.02,0.009-0.04,0.014-0.06c0.449-1.88,1.243-4.09,3.132-4.493c1.056-0.226,2.127,0.218,3.116,0.651
	c0.999,0.438,2.029,0.912,2.976,1.483c-0.109,1.087-0.226,1.991-0.342,2.573c-0.508,2.54-3.048,4.064-3.048,4.064
	s0.237,8.168,0.556,20.366c0.067,2.564,0.177,6.024,0.315,10.063c-1.476,22.609,0.409,45.355-0.594,68.112
	c-0.503,0.244-1.029,0.438-1.568,0.562c-1.978,0.454-4.052,0.166-5.99-0.461C143.402,211.362,143.676,208.975,143.918,206.07"/>
<path style="fill:#F3A113;stroke:#000000;stroke-width:0.25;stroke-miterlimit:10;" d="M143.918,206.07
	c0.056-0.66,0.109-1.346,0.159-2.051c0.39-5.445,0.778-90.244,0.778-90.244l-0.18-3.967c0.005-0.02,0.009-0.04,0.014-0.06
	c0.449-1.88,1.243-4.09,3.132-4.493c1.056-0.226,2.127,0.218,3.116,0.651c0.999,0.438,2.029,0.912,2.976,1.483
	c-0.109,1.087-0.226,1.991-0.342,2.573c-0.508,2.54-3.048,4.064-3.048,4.064s0.237,8.168,0.556,20.366
	c0.067,2.564,0.177,6.024,0.315,10.063c-1.476,22.609,0.409,45.355-0.594,68.112c-0.503,0.244-1.029,0.438-1.568,0.562
	c-1.978,0.454-4.052,0.166-5.99-0.461C143.402,211.362,143.676,208.975,143.918,206.07z"/>
<g>
	<defs>
		<path id="SVGID_10_" d="M118.02,29.356c9.259,11.511,20.361,20.808,28.809,32.118c0.268-0.046,0.497-0.128,0.654-0.285
			c0.636-7.957-2.916-14.718-7.563-21.407c-1.018-1.095-2.059-2.1-3.109-2.964c-3.58-2.945-9.532-7.674-21.325-10.439
			C116.378,27.348,117.247,28.328,118.02,29.356"/>
	</defs>
	<clipPath id="SVGID_11_">
		<use xlink:href="#SVGID_10_"  style="overflow:visible;"/>
	</clipPath>
	
		<radialGradient id="SVGID_12_" cx="-321.8921" cy="569.5615" r="1" gradientTransform="matrix(24.7725 -28.6432 28.6432 24.7725 -8222.9609 -23266.2344)" gradientUnits="userSpaceOnUse">
		<stop  offset="0" style="stop-color:#1E120D"/>
		<stop  offset="0.0896" style="stop-color:#281D18"/>
		<stop  offset="0.2463" style="stop-color:#433935"/>
		<stop  offset="0.4516" style="stop-color:#6F6764"/>
		<stop  offset="0.6977" style="stop-color:#ACA7A5"/>
		<stop  offset="0.9755" style="stop-color:#F8F8F7"/>
		<stop  offset="1" style="stop-color:#FFFFFF"/>
	</radialGradient>
	<polygon style="clip-path:url(#SVGID_11_);fill:url(#SVGID_12_);" points="134.153,77.621 165.482,41.396 129.449,10.232 
		98.12,46.456 	"/>
</g>
<path style="fill:none;stroke:#000000;stroke-miterlimit:10;" d="M115.484,26.379c11.793,2.766,17.745,7.495,21.324,10.439
	c1.051,0.865,2.092,1.869,3.11,2.965c4.646,6.688,8.2,13.449,7.563,21.407c-0.155,0.156-0.386,0.238-0.653,0.284
	c-8.447-11.31-19.551-20.606-28.809-32.117C117.248,28.328,116.378,27.348,115.484,26.379z"/>
<path style="fill:#F3A113;" d="M139.919,39.782c7.152,7.696,13.145,19.893,13.145,19.893s0.276,5.814,0.594,12.759
	c-1.947-3.918-4.268-7.531-6.829-10.961c0.267-0.045,0.497-0.128,0.654-0.284C148.118,53.232,144.566,46.471,139.919,39.782"/>
<path style="fill:none;stroke:#000000;stroke-width:0.25;stroke-miterlimit:10;" d="M139.919,39.782
	c7.152,7.696,13.145,19.893,13.145,19.893s0.276,5.814,0.594,12.759c-1.947-3.918-4.268-7.531-6.829-10.961
	c0.267-0.045,0.497-0.128,0.654-0.284C148.118,53.232,144.566,46.471,139.919,39.782z"/>
<path style="fill:#F3A113;" d="M137.854,116.109c0,0,1.167-4.862,1.167-7.974c0-3.112,0.194-6.613,0.194-6.613l1.167-0.389
	c0,0,1.945-1.945,2.723-9.919c0.637-6.519-0.547-27.982-1.001-35.6c4.448,5.158,8.468,10.607,11.554,16.82
	c0.428,9.352,0.93,20.757,0.93,22.797c0,3.556-0.508,12.191-1.016,14.731c-0.509,2.539-3.049,4.063-3.049,4.063
	s0.016,0.232,0.041,0.666c-0.678-0.432-1.433-0.833-2.013-0.916c-1.361-0.194-3.695,0-3.695,0l-0.194-4.279
	c0,0-0.39-2.334-1.167-0.972c-0.778,1.361-2.14,10.113-2.14,10.113L137.854,116.109z"/>
<path style="fill:#F3A113;stroke:#000000;stroke-width:0.25;stroke-miterlimit:10;" d="M137.854,116.109
	c0,0,1.167-4.862,1.167-7.974c0-3.112,0.194-6.613,0.194-6.613l1.167-0.389c0,0,1.945-1.945,2.723-9.919
	c0.637-6.519-0.547-27.982-1.001-35.6c4.448,5.158,8.468,10.607,11.554,16.82c0.428,9.352,0.93,20.757,0.93,22.797
	c0,3.556-0.508,12.191-1.016,14.731c-0.509,2.539-3.049,4.063-3.049,4.063s0.016,0.232,0.041,0.666
	c-0.678-0.432-1.433-0.833-2.013-0.916c-1.361-0.194-3.695,0-3.695,0l-0.194-4.279c0,0-0.39-2.334-1.167-0.972
	c-0.778,1.361-2.14,10.113-2.14,10.113L137.854,116.109z"/>
<path d="M131.695,96.892c4.499,2.53,7.521,4.631,7.521,4.631s-0.195,3.501-0.195,6.613c0,3.112-1.167,7.974-1.167,7.974
	l-0.006,0.033c-0.262-0.056-0.545-0.092-0.864-0.092C137.28,109.22,134.451,102.91,131.695,96.892"/>
<path style="fill:none;stroke:#000000;stroke-miterlimit:10;" d="M131.695,96.892c4.499,2.53,7.521,4.631,7.521,4.631
	s-0.195,3.501-0.195,6.613c0,3.112-1.167,7.974-1.167,7.974l-0.006,0.033c-0.262-0.056-0.545-0.092-0.864-0.092
	C137.28,109.22,134.451,102.91,131.695,96.892z"/>
<path d="M133.381,187.683c-0.194-10.308,0.389-23.533,0.972-29.174c0.584-5.64,7.002-39.87,7.002-39.87s1.362-8.753,2.14-10.114
	c0.778-1.361,1.167,0.972,1.167,0.972l0.194,4.279c0,0-0.389,84.798-0.778,90.244c-0.05,0.706-0.104,1.391-0.158,2.051l-10.12,1.141
	C133.669,201.547,133.492,193.616,133.381,187.683"/>
<path style="fill:none;stroke:#000000;stroke-miterlimit:10;" d="M133.381,187.683c-0.194-10.308,0.389-23.533,0.972-29.174
	c0.584-5.64,7.002-39.87,7.002-39.87s1.362-8.753,2.14-10.114c0.778-1.361,1.167,0.972,1.167,0.972l0.194,4.279
	c0,0-0.389,84.798-0.778,90.244c-0.05,0.706-0.104,1.391-0.158,2.051l-10.12,1.141C133.669,201.547,133.492,193.616,133.381,187.683
	z"/>
<g>
	<defs>
		<path id="SVGID_13_" d="M135.909,156.953c-0.389,4.084-1.556,22.756-1.362,29.951c0.146,5.387,0.291,15.455,0.355,20.182
			l7.836-0.883l0.561-74.145l-3.306-0.389C139.993,131.669,136.297,152.869,135.909,156.953"/>
	</defs>
	<clipPath id="SVGID_14_">
		<use xlink:href="#SVGID_13_"  style="overflow:visible;"/>
	</clipPath>
	
		<linearGradient id="SVGID_15_" gradientUnits="userSpaceOnUse" x1="-292.4937" y1="552.1445" x2="-291.4937" y2="552.1445" gradientTransform="matrix(-10.611 -0.4515 0.4515 -10.611 -3211.0303 5896.2344)">
		<stop  offset="0" style="stop-color:#1E120D"/>
		<stop  offset="0.0896" style="stop-color:#281D18"/>
		<stop  offset="0.2463" style="stop-color:#433935"/>
		<stop  offset="0.4516" style="stop-color:#6F6764"/>
		<stop  offset="0.6977" style="stop-color:#ACA7A5"/>
		<stop  offset="0.9755" style="stop-color:#F8F8F7"/>
		<stop  offset="1" style="stop-color:#FFFFFF"/>
	</linearGradient>
	<polygon style="clip-path:url(#SVGID_14_);fill:url(#SVGID_15_);" points="146.503,131.805 134.369,131.289 131.149,206.949 
		143.283,207.466 	"/>
</g>
<path style="fill:none;stroke:#000000;stroke-miterlimit:10;" d="M134.902,207.086c-0.063-4.727-0.21-14.796-0.354-20.182
	c-0.195-7.196,0.972-25.867,1.361-29.951c0.389-4.085,4.085-25.284,4.085-25.284l3.306,0.389l-0.563,74.145L134.902,207.086z"/>
<path style="fill:#86B541;" d="M151.154,232.442l3.433,14.157l-0.453,37.123c-1.049,2.676-2.56,5.088-4.296,7.41
	C150.604,262.641,150.988,244.245,151.154,232.442"/>
<path style="fill:#F3A113;stroke:#000000;stroke-width:0.25;stroke-miterlimit:10;" d="M151.154,232.442l3.433,14.157l-0.453,37.123
	c-1.049,2.676-2.56,5.088-4.296,7.41C150.604,262.641,150.988,244.245,151.154,232.442z"/>
<path style="fill:#86B541;" d="M154.134,283.722l-0.055,4.53c0,0-1.527,4.361-4.437,10.083c0.067-2.472,0.133-4.867,0.195-7.202
	C151.574,288.811,153.084,286.398,154.134,283.722"/>
<path style="fill:#F3A113;stroke:#000000;stroke-width:0.25;stroke-miterlimit:10;" d="M154.134,283.722l-0.055,4.53
	c0,0-1.527,4.361-4.437,10.083c0.067-2.472,0.133-4.867,0.195-7.202C151.574,288.811,153.084,286.398,154.134,283.722z"/>
<path style="fill:#FEF566;" d="M151.082,212.251l-0.281,0.316C150.801,212.567,150.953,211.198,151.082,212.251"/>
<path style="fill:none;stroke:#000000;stroke-width:0.25;stroke-miterlimit:10;" d="M151.082,212.251l-0.281,0.316
	C150.801,212.567,150.953,211.198,151.082,212.251z"/>
<path style="fill:#78AD2C;" d="M153.607,211.41c0,4.576-1.477,11.643-2.387,15.561c0.1-10.069-0.008-13.648-0.139-14.719
	l2.508-2.816C153.601,210.204,153.607,210.871,153.607,211.41"/>
<path style="fill:#F3A113;stroke:#000000;stroke-width:0.25;stroke-miterlimit:10;" d="M153.607,211.41
	c0,4.576-1.477,11.643-2.387,15.561c0.1-10.069-0.008-13.648-0.139-14.719l2.508-2.816
	C153.601,210.204,153.607,210.871,153.607,211.41z"/>
<path d="M143.105,213.744c0,0,0.193,10.309-0.973,18.866c-1.167,8.557-7.196,31.896-7.196,31.896l-0.973-50.179L143.105,213.744z"/>
<path style="fill:none;stroke:#000000;stroke-miterlimit:10;" d="M143.105,213.744c0,0,0.193,10.309-0.973,18.866
	c-1.167,8.557-7.196,31.896-7.196,31.896l-0.973-50.179L143.105,213.744z"/>
<path style="fill:none;stroke:#000000;stroke-width:0.25;stroke-miterlimit:10;" d="M143.02,221.189l0.086-0.055
	c0,0-0.071,0.993-0.196,2.666C142.955,222.897,142.991,222.023,143.02,221.189z"/>
<g>
	<defs>
		<path id="SVGID_16_" d="M134.938,220.357c0,1.944,0,18.281,0.193,22.561c0.117,2.579,0.306,6.359,0.437,8.956
			c0.022,0.458,0.678,0.512,0.776,0.063c1.006-4.58,2.915-13.457,3.455-17.188c2.14-14.781,1.168-15.754,1.168-15.754l-5.058-0.194
			c0,0-0.08-0.031-0.192-0.031C135.434,218.77,134.938,218.968,134.938,220.357"/>
	</defs>
	<clipPath id="SVGID_17_">
		<use xlink:href="#SVGID_16_"  style="overflow:visible;"/>
	</clipPath>
	
		<linearGradient id="SVGID_18_" gradientUnits="userSpaceOnUse" x1="-295.8262" y1="554.6777" x2="-294.8262" y2="554.6777" gradientTransform="matrix(-12.4171 -0.6773 0.6773 -12.4171 -3908.8228 6922.792)">
		<stop  offset="0" style="stop-color:#1E120D"/>
		<stop  offset="0.0896" style="stop-color:#281D18"/>
		<stop  offset="0.2463" style="stop-color:#433935"/>
		<stop  offset="0.4516" style="stop-color:#6F6764"/>
		<stop  offset="0.6977" style="stop-color:#ACA7A5"/>
		<stop  offset="0.9755" style="stop-color:#F8F8F7"/>
		<stop  offset="1" style="stop-color:#FFFFFF"/>
	</linearGradient>
	<polygon style="clip-path:url(#SVGID_17_);fill:url(#SVGID_18_);" points="143.767,218.869 134.958,218.389 133.109,252.286 
		141.918,252.767 	"/>
</g>
<path style="fill:none;stroke:#000000;stroke-miterlimit:10;" d="M140.966,218.996l-5.057-0.195c0,0-0.973-0.389-0.973,1.556
	c0,1.945,0,18.283,0.194,22.562c0.118,2.58,0.305,6.359,0.436,8.955c0.023,0.459,0.68,0.514,0.777,0.065
	c1.005-4.582,2.915-13.459,3.455-17.188C141.938,219.968,140.966,218.996,140.966,218.996z"/>
<path style="fill:#F3A113;" d="M142.133,232.609c-1.167,8.559-7.196,31.897-7.196,31.897s-3.696,1.556-6.419,2.14
	c-2.722,0.582-13.03,1.36-19.838,2.139c-5.24,0.599-16.256,0.621-21.096,0.601c-4.84,0.021-16.392-0.002-21.632-0.601
	c-6.808-0.778-17.115-1.557-19.839-2.139c-2.723-0.584-6.418-2.14-6.418-2.14s-6.028-23.339-7.195-31.897
	c-0.105-0.77-0.199-1.554-0.283-2.343c0.689,8.825,1.767,21.776,2.617,28.21c1.36,10.309,3.501,30.924,8.557,39.678
	c5.057,8.752,14.198,19.449,29.174,20.42c7.337,0.478,12.301,0.674,15.02,0.75c2.718-0.076,7.146-0.272,14.483-0.75
	c14.977-0.971,24.117-11.668,29.173-20.42c5.058-8.754,7.197-29.369,8.559-39.678c0.85-6.434,1.927-19.385,2.617-28.21
	C142.331,231.056,142.237,231.84,142.133,232.609"/>
<path style="fill:none;stroke:#000000;stroke-width:0.25;stroke-linejoin:bevel;stroke-miterlimit:10;" d="M142.133,232.609
	c-1.167,8.559-7.196,31.897-7.196,31.897s-3.696,1.556-6.419,2.14c-2.722,0.582-13.03,1.36-19.838,2.139
	c-5.24,0.599-16.256,0.621-21.096,0.601c-4.84,0.021-16.392-0.002-21.632-0.601c-6.808-0.778-17.115-1.557-19.839-2.139
	c-2.723-0.584-6.418-2.14-6.418-2.14s-6.028-23.339-7.195-31.897c-0.105-0.77-0.199-1.554-0.283-2.343
	c0.689,8.825,1.767,21.776,2.617,28.21c1.36,10.309,3.501,30.924,8.557,39.678c5.057,8.752,14.198,19.449,29.174,20.42
	c7.337,0.478,12.301,0.674,15.02,0.75c2.718-0.076,7.146-0.272,14.483-0.75c14.977-0.971,24.117-11.668,29.173-20.42
	c5.058-8.754,7.197-29.369,8.559-39.678c0.85-6.434,1.927-19.385,2.617-28.21C142.331,231.056,142.237,231.84,142.133,232.609z"/>
<g>
	<defs>
		<path id="SVGID_19_" d="M117.043,289.402c-9.772,2.475-22.229,2.768-29.46,2.691c-7.229,0.076-20.221-0.217-29.993-2.691
			c-14.588-3.696-16.922-14.004-16.922-14.004c0,0.777,3.112,19.448,7.002,25.479c3.891,6.029,10.309,15.559,23.728,16.532
			c8.37,0.604,13.69,0.909,16.186,1.053c2.495-0.144,7.281-0.448,15.651-1.053c13.42-0.974,19.838-10.503,23.728-16.532
			c3.89-6.03,7.003-24.701,7.003-25.479C133.965,275.398,131.631,285.706,117.043,289.402"/>
	</defs>
	<clipPath id="SVGID_20_">
		<use xlink:href="#SVGID_19_"  style="overflow:visible;"/>
	</clipPath>
	
		<linearGradient id="SVGID_21_" gradientUnits="userSpaceOnUse" x1="-316.5376" y1="568.959" x2="-315.5376" y2="568.959" gradientTransform="matrix(93.2958 0 0 -93.2958 29572.3086 53378.3984)">
		<stop  offset="0" style="stop-color:#1E120D"/>
		<stop  offset="0.0896" style="stop-color:#281D18"/>
		<stop  offset="0.2463" style="stop-color:#433935"/>
		<stop  offset="0.4516" style="stop-color:#6F6764"/>
		<stop  offset="0.6977" style="stop-color:#ACA7A5"/>
		<stop  offset="0.9755" style="stop-color:#F8F8F7"/>
		<stop  offset="1" style="stop-color:#FFFFFF"/>
	</linearGradient>
	<rect x="40.668" y="275.398" style="clip-path:url(#SVGID_20_);fill:url(#SVGID_21_);" width="93.296" height="43.063"/>
</g>
<path style="fill:none;stroke:#000000;stroke-miterlimit:10;" d="M117.043,289.401c-9.772,2.476-22.229,2.769-29.46,2.692
	c-7.229,0.076-20.221-0.217-29.994-2.692c-14.587-3.694-16.921-14.003-16.921-14.003c0,0.777,3.112,19.449,7.002,25.479
	c3.89,6.028,10.309,15.559,23.729,16.531c8.37,0.605,13.689,0.91,16.185,1.053c2.495-0.143,7.281-0.447,15.651-1.053
	c13.42-0.973,19.838-10.503,23.728-16.531c3.891-6.029,7.002-24.701,7.002-25.479C133.964,275.398,131.63,285.707,117.043,289.401z"
	/>
<path style="fill:#BF0411;" d="M147.313,286.898c0,0-1.693-2.201-2.54-1.693c-0.846,0.508-1.862,3.217-4.233,6.942
	c-2.369,3.726-14.899,20.996-14.899,20.996s8.974-2.709,13.207-6.265c4.232-3.557,6.941-9.482,7.45-13.547
	C146.805,289.27,147.313,286.898,147.313,286.898"/>
<path style="fill:none;stroke:#000000;stroke-miterlimit:10;" d="M147.313,286.898c0,0-1.693-2.201-2.54-1.693
	c-0.846,0.508-1.862,3.217-4.233,6.942c-2.369,3.726-14.899,20.996-14.899,20.996s8.974-2.709,13.207-6.265
	c4.232-3.557,6.941-9.482,7.45-13.547C146.805,289.27,147.313,286.898,147.313,286.898z"/>
<path style="fill:#86B541;" d="M146.466,296.211c0,0-1.186,4.911-4.233,8.637c-3.048,3.725-7.958,6.095-11.344,7.789
	c-3.387,1.692-6.604,2.201-6.604,2.201s-12.19,6.264-17.609,6.603c-4.089,0.256-14.303,0.801-19.091,1.053
	c-4.789-0.252-15.537-0.797-19.627-1.053c-5.418-0.339-17.609-6.603-17.609-6.603s-3.217-0.509-6.604-2.201
	c-3.387-1.694-8.297-4.064-11.345-7.789c-3.048-3.726-4.233-8.637-4.233-8.637l-3.354-5.051l0.133,7.085
	c1.539,3.034,3.467,6.455,5.768,9.815c6.603,9.652,17.667,12.433,27.46,14.988c8.93,2.33,22.756,3.295,29.373,3.299
	c-0.016,0-0.015,0,0.038,0c0.052,0,0.053,0,0.037,0c6.615-0.004,19.908-0.969,28.839-3.299c9.793-2.556,20.856-5.336,27.46-14.988
	c2.3-3.36,4.229-6.781,5.768-9.815l0.133-7.085L146.466,296.211z M87.584,326.348c-0.043,0-0.087,0,0-0.002
	C87.67,326.348,87.627,326.348,87.584,326.348"/>
<path style="fill:#F3A113;stroke:#000000;stroke-width:0.25;stroke-miterlimit:10;" d="M146.466,296.211
	c0,0-1.186,4.911-4.233,8.637c-3.048,3.725-7.958,6.095-11.344,7.789c-3.387,1.692-6.604,2.201-6.604,2.201
	s-12.19,6.264-17.609,6.603c-4.089,0.256-14.303,0.801-19.091,1.053c-4.789-0.252-15.537-0.797-19.627-1.053
	c-5.418-0.339-17.609-6.603-17.609-6.603s-3.217-0.509-6.604-2.201c-3.387-1.694-8.297-4.064-11.345-7.789
	c-3.048-3.726-4.233-8.637-4.233-8.637l-3.354-5.051l0.133,7.085c1.539,3.034,3.467,6.455,5.768,9.815
	c6.603,9.652,17.667,12.433,27.46,14.988c8.93,2.33,22.756,3.295,29.373,3.299c-0.016,0-0.015,0,0.038,0c0.052,0,0.053,0,0.037,0
	c6.615-0.004,19.908-0.969,28.839-3.299c9.793-2.556,20.856-5.336,27.46-14.988c2.3-3.36,4.229-6.781,5.768-9.815l0.133-7.085
	L146.466,296.211z M87.584,326.348c-0.043,0-0.087,0,0-0.002C87.67,326.348,87.627,326.348,87.584,326.348z"/>
<path style="fill:none;stroke:#000000;stroke-width:0.25;stroke-miterlimit:10;" d="M124.284,314.837l1.355-1.692
	c0,0-1.662-1.553-2.71-2.201c-0.989-0.614-1.206-0.723-1.206-0.723"/>
<line style="fill:none;stroke:#000000;stroke-width:0.25;stroke-miterlimit:10;" x1="134.613" y1="300.501" x2="127.163" y2="300.388"/>
<g>
	<defs>
		<path id="SVGID_22_" d="M87.583,95.524c-0.004-0.005-0.009-0.003-0.013,0c-0.531,0.024-17.219,0.765-25.326,1.747
			c-8.236,0.999-18.972,4.244-18.972,4.244l-3.744,8.737l5.992,40.69c0,0,15.476-3.246,23.215-3.495
			c7.738-0.25,18.848-0.25,18.848-0.25s10.575,0,18.313,0.25c7.739,0.249,23.217,3.495,23.217,3.495l5.99-40.69l-3.744-8.737
			c0,0-10.734-3.245-18.972-4.244c-8.104-0.982-24.27-1.722-24.79-1.747c-0.003-0.002-0.005-0.003-0.008-0.003
			S87.585,95.522,87.583,95.524"/>
	</defs>
	<clipPath id="SVGID_23_">
		<use xlink:href="#SVGID_22_"  style="overflow:visible;"/>
	</clipPath>
	
		<linearGradient id="SVGID_24_" gradientUnits="userSpaceOnUse" x1="-316.4766" y1="569.0068" x2="-315.4766" y2="569.0068" gradientTransform="matrix(95.5752 0 0 -95.5752 30286.8438 54506.2344)">
		<stop  offset="0" style="stop-color:#1E120D"/>
		<stop  offset="0.0896" style="stop-color:#281D18"/>
		<stop  offset="0.2463" style="stop-color:#433935"/>
		<stop  offset="0.4516" style="stop-color:#6F6764"/>
		<stop  offset="0.6977" style="stop-color:#ACA7A5"/>
		<stop  offset="0.9755" style="stop-color:#F8F8F7"/>
		<stop  offset="1" style="stop-color:#FFFFFF"/>
	</linearGradient>
	<rect x="39.528" y="95.519" style="clip-path:url(#SVGID_23_);fill:url(#SVGID_24_);" width="95.575" height="55.423"/>
</g>
<g>
	<defs>
		<polygon id="SVGID_25_" points="83.693,29.104 87.308,33.204 90.938,29.104 87.308,25.472 		"/>
	</defs>
	<clipPath id="SVGID_26_">
		<use xlink:href="#SVGID_25_"  style="overflow:visible;"/>
	</clipPath>
	
		<radialGradient id="SVGID_27_" cx="-306.7183" cy="576.3477" r="0.9976" gradientTransform="matrix(-33.5998 1.4769 1.4769 33.5998 -11054.6885 -18884.6641)" gradientUnits="userSpaceOnUse">
		<stop  offset="0" style="stop-color:#1E120D"/>
		<stop  offset="0.0896" style="stop-color:#281D18"/>
		<stop  offset="0.2463" style="stop-color:#433935"/>
		<stop  offset="0.4516" style="stop-color:#6F6764"/>
		<stop  offset="0.6977" style="stop-color:#ACA7A5"/>
		<stop  offset="0.9755" style="stop-color:#F8F8F7"/>
		<stop  offset="1" style="stop-color:#FFFFFF"/>
	</radialGradient>
	<polygon style="clip-path:url(#SVGID_26_);fill:url(#SVGID_27_);" points="91.277,33.189 83.707,33.522 83.354,25.487 
		90.925,25.154 	"/>
</g>
<polygon style="fill:none;stroke:#000000;stroke-miterlimit:10;" points="87.308,25.472 83.693,29.104 87.308,33.205 90.938,29.104 
	"/>
<path d="M161.876,134.569l-14.575-5.333v-1.902l14.336,5.2C161.876,133.751,161.876,134.569,161.876,134.569"/>
<path style="fill:none;stroke:#000000;stroke-miterlimit:10;" d="M161.876,134.569l-14.575-5.333v-1.902l14.336,5.2
	C161.876,133.751,161.876,134.569,161.876,134.569z"/>
<path style="fill:#333333;" d="M138.769,132.081l2.586-13.443l7.724,2.778c0,0,7.109,1.778,9.953,5.333
	c1.6,1.998,2.299,4.221,2.606,5.785l-14.337-5.2v-0.585h-2.488v6.043L138.769,132.081z"/>
<path style="fill:none;stroke:#000000;stroke-miterlimit:10;" d="M138.769,132.081l2.586-13.443l7.724,2.778
	c0,0,7.109,1.778,9.953,5.333c1.6,1.998,2.299,4.221,2.606,5.785l-14.337-5.2v-0.585h-2.488v6.043L138.769,132.081z"/>
<path style="fill:#FAB843;" d="M128.884,266.563c-0.123,0.029-0.245,0.057-0.365,0.083c-2.723,0.584-13.031,1.362-19.838,2.14
	c-5.241,0.599-16.257,0.621-21.097,0.601c-4.841,0.021-16.392-0.002-21.632-0.601c-6.808-0.777-17.115-1.556-19.838-2.14
	c-0.12-0.026-0.243-0.054-0.366-0.083c-0.252,2.663-0.164,5.436,1.543,7.4c1,1.15,2.418,1.836,3.816,2.438
	c11.289,4.844,24.11,6.018,36.477,6.182c12.365-0.164,24.651-1.338,35.94-6.182c1.399-0.602,2.818-1.287,3.816-2.438
	C129.049,271.998,129.136,269.226,128.884,266.563"/>
<path style="fill:none;stroke:#000000;stroke-width:0.25;stroke-linejoin:bevel;stroke-miterlimit:10;" d="M128.884,266.563
	c-0.123,0.029-0.245,0.057-0.365,0.083c-2.723,0.584-13.031,1.362-19.838,2.14c-5.241,0.599-16.257,0.621-21.097,0.601
	c-4.841,0.021-16.392-0.002-21.632-0.601c-6.808-0.777-17.115-1.556-19.838-2.14c-0.12-0.026-0.243-0.054-0.366-0.083
	c-0.252,2.663-0.164,5.436,1.543,7.4c1,1.15,2.418,1.836,3.816,2.438c11.289,4.844,24.11,6.018,36.477,6.182
	c12.365-0.164,24.651-1.338,35.94-6.182c1.399-0.602,2.818-1.287,3.816-2.438C129.049,271.998,129.136,269.226,128.884,266.563z"/>
</svg>
