<?xml version="1.0" encoding="iso-8859-1"?>
<!-- Generator: Adobe Illustrator 16.0.2, SVG Export Plug-In . SVG Version: 6.00 Build 0)  -->
<!DOCTYPE svg PUBLIC "-//W3C//DTD SVG 1.1//EN" "http://www.w3.org/Graphics/SVG/1.1/DTD/svg11.dtd">
<svg version="1.1" id="Layer_1" xmlns="http://www.w3.org/2000/svg" xmlns:xlink="http://www.w3.org/1999/xlink" x="0px" y="0px"
	 width="170px" height="340px" viewBox="0 0 170 340" style="enable-background:new 0 0 170 340;" xml:space="preserve">
<path style="fill:#BFBFBF;" d="M30.52,142.972c-0.008,0.286-0.017,0.588-0.024,0.897c-0.003,0.11-0.006,0.225-0.01,0.338
	c-0.006,0.232-0.013,0.468-0.021,0.711c-0.002,0.084-0.005,0.168-0.007,0.253c-0.009,0.281-0.017,0.571-0.026,0.866
	c-0.003,0.085-0.005,0.168-0.008,0.255c-0.011,0.35-0.021,0.71-0.032,1.078c-0.005,0.122-0.009,0.25-0.013,0.374
	c-0.009,0.291-0.019,0.585-0.028,0.886c-0.003,0.102-0.007,0.206-0.011,0.309c-0.01,0.321-0.021,0.648-0.031,0.98
	c-0.004,0.104-0.007,0.206-0.011,0.311c-0.028,0.899-0.061,1.834-0.094,2.805c-0.043,1.259-0.089,2.575-0.136,3.938
	c-0.001,0.021-0.002,0.042-0.003,0.063c-0.071,2.034-0.148,4.173-0.228,6.385c-0.001,0.036-0.003,0.072-0.004,0.107
	c-0.104,2.894-0.214,5.912-0.326,8.983c-0.009,0.235-0.017,0.469-0.025,0.703c-0.038,1.035-0.076,2.073-0.114,3.116
	c-0.219,6.021-0.442,12.14-0.642,17.854c-0.001,0.016-0.002,0.033-0.002,0.049c-0.026,0.747-0.053,1.484-0.078,2.217
	c0,0.008,0,0.016,0,0.023c-0.155,4.473-0.294,8.641-0.403,12.251c0,0.002,0,0.003,0,0.005c-0.128,4.209-0.215,7.652-0.243,9.928
	v0.01c-0.001,0.139-0.003,0.275-0.004,0.405c0,0.015,0,0.027-0.001,0.04c-0.002,0.318-0.004,0.615-0.004,0.877
	c0,0.256,0.006,0.521,0.015,0.793c0.002,0.079,0.006,0.159,0.01,0.239c0.009,0.213,0.02,0.43,0.033,0.649
	c0.004,0.07,0.008,0.138,0.013,0.207c0.02,0.284,0.042,0.573,0.068,0.867c0.005,0.063,0.013,0.127,0.019,0.19
	c0.022,0.239,0.047,0.481,0.074,0.727c0.01,0.091,0.02,0.183,0.029,0.274c0.03,0.26,0.062,0.521,0.096,0.785
	c0.007,0.049,0.012,0.098,0.018,0.146c0.041,0.311,0.084,0.622,0.129,0.936c0.013,0.086,0.025,0.172,0.038,0.257
	c0.036,0.243,0.073,0.489,0.112,0.733c0.013,0.086,0.025,0.172,0.04,0.258c0.05,0.315,0.102,0.631,0.155,0.945
	c0.006,0.037,0.014,0.073,0.02,0.109c0.048,0.281,0.098,0.563,0.147,0.841c0.018,0.093,0.034,0.185,0.052,0.278
	c0.045,0.25,0.091,0.498,0.138,0.744c0.012,0.064,0.023,0.129,0.037,0.192c0.059,0.308,0.118,0.611,0.178,0.912
	c0.012,0.062,0.024,0.122,0.037,0.185c0.049,0.246,0.098,0.487,0.147,0.727c0.016,0.074,0.03,0.148,0.046,0.221
	c0.121,0.588,0.242,1.15,0.359,1.682c0.011,0.048,0.021,0.095,0.032,0.142c0.054,0.243,0.105,0.478,0.158,0.706
	c0.005,0.021,0.01,0.045,0.015,0.066c0.491,2.166,0.869,3.615,0.869,3.615l-4.063,16.762l0.509,41.651c0,0,0.021,0.062,0.059,0.166
	c0.006,0.019,0.012,0.031,0.019,0.052c0.046,0.125,0.11,0.301,0.196,0.527c0.009,0.025,0.021,0.053,0.03,0.078
	c0.036,0.096,0.075,0.198,0.117,0.309c0.013,0.033,0.025,0.066,0.04,0.102c0.048,0.125,0.1,0.258,0.155,0.4
	c0.009,0.021,0.017,0.039,0.024,0.062c0.067,0.168,0.139,0.349,0.215,0.539c0.01,0.024,0.021,0.051,0.032,0.075
	c0.064,0.162,0.134,0.332,0.206,0.508c0.021,0.052,0.043,0.105,0.065,0.158c0.072,0.174,0.147,0.354,0.227,0.541
	c0.017,0.041,0.034,0.08,0.052,0.123c0.099,0.234,0.203,0.479,0.313,0.731c0.006,0.013,0.012,0.028,0.018,0.041
	c0.099,0.228,0.203,0.466,0.31,0.707c0.03,0.067,0.061,0.136,0.091,0.203c0.095,0.212,0.191,0.429,0.292,0.649
	c0.027,0.061,0.054,0.119,0.082,0.181c0.256,0.562,0.531,1.153,0.825,1.769c0.036,0.073,0.072,0.148,0.109,0.223
	c0.116,0.242,0.236,0.488,0.358,0.736c0.039,0.078,0.076,0.156,0.114,0.234c0.145,0.29,0.29,0.583,0.441,0.88l0.001,0.003
	c0.376,0.739,0.775,1.502,1.197,2.282c0.017,0.033,0.035,0.065,0.053,0.099c0.415,0.766,0.852,1.545,1.311,2.336
	c0.025,0.045,0.052,0.088,0.076,0.131c0.462,0.793,0.944,1.593,1.448,2.396c0.022,0.035,0.044,0.07,0.066,0.104
	c0.517,0.821,1.054,1.646,1.615,2.465c6.604,9.652,17.667,12.433,27.46,14.988c8.931,2.33,22.756,3.295,29.373,3.299
	c-0.015,0-0.015,0,0.038,0s0.054,0,0.037,0c6.616-0.004,19.909-0.969,28.839-3.299c9.793-2.556,20.857-5.336,27.46-14.988
	c0.562-0.819,1.1-1.644,1.615-2.465c0.022-0.033,0.045-0.068,0.067-0.104c0.504-0.804,0.985-1.604,1.448-2.396
	c0.024-0.043,0.05-0.086,0.075-0.131c0.459-0.791,0.897-1.572,1.313-2.34c0.016-0.031,0.033-0.061,0.049-0.091
	c0.592-1.095,1.14-2.157,1.64-3.169c0.039-0.078,0.077-0.156,0.115-0.234c0.123-0.248,0.242-0.494,0.359-0.736
	c0.036-0.074,0.073-0.149,0.107-0.223c0.295-0.615,0.57-1.207,0.827-1.769c0.027-0.062,0.054-0.119,0.08-0.179
	c0.104-0.226,0.202-0.445,0.298-0.661c0.027-0.063,0.056-0.124,0.082-0.185c0.108-0.246,0.214-0.486,0.314-0.717
	c0.006-0.013,0.012-0.027,0.017-0.04c0.11-0.253,0.214-0.497,0.313-0.731c0.018-0.043,0.035-0.082,0.052-0.123
	c0.079-0.188,0.154-0.367,0.226-0.541c0.022-0.053,0.044-0.106,0.065-0.158c0.073-0.176,0.142-0.346,0.207-0.508
	c0.01-0.024,0.021-0.051,0.031-0.075c0.077-0.19,0.148-0.371,0.216-0.539c0.008-0.022,0.015-0.041,0.023-0.062
	c0.057-0.143,0.107-0.275,0.156-0.4c0.014-0.034,0.026-0.067,0.039-0.1c0.045-0.119,0.088-0.229,0.126-0.332
	c0.006-0.015,0.012-0.03,0.019-0.045c0.087-0.232,0.153-0.412,0.199-0.539c0.008-0.021,0.013-0.033,0.02-0.052
	c0.038-0.104,0.059-0.166,0.059-0.166l0.056-4.528l0.452-37.123l-2.811-11.594l-1.252-5.168c0,0,0.027-0.104,0.076-0.298
	c0.031-0.129,0.075-0.298,0.126-0.503c0.157-0.635,0.395-1.615,0.667-2.814c0.005-0.021,0.01-0.043,0.015-0.065
	c0.03-0.134,0.061-0.267,0.091-0.406c0.024-0.104,0.048-0.216,0.072-0.323c0.007-0.035,0.015-0.068,0.023-0.103
	c0.119-0.546,0.243-1.124,0.369-1.728c0.011-0.051,0.021-0.104,0.032-0.155c0.052-0.255,0.105-0.515,0.158-0.776
	c0.011-0.057,0.022-0.111,0.034-0.169c0.061-0.307,0.122-0.616,0.182-0.932c0.008-0.042,0.017-0.084,0.023-0.126
	c0.051-0.268,0.101-0.537,0.15-0.809c0.016-0.084,0.031-0.168,0.047-0.252c0.053-0.293,0.104-0.587,0.154-0.882
	c0.004-0.024,0.009-0.048,0.014-0.071c0.054-0.32,0.106-0.641,0.157-0.961c0.014-0.08,0.025-0.158,0.037-0.238
	c0.04-0.252,0.079-0.506,0.116-0.758c0.011-0.08,0.023-0.158,0.035-0.237c0.045-0.317,0.089-0.634,0.13-0.947
	c0.005-0.042,0.01-0.083,0.016-0.125c0.034-0.271,0.067-0.541,0.098-0.808c0.01-0.088,0.02-0.176,0.028-0.262
	c0.027-0.248,0.053-0.494,0.075-0.738c0.006-0.062,0.012-0.123,0.019-0.185c0.026-0.296,0.049-0.586,0.068-0.87
	c0.004-0.066,0.007-0.132,0.013-0.197c0.014-0.225,0.024-0.445,0.033-0.662c0.003-0.077,0.007-0.155,0.01-0.231
	c0.009-0.272,0.015-0.539,0.015-0.796c0-0.268-0.002-0.572-0.005-0.898v-0.006c-0.047-5.16-0.459-17.396-0.94-30.839
	c-0.036-0.985-0.072-1.978-0.107-2.975s-0.072-1.998-0.108-3c-0.018-0.502-0.037-1.003-0.055-1.505
	c-0.091-2.51-0.184-5.024-0.274-7.506c-0.034-0.935-0.067-1.863-0.101-2.786c-0.026-0.714-0.052-1.422-0.078-2.127
	c-0.009-0.261-0.02-0.522-0.028-0.782c-0.019-0.509-0.037-1.015-0.055-1.518c-0.01-0.266-0.02-0.53-0.029-0.795
	c-0.017-0.465-0.033-0.928-0.05-1.388c-0.006-0.172-0.013-0.345-0.019-0.516c-0.052-1.433-0.103-2.835-0.15-4.198
	c-0.001-0.026-0.002-0.053-0.003-0.08c-0.024-0.689-0.048-1.368-0.072-2.035c0-0.021-0.001-0.042-0.002-0.063
	c-0.048-1.363-0.093-2.679-0.136-3.938c-0.05-1.455-0.096-2.832-0.139-4.122c-0.003-0.09-0.005-0.181-0.008-0.271
	c-0.042-1.283-0.079-2.477-0.11-3.563c0-0.016,0-0.033-0.001-0.05c-0.011-0.325-0.02-0.639-0.027-0.944
	c-0.002-0.054-0.003-0.109-0.005-0.162c-0.009-0.329-0.019-0.648-0.025-0.952c-0.035-1.323-0.067-2.588-0.101-3.81l10.896,3.987
	c0,0,0-0.818-0.237-2.035c-0.308-1.564-1.007-3.788-2.606-5.786c-1.976-2.471-6.008-4.081-8.287-4.834
	c-0.064-2.364-0.119-4.281-0.157-5.622c-0.02-0.703-0.034-1.232-0.046-1.614c0.008,0.005,0.016,0.009,0.022,0.013
	c-0.026-0.429-0.04-0.659-0.04-0.664v-0.002c0,0,0.486-0.291,1.075-0.832c0.758-0.695,1.686-1.802,1.972-3.231
	c0.031-0.152,0.061-0.328,0.091-0.522c0.002-0.009,0.003-0.014,0.004-0.023c0.012-0.068,0.021-0.151,0.032-0.223
	c0.018-0.125,0.036-0.248,0.054-0.386c0.016-0.116,0.03-0.243,0.046-0.367c0.014-0.119,0.028-0.236,0.043-0.363
	c0.016-0.142,0.031-0.293,0.048-0.444c0.008-0.083,0.017-0.159,0.025-0.245h-0.001c0.102-0.991,0.196-2.127,0.282-3.325
	c0.026-0.358,0.051-0.721,0.075-1.086c0.189-2.921,0.316-5.969,0.316-7.747c0-1.402-0.236-7.231-0.523-13.776
	c-0.079-1.785-0.161-3.624-0.243-5.44c-0.054-1.211-0.109-2.412-0.162-3.581c-0.317-6.945-0.595-12.759-0.595-12.759
	s-5.991-12.197-13.145-19.893c-1.018-1.095-2.059-2.1-3.109-2.964c-3.579-2.945-9.532-7.674-21.324-10.439
	c-1.133-0.266-2.319-0.514-3.565-0.736c-9.352-1.67-18.877-1.803-24.336-1.698c-5.459-0.105-15.519,0.028-24.871,1.698
	c-1.247,0.222-2.432,0.47-3.564,0.736c-11.792,2.765-17.746,7.494-21.324,10.439c-1.051,0.864-2.093,1.869-3.111,2.964
	c-7.151,7.696-13.143,19.893-13.143,19.893s-0.277,5.814-0.595,12.759c-0.429,9.352-0.93,20.757-0.93,22.797
	c0,2.743,0.303,8.499,0.675,12.158h-0.001c0.009,0.088,0.018,0.166,0.026,0.251c0.016,0.149,0.031,0.297,0.047,0.437
	c0.015,0.129,0.029,0.247,0.043,0.368c0.016,0.122,0.03,0.249,0.046,0.363c0.018,0.137,0.035,0.259,0.054,0.383
	c0.012,0.083,0.023,0.173,0.036,0.249c0.029,0.194,0.06,0.37,0.091,0.522c0.508,2.54,3.047,4.063,3.047,4.063
	s-0.014,0.232-0.04,0.666c0.007-0.004,0.014-0.008,0.021-0.013c-0.031,1.11-0.104,3.632-0.202,7.236
	c-2.279,0.753-6.312,2.363-8.288,4.834c-1.599,1.998-2.298,4.222-2.605,5.786c-0.238,1.217-0.238,2.035-0.238,2.035l10.897-3.987
	C30.587,140.384,30.554,141.649,30.52,142.972 M159.219,78.365c-0.024-0.045-0.052-0.09-0.076-0.135
	c-0.037-0.065-0.069-0.134-0.106-0.199C159.1,78.143,159.158,78.254,159.219,78.365 M157.669,75.735
	c-0.063-0.101-0.127-0.202-0.189-0.303c-0.053-0.084-0.101-0.171-0.153-0.254C157.442,75.362,157.554,75.55,157.669,75.735
	 M94.55,334.926c0.086,0,0.042,0.002,0,0.002C94.507,334.928,94.464,334.926,94.55,334.926 M29.422,78.232
	c-0.024,0.044-0.052,0.088-0.077,0.133c0.063-0.11,0.121-0.223,0.184-0.333C29.491,78.097,29.459,78.167,29.422,78.232
	 M30.896,75.735c0.114-0.185,0.226-0.373,0.343-0.557c-0.053,0.084-0.102,0.171-0.153,0.254
	C31.022,75.533,30.959,75.634,30.896,75.735"/>
<path style="fill:#FEF673;" d="M145.33,205.99c0-9.941-2.107-60.961-2.528-77.018c-0.318-12.198-0.556-20.366-0.556-20.366
	s2.539-1.524,3.047-4.064s1.017-11.175,1.017-14.731c0-2.04-0.501-13.445-0.93-22.797c-8.366-16.84-23.57-28.076-35.638-43.078
	c-0.772-1.029-1.642-2.009-2.535-2.977c-1.133-0.266-2.318-0.513-3.564-0.736c-9.353-1.67-18.877-1.803-24.336-1.698
	c-5.459-0.105-15.52,0.028-24.87,1.698c-1.247,0.223-2.434,0.47-3.566,0.736c-0.893,0.968-1.763,1.948-2.535,2.977
	C36.27,38.938,21.064,50.174,12.697,67.014c-0.427,9.352-0.929,20.757-0.929,22.797c0,3.556,0.508,12.191,1.016,14.731
	s3.048,4.064,3.048,4.064s-0.236,8.168-0.556,20.366c-0.421,16.057-2.529,67.077-2.529,77.018c0,6.613,3.085,18.428,3.085,18.428
	l-4.063,16.762l0.508,41.652c0,0,3.556,10.158,10.159,19.809c6.603,9.652,17.667,12.433,27.46,14.988
	c8.93,2.33,22.756,3.295,29.373,3.299c-0.016,0-0.015,0,0.038,0c0.052,0,0.053,0,0.037,0c6.615-0.004,19.908-0.969,28.839-3.299
	c9.793-2.556,20.856-5.336,27.46-14.988c6.604-9.65,10.158-19.809,10.158-19.809l0.509-41.652l-4.063-16.762
	C142.246,224.418,145.33,212.604,145.33,205.99 M79.307,320.928c-0.043,0-0.087,0,0-0.002
	C79.393,320.928,79.35,320.928,79.307,320.928"/>
<path style="fill:none;stroke:#000000;stroke-width:0.25;stroke-miterlimit:10;" d="M145.33,205.99
	c0-9.941-2.107-60.961-2.528-77.018c-0.318-12.198-0.556-20.366-0.556-20.366s2.539-1.524,3.047-4.064s1.017-11.175,1.017-14.731
	c0-2.04-0.501-13.445-0.93-22.797c-8.366-16.84-23.57-28.076-35.638-43.078c-0.772-1.029-1.642-2.009-2.535-2.977
	c-1.133-0.266-2.318-0.513-3.564-0.736c-9.353-1.67-18.877-1.803-24.336-1.698c-5.459-0.105-15.52,0.028-24.87,1.698
	c-1.247,0.223-2.434,0.47-3.566,0.736c-0.893,0.968-1.763,1.948-2.535,2.977C36.27,38.938,21.064,50.174,12.697,67.014
	c-0.427,9.352-0.929,20.757-0.929,22.797c0,3.556,0.508,12.191,1.016,14.731s3.048,4.064,3.048,4.064s-0.236,8.168-0.556,20.366
	c-0.421,16.057-2.529,67.077-2.529,77.018c0,6.613,3.085,18.428,3.085,18.428l-4.063,16.762l0.508,41.652
	c0,0,3.556,10.158,10.159,19.809c6.603,9.652,17.667,12.433,27.46,14.988c8.93,2.33,22.756,3.295,29.373,3.299
	c-0.016,0-0.015,0,0.038,0c0.052,0,0.053,0,0.037,0c6.615-0.004,19.908-0.969,28.839-3.299c9.793-2.556,20.856-5.336,27.46-14.988
	c6.604-9.65,10.158-19.809,10.158-19.809l0.509-41.652l-4.063-16.762C142.246,224.418,145.33,212.604,145.33,205.99z
	 M79.307,320.928c-0.043,0-0.087,0,0-0.002C79.393,320.928,79.35,320.928,79.307,320.928z"/>
<path style="fill:#F3A113;" d="M145.33,205.99c0-9.941-2.107-60.961-2.528-77.018c-0.318-12.198-0.556-20.366-0.556-20.366
	s2.539-1.524,3.047-4.064s1.017-11.175,1.017-14.731c0-2.04-0.501-13.445-0.93-22.797c-8.366-16.84-23.57-28.076-35.638-43.078
	c-0.772-1.029-1.642-2.009-2.535-2.977c-1.133-0.266-2.318-0.513-3.564-0.736c-9.353-1.67-18.877-1.803-24.336-1.698
	c-5.459-0.105-15.52,0.028-24.87,1.698c-1.247,0.223-2.434,0.47-3.566,0.736c-0.893,0.968-1.763,1.948-2.535,2.977
	C36.27,38.938,21.064,50.174,12.697,67.014c-0.427,9.352-0.929,20.757-0.929,22.797c0,3.556,0.508,12.191,1.016,14.731
	s3.048,4.064,3.048,4.064s-0.236,8.168-0.556,20.366c-0.421,16.057-2.529,67.077-2.529,77.018c0,6.613,3.085,18.428,3.085,18.428
	l-4.063,16.762l0.508,41.652c0,0,3.556,10.158,10.159,19.809c6.603,9.652,17.667,12.433,27.46,14.988
	c8.93,2.33,22.756,3.295,29.373,3.299c-0.016,0-0.015,0,0.038,0c0.052,0,0.053,0,0.037,0c6.615-0.004,19.908-0.969,28.839-3.299
	c9.793-2.556,20.856-5.336,27.46-14.988c6.604-9.65,10.158-19.809,10.158-19.809l0.509-41.652l-4.063-16.762
	C142.246,224.418,145.33,212.604,145.33,205.99 M79.307,320.928c-0.043,0-0.087,0,0-0.002
	C79.393,320.928,79.35,320.928,79.307,320.928"/>
<path style="fill:none;stroke:#000000;stroke-width:0.25;stroke-miterlimit:10;" d="M145.33,205.99
	c0-9.941-2.107-60.961-2.528-77.018c-0.318-12.198-0.556-20.366-0.556-20.366s2.539-1.524,3.047-4.064s1.017-11.175,1.017-14.731
	c0-2.04-0.501-13.445-0.93-22.797c-8.366-16.84-23.57-28.076-35.638-43.078c-0.772-1.029-1.642-2.009-2.535-2.977
	c-1.133-0.266-2.318-0.513-3.564-0.736c-9.353-1.67-18.877-1.803-24.336-1.698c-5.459-0.105-15.52,0.028-24.87,1.698
	c-1.247,0.223-2.434,0.47-3.566,0.736c-0.893,0.968-1.763,1.948-2.535,2.977C36.27,38.938,21.064,50.174,12.697,67.014
	c-0.427,9.352-0.929,20.757-0.929,22.797c0,3.556,0.508,12.191,1.016,14.731s3.048,4.064,3.048,4.064s-0.236,8.168-0.556,20.366
	c-0.421,16.057-2.529,67.077-2.529,77.018c0,6.613,3.085,18.428,3.085,18.428l-4.063,16.762l0.508,41.652
	c0,0,3.556,10.158,10.159,19.809c6.603,9.652,17.667,12.433,27.46,14.988c8.93,2.33,22.756,3.295,29.373,3.299
	c-0.016,0-0.015,0,0.038,0c0.052,0,0.053,0,0.037,0c6.615-0.004,19.908-0.969,28.839-3.299c9.793-2.556,20.856-5.336,27.46-14.988
	c6.604-9.65,10.158-19.809,10.158-19.809l0.509-41.652l-4.063-16.762C142.246,224.418,145.33,212.604,145.33,205.99z
	 M79.307,320.928c-0.043,0-0.087,0,0-0.002C79.393,320.928,79.35,320.928,79.307,320.928z"/>
<path style="fill:none;stroke:#000000;stroke-width:0.25;stroke-miterlimit:10;" d="M23.25,215.715c0,0,0.07,0.993,0.195,2.666
	c-0.046-0.902-0.082-1.777-0.109-2.611L23.25,215.715z"/>
<path style="fill:#333333;" d="M22.437,200.65c0.371,4.432,0.813,7.674,0.813,7.674l9.141,0.584c0,0,0.07-2.943,0.166-7.117
	L22.437,200.65z"/>
<path style="fill:none;stroke:#000000;stroke-miterlimit:10;" d="M22.437,200.65c0.371,4.432,0.813,7.674,0.813,7.674l9.141,0.584
	c0,0,0.07-2.943,0.166-7.117L22.437,200.65z"/>
<path style="fill:#F3A113;" d="M15.555,207.146c-1.004-22.756,0.882-45.502-0.595-68.111c-0.691,20.279-2.079,55.23-2.204,65.633"/>
<path style="fill:none;stroke:#000000;stroke-width:0.25;stroke-miterlimit:10;" d="M15.555,207.146
	c-1.004-22.756,0.882-45.502-0.595-68.111c-0.691,20.279-2.079,55.23-2.204,65.633"/>
<path style="fill:#F3A113;" d="M22.437,200.65c-0.055-0.66-0.108-1.346-0.159-2.051c-0.389-5.445-0.777-90.244-0.777-90.244
	l0.18-3.967c-0.005-0.02-0.009-0.04-0.014-0.06c-0.449-1.88-1.243-4.09-3.133-4.493c-1.056-0.226-2.127,0.218-3.115,0.651
	c-0.999,0.438-2.03,0.912-2.977,1.483c0.11,1.087,0.227,1.991,0.342,2.573c0.509,2.54,3.049,4.064,3.049,4.064
	s-0.237,8.168-0.557,20.366c-0.066,2.564-0.177,6.024-0.314,10.063c1.475,22.609-0.409,45.355,0.594,68.112
	c0.502,0.244,1.029,0.438,1.568,0.562c1.977,0.454,4.052,0.166,5.989-0.461C22.953,205.942,22.68,203.555,22.437,200.65"/>
<path style="fill:none;stroke:#000000;stroke-width:0.25;stroke-miterlimit:10;" d="M22.437,200.65
	c-0.055-0.66-0.108-1.346-0.159-2.051c-0.389-5.445-0.777-90.244-0.777-90.244l0.18-3.967c-0.005-0.02-0.009-0.04-0.014-0.06
	c-0.449-1.88-1.243-4.09-3.133-4.493c-1.056-0.226-2.127,0.218-3.115,0.651c-0.999,0.438-2.03,0.912-2.977,1.483
	c0.11,1.087,0.227,1.991,0.342,2.573c0.509,2.54,3.049,4.064,3.049,4.064s-0.237,8.168-0.557,20.366
	c-0.066,2.564-0.177,6.024-0.314,10.063c1.475,22.609-0.409,45.355,0.594,68.112c0.502,0.244,1.029,0.438,1.568,0.562
	c1.977,0.454,4.052,0.166,5.989-0.461C22.953,205.942,22.68,203.555,22.437,200.65z"/>
<g>
	<defs>
		<path id="SVGID_1_" d="M29.546,31.398c-1.05,0.864-2.093,1.869-3.11,2.964c-4.646,6.689-8.198,13.45-7.563,21.407
			c0.156,0.157,0.387,0.239,0.654,0.285c8.446-11.31,19.55-20.607,28.808-32.118c0.772-1.028,1.642-2.008,2.536-2.977
			C39.078,23.724,33.125,28.453,29.546,31.398"/>
	</defs>
	<clipPath id="SVGID_2_">
		<use xlink:href="#SVGID_1_"  style="overflow:visible;"/>
	</clipPath>
	
		<radialGradient id="SVGID_3_" cx="-313.4629" cy="579.0889" r="1.0003" gradientTransform="matrix(-24.7725 -28.6432 -28.6432 24.7725 8871.0547 -23266.2344)" gradientUnits="userSpaceOnUse">
		<stop  offset="0" style="stop-color:#1E120D"/>
		<stop  offset="0.0896" style="stop-color:#281D18"/>
		<stop  offset="0.2463" style="stop-color:#433935"/>
		<stop  offset="0.4516" style="stop-color:#6F6764"/>
		<stop  offset="0.6977" style="stop-color:#ACA7A5"/>
		<stop  offset="0.9755" style="stop-color:#F8F8F7"/>
		<stop  offset="1" style="stop-color:#FFFFFF"/>
	</radialGradient>
	<polygon style="clip-path:url(#SVGID_2_);fill:url(#SVGID_3_);" points="32.201,72.201 0.873,35.977 36.906,4.813 68.235,41.036 	
		"/>
</g>
<path style="fill:none;stroke:#000000;stroke-miterlimit:10;" d="M50.87,20.959c-11.792,2.766-17.745,7.495-21.324,10.439
	c-1.051,0.865-2.092,1.869-3.109,2.965c-4.647,6.688-8.2,13.449-7.563,21.407c0.156,0.156,0.386,0.238,0.654,0.284
	c8.447-11.31,19.55-20.606,28.808-32.117C49.107,22.908,49.978,21.928,50.87,20.959z"/>
<path style="fill:#F3A113;" d="M26.436,34.362c-7.151,7.696-13.144,19.893-13.144,19.893s-0.277,5.814-0.594,12.759
	c1.946-3.918,4.267-7.531,6.829-10.961c-0.268-0.045-0.497-0.128-0.654-0.284C18.237,47.813,21.789,41.051,26.436,34.362"/>
<path style="fill:none;stroke:#000000;stroke-width:0.25;stroke-miterlimit:10;" d="M26.436,34.362
	c-7.151,7.696-13.144,19.893-13.144,19.893s-0.277,5.814-0.594,12.759c1.946-3.918,4.267-7.531,6.829-10.961
	c-0.268-0.045-0.497-0.128-0.654-0.284C18.237,47.813,21.789,41.051,26.436,34.362z"/>
<path style="fill:#F3A113;" d="M28.501,110.689c0,0-1.167-4.862-1.167-7.974c0-3.112-0.194-6.613-0.194-6.613l-1.167-0.389
	c0,0-1.944-1.945-2.723-9.919c-0.636-6.519,0.547-27.982,1.001-35.6c-4.448,5.158-8.467,10.607-11.553,16.82
	c-0.428,9.352-0.931,20.757-0.931,22.797c0,3.556,0.509,12.191,1.017,14.731c0.508,2.539,3.048,4.063,3.048,4.063
	s-0.015,0.232-0.041,0.666c0.678-0.432,1.433-0.833,2.013-0.916c1.361-0.194,3.695,0,3.695,0l0.195-4.279
	c0,0,0.389-2.334,1.167-0.972C23.639,104.466,25,113.218,25,113.218L28.501,110.689z"/>
<path style="fill:none;stroke:#000000;stroke-width:0.25;stroke-miterlimit:10;" d="M28.501,110.689c0,0-1.167-4.862-1.167-7.974
	c0-3.112-0.194-6.613-0.194-6.613l-1.167-0.389c0,0-1.944-1.945-2.723-9.919c-0.636-6.519,0.547-27.982,1.001-35.6
	c-4.448,5.158-8.467,10.607-11.553,16.82c-0.428,9.352-0.931,20.757-0.931,22.797c0,3.556,0.509,12.191,1.017,14.731
	c0.508,2.539,3.048,4.063,3.048,4.063s-0.015,0.232-0.041,0.666c0.678-0.432,1.433-0.833,2.013-0.916c1.361-0.194,3.695,0,3.695,0
	l0.195-4.279c0,0,0.389-2.334,1.167-0.972C23.639,104.466,25,113.218,25,113.218L28.501,110.689z"/>
<path d="M34.659,91.472c-4.499,2.53-7.52,4.631-7.52,4.631s0.194,3.501,0.194,6.613c0,3.112,1.167,7.974,1.167,7.974l0.007,0.033
	c0.262-0.056,0.545-0.092,0.863-0.092C29.074,103.8,31.903,97.49,34.659,91.472"/>
<path style="fill:none;stroke:#000000;stroke-miterlimit:10;" d="M34.659,91.472c-4.499,2.53-7.52,4.631-7.52,4.631
	s0.194,3.501,0.194,6.613c0,3.112,1.167,7.974,1.167,7.974l0.007,0.033c0.262-0.056,0.545-0.092,0.863-0.092
	C29.074,103.8,31.903,97.49,34.659,91.472z"/>
<path d="M32.975,182.263c0.193-10.308-0.39-23.533-0.973-29.174c-0.584-5.64-7.002-39.87-7.002-39.87s-1.361-8.753-2.14-10.114
	s-1.167,0.972-1.167,0.972l-0.194,4.279c0,0,0.39,84.798,0.778,90.244c0.05,0.706,0.104,1.391,0.159,2.051l10.12,1.141
	C32.687,196.127,32.862,188.196,32.975,182.263"/>
<path style="fill:none;stroke:#000000;stroke-miterlimit:10;" d="M32.975,182.263c0.193-10.308-0.39-23.533-0.973-29.174
	c-0.584-5.64-7.002-39.87-7.002-39.87s-1.361-8.753-2.14-10.114s-1.167,0.972-1.167,0.972l-0.194,4.279
	c0,0,0.39,84.798,0.778,90.244c0.05,0.706,0.104,1.391,0.159,2.051l10.12,1.141C32.687,196.127,32.862,188.196,32.975,182.263z"/>
<g>
	<defs>
		<path id="SVGID_4_" d="M23.055,126.638l0.563,74.145l7.835,0.883c0.063-4.727,0.21-14.795,0.355-20.182
			c0.194-7.195-0.973-25.867-1.361-29.951c-0.39-4.084-4.084-25.284-4.084-25.284L23.055,126.638z"/>
	</defs>
	<clipPath id="SVGID_5_">
		<use xlink:href="#SVGID_4_"  style="overflow:visible;"/>
	</clipPath>
	
		<linearGradient id="SVGID_6_" gradientUnits="userSpaceOnUse" x1="-337.7881" y1="554.583" x2="-336.7881" y2="554.583" gradientTransform="matrix(10.611 -0.4515 -0.4515 -10.611 3859.1084 5896.2344)">
		<stop  offset="0" style="stop-color:#1E120D"/>
		<stop  offset="0.0896" style="stop-color:#281D18"/>
		<stop  offset="0.2463" style="stop-color:#433935"/>
		<stop  offset="0.4516" style="stop-color:#6F6764"/>
		<stop  offset="0.6977" style="stop-color:#ACA7A5"/>
		<stop  offset="0.9755" style="stop-color:#F8F8F7"/>
		<stop  offset="1" style="stop-color:#FFFFFF"/>
	</linearGradient>
	<polygon style="clip-path:url(#SVGID_5_);fill:url(#SVGID_6_);" points="19.852,126.385 31.986,125.869 35.205,201.529 
		23.071,202.046 	"/>
</g>
<path style="fill:none;stroke:#000000;stroke-miterlimit:10;" d="M31.452,201.666c0.064-4.727,0.21-14.796,0.355-20.182
	c0.194-7.196-0.973-25.867-1.361-29.951c-0.389-4.085-4.085-25.284-4.085-25.284l-3.306,0.389l0.562,74.145L31.452,201.666z"/>
<path style="fill:#86B541;" d="M15.2,227.022l-3.432,14.157l0.453,37.123c1.049,2.676,2.559,5.088,4.296,7.41
	C15.751,257.221,15.366,238.825,15.2,227.022"/>
<path style="fill:#F3A113;stroke:#000000;stroke-width:0.25;stroke-miterlimit:10;" d="M15.2,227.022l-3.432,14.157l0.453,37.123
	c1.049,2.676,2.559,5.088,4.296,7.41C15.751,257.221,15.366,238.825,15.2,227.022z"/>
<path style="fill:#86B541;" d="M12.221,278.302l0.055,4.53c0,0,1.527,4.361,4.438,10.083c-0.068-2.472-0.133-4.867-0.196-7.202
	C14.781,283.391,13.271,280.979,12.221,278.302"/>
<path style="fill:#F3A113;stroke:#000000;stroke-width:0.25;stroke-miterlimit:10;" d="M12.221,278.302l0.055,4.53
	c0,0,1.527,4.361,4.438,10.083c-0.068-2.472-0.133-4.867-0.196-7.202C14.781,283.391,13.271,280.979,12.221,278.302z"/>
<path style="fill:#FEF566;" d="M15.273,206.831l0.28,0.316C15.554,207.147,15.402,205.778,15.273,206.831"/>
<path style="fill:none;stroke:#000000;stroke-width:0.25;stroke-miterlimit:10;" d="M15.273,206.831l0.28,0.316
	C15.554,207.147,15.402,205.778,15.273,206.831z"/>
<path style="fill:#78AD2C;" d="M12.747,205.99c0,4.576,1.478,11.643,2.388,15.561c-0.101-10.069,0.008-13.648,0.139-14.719
	l-2.508-2.816C12.754,204.784,12.747,205.451,12.747,205.99"/>
<path style="fill:#F3A113;stroke:#000000;stroke-width:0.25;stroke-miterlimit:10;" d="M12.747,205.99
	c0,4.576,1.478,11.643,2.388,15.561c-0.101-10.069,0.008-13.648,0.139-14.719l-2.508-2.816
	C12.754,204.784,12.747,205.451,12.747,205.99z"/>
<path d="M23.25,208.324c0,0-0.194,10.309,0.972,18.866c1.167,8.557,7.197,31.896,7.197,31.896l0.972-50.179L23.25,208.324z"/>
<path style="fill:none;stroke:#000000;stroke-miterlimit:10;" d="M23.25,208.324c0,0-0.194,10.309,0.972,18.866
	c1.167,8.557,7.197,31.896,7.197,31.896l0.972-50.179L23.25,208.324z"/>
<path style="fill:none;stroke:#000000;stroke-width:0.25;stroke-miterlimit:10;" d="M23.336,215.77l-0.086-0.055
	c0,0,0.072,0.993,0.195,2.666C23.399,217.478,23.363,216.604,23.336,215.77z"/>
<g>
	<defs>
		<path id="SVGID_7_" d="M30.446,213.381l-5.058,0.194c0,0-0.972,0.973,1.167,15.754c0.54,3.731,2.45,12.608,3.455,17.188
			c0.099,0.448,0.754,0.395,0.777-0.063c0.13-2.597,0.319-6.377,0.436-8.956c0.194-4.279,0.194-20.616,0.194-22.561
			c0-1.39-0.496-1.588-0.779-1.588C30.525,213.35,30.446,213.381,30.446,213.381"/>
	</defs>
	<clipPath id="SVGID_8_">
		<use xlink:href="#SVGID_7_"  style="overflow:visible;"/>
	</clipPath>
	
		<linearGradient id="SVGID_9_" gradientUnits="userSpaceOnUse" x1="-334.4829" y1="557.2227" x2="-333.4829" y2="557.2227" gradientTransform="matrix(12.4171 -0.6773 -0.6773 -12.4171 4556.9009 6922.792)">
		<stop  offset="0" style="stop-color:#1E120D"/>
		<stop  offset="0.0896" style="stop-color:#281D18"/>
		<stop  offset="0.2463" style="stop-color:#433935"/>
		<stop  offset="0.4516" style="stop-color:#6F6764"/>
		<stop  offset="0.6977" style="stop-color:#ACA7A5"/>
		<stop  offset="0.9755" style="stop-color:#F8F8F7"/>
		<stop  offset="1" style="stop-color:#FFFFFF"/>
	</linearGradient>
	<polygon style="clip-path:url(#SVGID_8_);fill:url(#SVGID_9_);" points="22.589,213.449 31.397,212.969 33.246,246.866 
		24.438,247.347 	"/>
</g>
<path style="fill:none;stroke:#000000;stroke-miterlimit:10;" d="M25.39,213.576l5.057-0.195c0,0,0.972-0.389,0.972,1.556
	c0,1.945,0,18.283-0.193,22.562c-0.117,2.58-0.306,6.359-0.437,8.955c-0.022,0.459-0.679,0.514-0.777,0.065
	c-1.005-4.582-2.915-13.459-3.454-17.188C24.417,214.548,25.39,213.576,25.39,213.576z"/>
<path style="fill:#BF0411;" d="M19.043,281.479c0,0,1.692-2.201,2.539-1.693s1.862,3.217,4.233,6.942s14.901,20.996,14.901,20.996
	s-8.976-2.709-13.208-6.265c-4.233-3.557-6.942-9.482-7.45-13.547C19.551,283.85,19.043,281.479,19.043,281.479"/>
<path style="fill:none;stroke:#000000;stroke-miterlimit:10;" d="M19.043,281.479c0,0,1.692-2.201,2.539-1.693
	s1.862,3.217,4.233,6.942s14.901,20.996,14.901,20.996s-8.976-2.709-13.208-6.265c-4.233-3.557-6.942-9.482-7.45-13.547
	C19.551,283.85,19.043,281.479,19.043,281.479z"/>
<path style="fill:#333333;" d="M128.706,110.63c0.298-6.831-2.531-13.141-5.288-19.159c-4.414-2.483-10.252-5.378-16.063-7.109
	c-11.733-3.495-28.049-2.746-28.049-2.746s-16.852-0.749-28.584,2.746c-5.812,1.731-11.648,4.626-16.063,7.109
	c-2.756,6.018-5.585,12.328-5.288,19.159c-0.318,0-0.602,0.036-0.863,0.092l7.236,39.542c0,0,15.728-2.246,25.962-2.496
	c10.235-0.25,17.601,0,17.601,0s6.83-0.25,17.064,0c10.235,0.25,25.962,2.496,25.962,2.496l7.237-39.542
	C129.309,110.667,129.025,110.63,128.706,110.63"/>
<path style="fill:none;stroke:#000000;stroke-miterlimit:10;" d="M128.706,110.63c0.298-6.831-2.531-13.141-5.288-19.159
	c-4.414-2.483-10.252-5.378-16.063-7.109c-11.733-3.495-28.049-2.746-28.049-2.746s-16.852-0.749-28.584,2.746
	c-5.812,1.731-11.648,4.626-16.063,7.109c-2.756,6.018-5.585,12.328-5.288,19.159c-0.318,0-0.602,0.036-0.863,0.092l7.236,39.542
	c0,0,15.728-2.246,25.962-2.496c10.235-0.25,17.601,0,17.601,0s6.83-0.25,17.064,0c10.235,0.25,25.962,2.496,25.962,2.496
	l7.237-39.542C129.309,110.667,129.025,110.63,128.706,110.63z"/>
<path style="fill:none;stroke:#000000;stroke-width:0.25;stroke-miterlimit:10;" d="M42.07,309.417l-1.354-1.692
	c0,0,1.662-1.553,2.71-2.201c0.989-0.614,1.206-0.723,1.206-0.723"/>
<line style="fill:none;stroke:#000000;stroke-width:0.25;stroke-miterlimit:10;" x1="31.742" y1="295.081" x2="39.191" y2="294.968"/>
<path d="M4.479,129.149l14.575-5.333v-1.902l-14.336,5.2C4.479,128.331,4.479,129.149,4.479,129.149"/>
<path style="fill:none;stroke:#000000;stroke-miterlimit:10;" d="M4.479,129.149l14.575-5.333v-1.902l-14.336,5.2
	C4.479,128.331,4.479,129.149,4.479,129.149z"/>
<path style="fill:#333333;" d="M27.586,126.661L25,113.218l-7.724,2.778c0,0-7.109,1.778-9.953,5.333
	c-1.599,1.998-2.299,4.221-2.606,5.785l14.338-5.2v-0.585h2.488v6.043L27.586,126.661z"/>
<path style="fill:none;stroke:#000000;stroke-miterlimit:10;" d="M27.586,126.661L25,113.218l-7.724,2.778
	c0,0-7.109,1.778-9.953,5.333c-1.599,1.998-2.299,4.221-2.606,5.785l14.338-5.2v-0.585h2.488v6.043L27.586,126.661z"/>
<path style="fill:none;stroke:#000000;stroke-width:0.25;stroke-miterlimit:10;" d="M134.828,215.715c0,0-0.071,0.993-0.196,2.666
	c0.046-0.902,0.082-1.777,0.11-2.611L134.828,215.715z"/>
<path style="fill:#333333;" d="M135.641,200.65c-0.371,4.432-0.813,7.674-0.813,7.674l-9.142,0.584c0,0-0.069-2.943-0.166-7.117
	L135.641,200.65z"/>
<path style="fill:none;stroke:#000000;stroke-miterlimit:10;" d="M135.641,200.65c-0.371,4.432-0.813,7.674-0.813,7.674
	l-9.142,0.584c0,0-0.069-2.943-0.166-7.117L135.641,200.65z"/>
<path style="fill:#78AD2C;" d="M142.523,207.146c1.003-22.756-0.882-45.502,0.594-68.111c0.692,20.279,2.079,55.23,2.204,65.633"/>
<path style="fill:#F3A113;stroke:#000000;stroke-width:0.25;stroke-miterlimit:10;" d="M142.523,207.146
	c1.003-22.756-0.882-45.502,0.594-68.111c0.692,20.279,2.079,55.23,2.204,65.633"/>
<path style="fill:#78AD2C;" d="M135.641,200.65c0.056-0.66,0.109-1.346,0.159-2.051c0.39-5.445,0.778-90.244,0.778-90.244
	l-0.18-3.967c0.005-0.02,0.009-0.04,0.014-0.06c0.449-1.88,1.243-4.09,3.132-4.493c1.056-0.226,2.127,0.218,3.116,0.651
	c0.999,0.438,2.029,0.912,2.976,1.483c-0.109,1.087-0.226,1.991-0.342,2.573c-0.508,2.54-3.048,4.064-3.048,4.064
	s0.237,8.168,0.556,20.366c0.067,2.564,0.177,6.024,0.315,10.063c-1.476,22.609,0.409,45.355-0.594,68.112
	c-0.503,0.244-1.029,0.438-1.568,0.562c-1.978,0.454-4.052,0.166-5.99-0.461C135.125,205.942,135.398,203.555,135.641,200.65"/>
<path style="fill:#F3A113;stroke:#000000;stroke-width:0.25;stroke-miterlimit:10;" d="M135.641,200.65
	c0.056-0.66,0.109-1.346,0.159-2.051c0.39-5.445,0.778-90.244,0.778-90.244l-0.18-3.967c0.005-0.02,0.009-0.04,0.014-0.06
	c0.449-1.88,1.243-4.09,3.132-4.493c1.056-0.226,2.127,0.218,3.116,0.651c0.999,0.438,2.029,0.912,2.976,1.483
	c-0.109,1.087-0.226,1.991-0.342,2.573c-0.508,2.54-3.048,4.064-3.048,4.064s0.237,8.168,0.556,20.366
	c0.067,2.564,0.177,6.024,0.315,10.063c-1.476,22.609,0.409,45.355-0.594,68.112c-0.503,0.244-1.029,0.438-1.568,0.562
	c-1.978,0.454-4.052,0.166-5.99-0.461C135.125,205.942,135.398,203.555,135.641,200.65z"/>
<g>
	<defs>
		<path id="SVGID_10_" d="M109.742,23.936c9.259,11.511,20.361,20.808,28.809,32.118c0.268-0.046,0.497-0.128,0.654-0.285
			c0.636-7.957-2.916-14.718-7.563-21.407c-1.018-1.095-2.059-2.1-3.109-2.964c-3.58-2.945-9.532-7.674-21.325-10.439
			C108.101,21.928,108.97,22.908,109.742,23.936"/>
	</defs>
	<clipPath id="SVGID_11_">
		<use xlink:href="#SVGID_10_"  style="overflow:visible;"/>
	</clipPath>
	
		<radialGradient id="SVGID_12_" cx="-321.9268" cy="569.3018" r="1" gradientTransform="matrix(24.7725 -28.6432 28.6432 24.7725 -8222.9609 -23266.2344)" gradientUnits="userSpaceOnUse">
		<stop  offset="0" style="stop-color:#1E120D"/>
		<stop  offset="0.0896" style="stop-color:#281D18"/>
		<stop  offset="0.2463" style="stop-color:#433935"/>
		<stop  offset="0.4516" style="stop-color:#6F6764"/>
		<stop  offset="0.6977" style="stop-color:#ACA7A5"/>
		<stop  offset="0.9755" style="stop-color:#F8F8F7"/>
		<stop  offset="1" style="stop-color:#FFFFFF"/>
	</radialGradient>
	<polygon style="clip-path:url(#SVGID_11_);fill:url(#SVGID_12_);" points="125.876,72.201 157.205,35.977 121.172,4.813 
		89.843,41.036 	"/>
</g>
<path style="fill:none;stroke:#000000;stroke-miterlimit:10;" d="M107.207,20.959c11.793,2.766,17.745,7.495,21.324,10.439
	c1.051,0.865,2.092,1.869,3.11,2.965c4.646,6.688,8.2,13.449,7.563,21.407c-0.155,0.156-0.386,0.238-0.653,0.284
	c-8.447-11.31-19.551-20.606-28.809-32.117C108.971,22.908,108.101,21.928,107.207,20.959z"/>
<path style="fill:#389B3D;" d="M131.642,34.362c7.152,7.696,13.145,19.893,13.145,19.893s0.276,5.814,0.594,12.759
	c-1.947-3.918-4.268-7.531-6.829-10.961c0.267-0.045,0.497-0.128,0.654-0.284C139.841,47.813,136.289,41.051,131.642,34.362"/>
<path style="fill:#F3A113;stroke:#000000;stroke-width:0.25;stroke-miterlimit:10;" d="M131.642,34.362
	c7.152,7.696,13.145,19.893,13.145,19.893s0.276,5.814,0.594,12.759c-1.947-3.918-4.268-7.531-6.829-10.961
	c0.267-0.045,0.497-0.128,0.654-0.284C139.841,47.813,136.289,41.051,131.642,34.362z"/>
<path style="fill:#F3A113;" d="M129.576,110.689c0,0,1.167-4.862,1.167-7.974c0-3.112,0.194-6.613,0.194-6.613l1.167-0.389
	c0,0,1.945-1.945,2.723-9.919c0.637-6.519-0.547-27.982-1.001-35.6c4.448,5.158,8.468,10.607,11.554,16.82
	c0.428,9.352,0.93,20.757,0.93,22.797c0,3.556-0.508,12.191-1.016,14.731c-0.509,2.539-3.049,4.063-3.049,4.063
	s0.016,0.232,0.041,0.666c-0.678-0.432-1.433-0.833-2.013-0.916c-1.361-0.194-3.695,0-3.695,0l-0.194-4.279
	c0,0-0.39-2.334-1.167-0.972c-0.778,1.361-2.14,10.113-2.14,10.113L129.576,110.689z"/>
<path style="fill:none;stroke:#000000;stroke-width:0.25;stroke-miterlimit:10;" d="M129.576,110.689c0,0,1.167-4.862,1.167-7.974
	c0-3.112,0.194-6.613,0.194-6.613l1.167-0.389c0,0,1.945-1.945,2.723-9.919c0.637-6.519-0.547-27.982-1.001-35.6
	c4.448,5.158,8.468,10.607,11.554,16.82c0.428,9.352,0.93,20.757,0.93,22.797c0,3.556-0.508,12.191-1.016,14.731
	c-0.509,2.539-3.049,4.063-3.049,4.063s0.016,0.232,0.041,0.666c-0.678-0.432-1.433-0.833-2.013-0.916c-1.361-0.194-3.695,0-3.695,0
	l-0.194-4.279c0,0-0.39-2.334-1.167-0.972c-0.778,1.361-2.14,10.113-2.14,10.113L129.576,110.689z"/>
<path d="M123.418,91.472c4.499,2.53,7.521,4.631,7.521,4.631s-0.195,3.501-0.195,6.613c0,3.112-1.167,7.974-1.167,7.974
	l-0.006,0.033c-0.262-0.056-0.545-0.092-0.864-0.092C129.003,103.8,126.174,97.49,123.418,91.472"/>
<path style="fill:none;stroke:#000000;stroke-miterlimit:10;" d="M123.418,91.472c4.499,2.53,7.521,4.631,7.521,4.631
	s-0.195,3.501-0.195,6.613c0,3.112-1.167,7.974-1.167,7.974l-0.006,0.033c-0.262-0.056-0.545-0.092-0.864-0.092
	C129.003,103.8,126.174,97.49,123.418,91.472z"/>
<path d="M125.104,182.263c-0.194-10.308,0.389-23.533,0.972-29.174c0.584-5.64,7.002-39.87,7.002-39.87s1.362-8.753,2.14-10.114
	c0.778-1.361,1.167,0.972,1.167,0.972l0.194,4.279c0,0-0.389,84.798-0.778,90.244c-0.05,0.706-0.104,1.391-0.158,2.051l-10.12,1.141
	C125.392,196.127,125.215,188.196,125.104,182.263"/>
<path style="fill:none;stroke:#000000;stroke-miterlimit:10;" d="M125.104,182.263c-0.194-10.308,0.389-23.533,0.972-29.174
	c0.584-5.64,7.002-39.87,7.002-39.87s1.362-8.753,2.14-10.114c0.778-1.361,1.167,0.972,1.167,0.972l0.194,4.279
	c0,0-0.389,84.798-0.778,90.244c-0.05,0.706-0.104,1.391-0.158,2.051l-10.12,1.141C125.392,196.127,125.215,188.196,125.104,182.263
	z"/>
<g>
	<defs>
		<path id="SVGID_13_" d="M127.632,151.533c-0.389,4.084-1.556,22.756-1.362,29.951c0.146,5.387,0.291,15.455,0.355,20.182
			l7.836-0.883l0.561-74.145l-3.306-0.389C131.716,126.249,128.02,147.449,127.632,151.533"/>
	</defs>
	<clipPath id="SVGID_14_">
		<use xlink:href="#SVGID_13_"  style="overflow:visible;"/>
	</clipPath>
	
		<linearGradient id="SVGID_15_" gradientUnits="userSpaceOnUse" x1="-291.6934" y1="552.6211" x2="-290.6934" y2="552.6211" gradientTransform="matrix(-10.611 -0.4515 0.4515 -10.611 -3211.0303 5896.2344)">
		<stop  offset="0" style="stop-color:#1E120D"/>
		<stop  offset="0.0896" style="stop-color:#281D18"/>
		<stop  offset="0.2463" style="stop-color:#433935"/>
		<stop  offset="0.4516" style="stop-color:#6F6764"/>
		<stop  offset="0.6977" style="stop-color:#ACA7A5"/>
		<stop  offset="0.9755" style="stop-color:#F8F8F7"/>
		<stop  offset="1" style="stop-color:#FFFFFF"/>
	</linearGradient>
	<polygon style="clip-path:url(#SVGID_14_);fill:url(#SVGID_15_);" points="138.226,126.385 126.092,125.869 122.872,201.529 
		135.006,202.046 	"/>
</g>
<path style="fill:none;stroke:#000000;stroke-miterlimit:10;" d="M126.625,201.666c-0.063-4.727-0.21-14.796-0.354-20.182
	c-0.195-7.196,0.972-25.867,1.361-29.951c0.389-4.085,4.085-25.284,4.085-25.284l3.306,0.389l-0.563,74.145L126.625,201.666z"/>
<path style="fill:#86B541;" d="M142.877,227.022l3.433,14.157l-0.453,37.123c-1.049,2.676-2.56,5.088-4.296,7.41
	C142.326,257.221,142.711,238.825,142.877,227.022"/>
<path style="fill:#F3A113;stroke:#000000;stroke-width:0.25;stroke-miterlimit:10;" d="M142.877,227.022l3.433,14.157l-0.453,37.123
	c-1.049,2.676-2.56,5.088-4.296,7.41C142.326,257.221,142.711,238.825,142.877,227.022z"/>
<path style="fill:#86B541;" d="M145.856,278.302l-0.055,4.53c0,0-1.527,4.361-4.437,10.083c0.067-2.472,0.133-4.867,0.195-7.202
	C143.297,283.391,144.807,280.979,145.856,278.302"/>
<path style="fill:#F3A113;stroke:#000000;stroke-width:0.25;stroke-miterlimit:10;" d="M145.856,278.302l-0.055,4.53
	c0,0-1.527,4.361-4.437,10.083c0.067-2.472,0.133-4.867,0.195-7.202C143.297,283.391,144.807,280.979,145.856,278.302z"/>
<path style="fill:#FEF566;" d="M142.805,206.831l-0.281,0.316C142.523,207.147,142.676,205.778,142.805,206.831"/>
<path style="fill:none;stroke:#000000;stroke-width:0.25;stroke-miterlimit:10;" d="M142.805,206.831l-0.281,0.316
	C142.523,207.147,142.676,205.778,142.805,206.831z"/>
<path style="fill:#78AD2C;" d="M145.33,205.99c0,4.576-1.477,11.643-2.387,15.561c0.1-10.069-0.008-13.648-0.139-14.719l2.508-2.816
	C145.323,204.784,145.33,205.451,145.33,205.99"/>
<path style="fill:#F3A113;stroke:#000000;stroke-width:0.25;stroke-miterlimit:10;" d="M145.33,205.99
	c0,4.576-1.477,11.643-2.387,15.561c0.1-10.069-0.008-13.648-0.139-14.719l2.508-2.816
	C145.323,204.784,145.33,205.451,145.33,205.99z"/>
<path d="M134.828,208.324c0,0,0.193,10.309-0.973,18.866c-1.167,8.557-7.196,31.896-7.196,31.896l-0.973-50.179L134.828,208.324z"/>
<path style="fill:none;stroke:#000000;stroke-miterlimit:10;" d="M134.828,208.324c0,0,0.193,10.309-0.973,18.866
	c-1.167,8.557-7.196,31.896-7.196,31.896l-0.973-50.179L134.828,208.324z"/>
<path style="fill:none;stroke:#000000;stroke-width:0.25;stroke-miterlimit:10;" d="M134.742,215.77l0.086-0.055
	c0,0-0.071,0.993-0.196,2.666C134.678,217.478,134.714,216.604,134.742,215.77z"/>
<g>
	<defs>
		<path id="SVGID_16_" d="M126.66,214.938c0,1.944,0,18.281,0.193,22.561c0.117,2.579,0.306,6.359,0.437,8.956
			c0.022,0.458,0.678,0.512,0.776,0.063c1.006-4.58,2.915-13.457,3.455-17.188c2.14-14.781,1.168-15.754,1.168-15.754l-5.058-0.194
			c0,0-0.08-0.031-0.192-0.031C127.156,213.35,126.66,213.548,126.66,214.938"/>
	</defs>
	<clipPath id="SVGID_17_">
		<use xlink:href="#SVGID_16_"  style="overflow:visible;"/>
	</clipPath>
	
		<linearGradient id="SVGID_18_" gradientUnits="userSpaceOnUse" x1="-295.1377" y1="555.0762" x2="-294.1384" y2="555.0762" gradientTransform="matrix(-12.4171 -0.6773 0.6773 -12.4171 -3908.8228 6922.792)">
		<stop  offset="0" style="stop-color:#1E120D"/>
		<stop  offset="0.0896" style="stop-color:#281D18"/>
		<stop  offset="0.2463" style="stop-color:#433935"/>
		<stop  offset="0.4516" style="stop-color:#6F6764"/>
		<stop  offset="0.6977" style="stop-color:#ACA7A5"/>
		<stop  offset="0.9755" style="stop-color:#F8F8F7"/>
		<stop  offset="1" style="stop-color:#FFFFFF"/>
	</linearGradient>
	<polygon style="clip-path:url(#SVGID_17_);fill:url(#SVGID_18_);" points="135.489,213.449 126.681,212.969 124.832,246.866 
		133.641,247.347 	"/>
</g>
<path style="fill:none;stroke:#000000;stroke-miterlimit:10;" d="M132.688,213.576l-5.057-0.195c0,0-0.973-0.389-0.973,1.556
	c0,1.945,0,18.283,0.194,22.562c0.118,2.58,0.305,6.359,0.436,8.955c0.023,0.459,0.68,0.514,0.777,0.065
	c1.005-4.582,2.915-13.459,3.455-17.188C133.66,214.548,132.688,213.576,132.688,213.576z"/>
<path style="fill:#F3A113;" d="M133.855,227.189c-1.167,8.559-7.196,31.897-7.196,31.897s-3.696,1.556-6.419,2.14
	c-2.722,0.582-13.03,1.36-19.838,2.139c-5.24,0.599-16.256,0.621-21.096,0.601c-4.84,0.021-16.392-0.002-21.632-0.601
	c-6.808-0.778-17.115-1.557-19.839-2.139c-2.723-0.584-6.418-2.14-6.418-2.14s-6.028-23.339-7.195-31.897
	c-0.105-0.77-0.199-1.554-0.283-2.343c0.689,8.825,1.767,21.776,2.617,28.21c1.36,10.309,3.501,30.924,8.557,39.678
	c5.057,8.752,14.198,19.449,29.174,20.42c7.337,0.478,12.301,0.674,15.02,0.75c2.718-0.076,7.146-0.272,14.483-0.75
	c14.977-0.971,24.117-11.668,29.173-20.42c5.058-8.754,7.197-29.369,8.559-39.678c0.85-6.434,1.927-19.385,2.617-28.21
	C134.054,225.636,133.96,226.42,133.855,227.189"/>
<path style="fill:none;stroke:#000000;stroke-width:0.25;stroke-linejoin:bevel;stroke-miterlimit:10;" d="M133.855,227.189
	c-1.167,8.559-7.196,31.897-7.196,31.897s-3.696,1.556-6.419,2.14c-2.722,0.582-13.03,1.36-19.838,2.139
	c-5.24,0.599-16.256,0.621-21.096,0.601c-4.84,0.021-16.392-0.002-21.632-0.601c-6.808-0.778-17.115-1.557-19.839-2.139
	c-2.723-0.584-6.418-2.14-6.418-2.14s-6.028-23.339-7.195-31.897c-0.105-0.77-0.199-1.554-0.283-2.343
	c0.689,8.825,1.767,21.776,2.617,28.21c1.36,10.309,3.501,30.924,8.557,39.678c5.057,8.752,14.198,19.449,29.174,20.42
	c7.337,0.478,12.301,0.674,15.02,0.75c2.718-0.076,7.146-0.272,14.483-0.75c14.977-0.971,24.117-11.668,29.173-20.42
	c5.058-8.754,7.197-29.369,8.559-39.678c0.85-6.434,1.927-19.385,2.617-28.21C134.054,225.636,133.96,226.42,133.855,227.189z"/>
<g>
	<defs>
		<path id="SVGID_19_" d="M108.766,283.982c-9.772,2.475-22.229,2.768-29.46,2.691c-7.229,0.076-20.221-0.217-29.993-2.691
			c-14.588-3.696-16.922-14.004-16.922-14.004c0,0.777,3.112,19.448,7.002,25.479c3.891,6.029,10.309,15.559,23.728,16.532
			c8.37,0.604,13.69,0.909,16.186,1.053c2.495-0.144,7.281-0.448,15.651-1.053c13.42-0.974,19.838-10.503,23.728-16.532
			c3.89-6.03,7.003-24.701,7.003-25.479C125.688,269.979,123.354,280.286,108.766,283.982"/>
	</defs>
	<clipPath id="SVGID_20_">
		<use xlink:href="#SVGID_19_"  style="overflow:visible;"/>
	</clipPath>
	
		<linearGradient id="SVGID_21_" gradientUnits="userSpaceOnUse" x1="-316.6265" y1="569.0176" x2="-315.6265" y2="569.0176" gradientTransform="matrix(93.2958 0 0 -93.2958 29572.3086 53378.3984)">
		<stop  offset="0" style="stop-color:#1E120D"/>
		<stop  offset="0.0896" style="stop-color:#281D18"/>
		<stop  offset="0.2463" style="stop-color:#433935"/>
		<stop  offset="0.4516" style="stop-color:#6F6764"/>
		<stop  offset="0.6977" style="stop-color:#ACA7A5"/>
		<stop  offset="0.9755" style="stop-color:#F8F8F7"/>
		<stop  offset="1" style="stop-color:#FFFFFF"/>
	</linearGradient>
	<rect x="32.391" y="269.979" style="clip-path:url(#SVGID_20_);fill:url(#SVGID_21_);" width="93.296" height="43.063"/>
</g>
<path style="fill:none;stroke:#000000;stroke-miterlimit:10;" d="M108.766,283.981c-9.772,2.476-22.229,2.769-29.46,2.692
	c-7.229,0.076-20.221-0.217-29.994-2.692c-14.587-3.694-16.921-14.003-16.921-14.003c0,0.777,3.112,19.449,7.002,25.479
	c3.89,6.028,10.309,15.559,23.729,16.531c8.37,0.605,13.689,0.91,16.185,1.053c2.495-0.143,7.281-0.447,15.651-1.053
	c13.42-0.973,19.838-10.503,23.728-16.531c3.891-6.029,7.002-24.701,7.002-25.479C125.687,269.979,123.353,280.287,108.766,283.981z
	"/>
<path style="fill:#BF0411;" d="M139.035,281.479c0,0-1.693-2.201-2.54-1.693c-0.846,0.508-1.862,3.217-4.233,6.942
	c-2.369,3.726-14.899,20.996-14.899,20.996s8.974-2.709,13.207-6.265c4.232-3.557,6.941-9.482,7.45-13.547
	C138.527,283.85,139.035,281.479,139.035,281.479"/>
<path style="fill:none;stroke:#000000;stroke-miterlimit:10;" d="M139.035,281.479c0,0-1.693-2.201-2.54-1.693
	c-0.846,0.508-1.862,3.217-4.233,6.942c-2.369,3.726-14.899,20.996-14.899,20.996s8.974-2.709,13.207-6.265
	c4.232-3.557,6.941-9.482,7.45-13.547C138.527,283.85,139.035,281.479,139.035,281.479z"/>
<path style="fill:#86B541;" d="M138.188,290.791c0,0-1.186,4.911-4.233,8.637c-3.048,3.725-7.958,6.095-11.344,7.789
	c-3.387,1.692-6.604,2.201-6.604,2.201s-12.19,6.264-17.609,6.603c-4.089,0.256-14.303,0.801-19.091,1.053
	c-4.789-0.252-15.537-0.797-19.627-1.053c-5.418-0.339-17.609-6.603-17.609-6.603s-3.217-0.509-6.604-2.201
	c-3.387-1.694-8.297-4.064-11.345-7.789c-3.048-3.726-4.233-8.637-4.233-8.637l-3.354-5.051l0.133,7.085
	c1.539,3.034,3.467,6.455,5.768,9.815c6.603,9.652,17.667,12.433,27.46,14.988c8.93,2.33,22.756,3.295,29.373,3.299
	c-0.016,0-0.015,0,0.038,0c0.052,0,0.053,0,0.037,0c6.615-0.004,19.908-0.969,28.839-3.299c9.793-2.556,20.856-5.336,27.46-14.988
	c2.3-3.36,4.229-6.781,5.768-9.815l0.133-7.085L138.188,290.791z M79.307,320.928c-0.043,0-0.087,0,0-0.002
	C79.393,320.928,79.35,320.928,79.307,320.928"/>
<path style="fill:#F3A113;stroke:#000000;stroke-width:0.25;stroke-miterlimit:10;" d="M138.188,290.791
	c0,0-1.186,4.911-4.233,8.637c-3.048,3.725-7.958,6.095-11.344,7.789c-3.387,1.692-6.604,2.201-6.604,2.201
	s-12.19,6.264-17.609,6.603c-4.089,0.256-14.303,0.801-19.091,1.053c-4.789-0.252-15.537-0.797-19.627-1.053
	c-5.418-0.339-17.609-6.603-17.609-6.603s-3.217-0.509-6.604-2.201c-3.387-1.694-8.297-4.064-11.345-7.789
	c-3.048-3.726-4.233-8.637-4.233-8.637l-3.354-5.051l0.133,7.085c1.539,3.034,3.467,6.455,5.768,9.815
	c6.603,9.652,17.667,12.433,27.46,14.988c8.93,2.33,22.756,3.295,29.373,3.299c-0.016,0-0.015,0,0.038,0c0.052,0,0.053,0,0.037,0
	c6.615-0.004,19.908-0.969,28.839-3.299c9.793-2.556,20.856-5.336,27.46-14.988c2.3-3.36,4.229-6.781,5.768-9.815l0.133-7.085
	L138.188,290.791z M79.307,320.928c-0.043,0-0.087,0,0-0.002C79.393,320.928,79.35,320.928,79.307,320.928z"/>
<path style="fill:none;stroke:#000000;stroke-width:0.25;stroke-miterlimit:10;" d="M116.007,309.417l1.355-1.692
	c0,0-1.662-1.553-2.71-2.201c-0.989-0.614-1.206-0.723-1.206-0.723"/>
<line style="fill:none;stroke:#000000;stroke-width:0.25;stroke-miterlimit:10;" x1="126.336" y1="295.081" x2="118.886" y2="294.968"/>
<g>
	<defs>
		<path id="SVGID_22_" d="M79.306,90.104c-0.004-0.005-0.009-0.003-0.013,0c-0.531,0.024-17.219,0.765-25.326,1.747
			c-8.236,0.999-18.972,4.244-18.972,4.244l-3.744,8.737l5.992,40.69c0,0,15.476-3.246,23.215-3.495
			c7.738-0.25,18.848-0.25,18.848-0.25s10.575,0,18.313,0.25c7.739,0.249,23.217,3.495,23.217,3.495l5.99-40.69l-3.744-8.737
			c0,0-10.734-3.245-18.972-4.244c-8.104-0.982-24.27-1.722-24.79-1.747c-0.003-0.002-0.005-0.003-0.008-0.003
			S79.308,90.102,79.306,90.104"/>
	</defs>
	<clipPath id="SVGID_23_">
		<use xlink:href="#SVGID_22_"  style="overflow:visible;"/>
	</clipPath>
	
		<linearGradient id="SVGID_24_" gradientUnits="userSpaceOnUse" x1="-316.5635" y1="569.0635" x2="-315.5635" y2="569.0635" gradientTransform="matrix(95.5752 0 0 -95.5752 30286.8438 54506.2344)">
		<stop  offset="0" style="stop-color:#1E120D"/>
		<stop  offset="0.0896" style="stop-color:#281D18"/>
		<stop  offset="0.2463" style="stop-color:#433935"/>
		<stop  offset="0.4516" style="stop-color:#6F6764"/>
		<stop  offset="0.6977" style="stop-color:#ACA7A5"/>
		<stop  offset="0.9755" style="stop-color:#F8F8F7"/>
		<stop  offset="1" style="stop-color:#FFFFFF"/>
	</linearGradient>
	<rect x="31.251" y="90.099" style="clip-path:url(#SVGID_23_);fill:url(#SVGID_24_);" width="95.575" height="55.423"/>
</g>
<g>
	<defs>
		<polygon id="SVGID_25_" points="75.416,23.684 79.03,27.784 82.661,23.684 79.03,20.052 		"/>
	</defs>
	<clipPath id="SVGID_26_">
		<use xlink:href="#SVGID_25_"  style="overflow:visible;"/>
	</clipPath>
	
		<radialGradient id="SVGID_27_" cx="-306.48" cy="576.1758" r="0.9984" gradientTransform="matrix(-33.5998 1.4769 1.4769 33.5998 -11054.6885 -18884.6641)" gradientUnits="userSpaceOnUse">
		<stop  offset="0" style="stop-color:#1E120D"/>
		<stop  offset="0.0896" style="stop-color:#281D18"/>
		<stop  offset="0.2463" style="stop-color:#433935"/>
		<stop  offset="0.4516" style="stop-color:#6F6764"/>
		<stop  offset="0.6977" style="stop-color:#ACA7A5"/>
		<stop  offset="0.9755" style="stop-color:#F8F8F7"/>
		<stop  offset="1" style="stop-color:#FFFFFF"/>
	</radialGradient>
	<polygon style="clip-path:url(#SVGID_26_);fill:url(#SVGID_27_);" points="83,27.769 75.43,28.102 75.077,20.067 82.647,19.734 	
		"/>
</g>
<polygon style="fill:none;stroke:#000000;stroke-miterlimit:10;" points="79.03,20.052 75.416,23.684 79.03,27.785 82.661,23.684 
	"/>
<path d="M153.599,129.149l-14.575-5.333v-1.902l14.336,5.2C153.599,128.331,153.599,129.149,153.599,129.149"/>
<path style="fill:none;stroke:#000000;stroke-miterlimit:10;" d="M153.599,129.149l-14.575-5.333v-1.902l14.336,5.2
	C153.599,128.331,153.599,129.149,153.599,129.149z"/>
<path style="fill:#333333;" d="M130.491,126.661l2.586-13.443l7.724,2.778c0,0,7.109,1.778,9.953,5.333
	c1.6,1.998,2.299,4.221,2.606,5.785l-14.337-5.2v-0.585h-2.488v6.043L130.491,126.661z"/>
<path style="fill:none;stroke:#000000;stroke-miterlimit:10;" d="M130.491,126.661l2.586-13.443l7.724,2.778
	c0,0,7.109,1.778,9.953,5.333c1.6,1.998,2.299,4.221,2.606,5.785l-14.337-5.2v-0.585h-2.488v6.043L130.491,126.661z"/>
<path style="fill:#FAB843;" d="M120.606,261.143c-0.123,0.029-0.245,0.057-0.365,0.083c-2.723,0.584-13.031,1.362-19.838,2.14
	c-5.241,0.599-16.257,0.621-21.097,0.601c-4.841,0.021-16.392-0.002-21.632-0.601c-6.808-0.777-17.115-1.556-19.838-2.14
	c-0.12-0.026-0.243-0.054-0.366-0.083c-0.252,2.663-0.164,5.436,1.543,7.4c1,1.15,2.418,1.836,3.816,2.438
	c11.289,4.844,24.11,6.018,36.477,6.182c12.365-0.164,24.651-1.338,35.94-6.182c1.399-0.602,2.818-1.287,3.816-2.438
	C120.771,266.578,120.858,263.806,120.606,261.143"/>
<path style="fill:none;stroke:#000000;stroke-width:0.25;stroke-linejoin:bevel;stroke-miterlimit:10;" d="M120.606,261.143
	c-0.123,0.029-0.245,0.057-0.365,0.083c-2.723,0.584-13.031,1.362-19.838,2.14c-5.241,0.599-16.257,0.621-21.097,0.601
	c-4.841,0.021-16.392-0.002-21.632-0.601c-6.808-0.777-17.115-1.556-19.838-2.14c-0.12-0.026-0.243-0.054-0.366-0.083
	c-0.252,2.663-0.164,5.436,1.543,7.4c1,1.15,2.418,1.836,3.816,2.438c11.289,4.844,24.11,6.018,36.477,6.182
	c12.365-0.164,24.651-1.338,35.94-6.182c1.399-0.602,2.818-1.287,3.816-2.438C120.771,266.578,120.858,263.806,120.606,261.143z"/>
</svg>
