<?xml version="1.0" encoding="iso-8859-1"?>
<!-- Generator: Adobe Illustrator 16.0.2, SVG Export Plug-In . SVG Version: 6.00 Build 0)  -->
<!DOCTYPE svg PUBLIC "-//W3C//DTD SVG 1.1//EN" "http://www.w3.org/Graphics/SVG/1.1/DTD/svg11.dtd">
<svg version="1.1" id="Layer_1" xmlns="http://www.w3.org/2000/svg" xmlns:xlink="http://www.w3.org/1999/xlink" x="0px" y="0px"
	 width="170px" height="340px" viewBox="0 0 170 340" style="enable-background:new 0 0 170 340;" xml:space="preserve">
<path style="fill:#FEF673;" d="M154.862,207.078c0-9.941-2.107-60.961-2.528-77.018c-0.318-12.198-0.556-20.366-0.556-20.366
	s2.539-1.524,3.047-4.064s1.017-11.175,1.017-14.731c0-2.04-0.501-13.445-0.93-22.797c-8.366-16.84-23.57-28.076-35.638-43.078
	c-0.772-1.029-1.642-2.009-2.535-2.977c-1.133-0.266-2.318-0.513-3.564-0.736c-9.353-1.67-18.877-1.803-24.336-1.698
	c-5.459-0.105-15.52,0.028-24.87,1.698c-1.247,0.223-2.434,0.47-3.566,0.736c-0.893,0.968-1.763,1.948-2.535,2.977
	C45.802,40.026,30.597,51.262,22.229,68.102c-0.427,9.352-0.929,20.757-0.929,22.797c0,3.556,0.508,12.191,1.016,14.731
	s3.048,4.064,3.048,4.064s-0.236,8.168-0.556,20.366c-0.421,16.057-2.529,67.077-2.529,77.018c0,6.613,3.085,18.428,3.085,18.428
	l-4.063,16.762l0.508,41.652c0,0,3.556,10.158,10.159,19.809c6.603,9.652,17.667,12.433,27.46,14.988
	c8.93,2.33,22.756,3.295,29.373,3.299c-0.016,0-0.015,0,0.038,0c0.052,0,0.053,0,0.037,0c6.615-0.004,19.908-0.969,28.839-3.299
	c9.793-2.556,20.856-5.336,27.46-14.988c6.604-9.65,10.158-19.809,10.158-19.809l0.509-41.652l-4.063-16.762
	C151.778,225.506,154.862,213.691,154.862,207.078 M88.839,322.016c-0.043,0-0.087,0,0-0.002
	C88.925,322.016,88.882,322.016,88.839,322.016"/>
<path style="fill:none;stroke:#000000;stroke-width:0.25;stroke-miterlimit:10;" d="M154.862,207.078
	c0-9.941-2.107-60.961-2.528-77.018c-0.318-12.198-0.556-20.366-0.556-20.366s2.539-1.524,3.047-4.064s1.017-11.175,1.017-14.731
	c0-2.04-0.501-13.445-0.93-22.797c-8.366-16.84-23.57-28.076-35.638-43.078c-0.772-1.029-1.642-2.009-2.535-2.977
	c-1.133-0.266-2.318-0.513-3.564-0.736c-9.353-1.67-18.877-1.803-24.336-1.698c-5.459-0.105-15.52,0.028-24.87,1.698
	c-1.247,0.223-2.434,0.47-3.566,0.736c-0.893,0.968-1.763,1.948-2.535,2.977C45.802,40.026,30.597,51.262,22.229,68.102
	c-0.427,9.352-0.929,20.757-0.929,22.797c0,3.556,0.508,12.191,1.016,14.731s3.048,4.064,3.048,4.064s-0.236,8.168-0.556,20.366
	c-0.421,16.057-2.529,67.077-2.529,77.018c0,6.613,3.085,18.428,3.085,18.428l-4.063,16.762l0.508,41.652
	c0,0,3.556,10.158,10.159,19.809c6.603,9.652,17.667,12.433,27.46,14.988c8.93,2.33,22.756,3.295,29.373,3.299
	c-0.016,0-0.015,0,0.038,0c0.052,0,0.053,0,0.037,0c6.615-0.004,19.908-0.969,28.839-3.299c9.793-2.556,20.856-5.336,27.46-14.988
	c6.604-9.65,10.158-19.809,10.158-19.809l0.509-41.652l-4.063-16.762C151.778,225.506,154.862,213.691,154.862,207.078z
	 M88.839,322.016c-0.043,0-0.087,0,0-0.002C88.925,322.016,88.882,322.016,88.839,322.016z"/>
<path style="fill:#F3A113;" d="M154.862,207.078c0-9.941-2.107-60.961-2.528-77.018c-0.318-12.198-0.556-20.366-0.556-20.366
	s2.539-1.524,3.047-4.064s1.017-11.175,1.017-14.731c0-2.04-0.501-13.445-0.93-22.797c-8.366-16.84-23.57-28.076-35.638-43.078
	c-0.772-1.029-1.642-2.009-2.535-2.977c-1.133-0.266-2.318-0.513-3.564-0.736c-9.353-1.67-18.877-1.803-24.336-1.698
	c-5.459-0.105-15.52,0.028-24.87,1.698c-1.247,0.223-2.434,0.47-3.566,0.736c-0.893,0.968-1.763,1.948-2.535,2.977
	C45.802,40.026,30.597,51.262,22.229,68.102c-0.427,9.352-0.929,20.757-0.929,22.797c0,3.556,0.508,12.191,1.016,14.731
	s3.048,4.064,3.048,4.064s-0.236,8.168-0.556,20.366c-0.421,16.057-2.529,67.077-2.529,77.018c0,6.613,3.085,18.428,3.085,18.428
	l-4.063,16.762l0.508,41.652c0,0,3.556,10.158,10.159,19.809c6.603,9.652,17.667,12.433,27.46,14.988
	c8.93,2.33,22.756,3.295,29.373,3.299c-0.016,0-0.015,0,0.038,0c0.052,0,0.053,0,0.037,0c6.615-0.004,19.908-0.969,28.839-3.299
	c9.793-2.556,20.856-5.336,27.46-14.988c6.604-9.65,10.158-19.809,10.158-19.809l0.509-41.652l-4.063-16.762
	C151.778,225.506,154.862,213.691,154.862,207.078 M88.839,322.016c-0.043,0-0.087,0,0-0.002
	C88.925,322.016,88.882,322.016,88.839,322.016"/>
<path style="fill:none;stroke:#000000;stroke-width:0.25;stroke-miterlimit:10;" d="M154.862,207.078
	c0-9.941-2.107-60.961-2.528-77.018c-0.318-12.198-0.556-20.366-0.556-20.366s2.539-1.524,3.047-4.064s1.017-11.175,1.017-14.731
	c0-2.04-0.501-13.445-0.93-22.797c-8.366-16.84-23.57-28.076-35.638-43.078c-0.772-1.029-1.642-2.009-2.535-2.977
	c-1.133-0.266-2.318-0.513-3.564-0.736c-9.353-1.67-18.877-1.803-24.336-1.698c-5.459-0.105-15.52,0.028-24.87,1.698
	c-1.247,0.223-2.434,0.47-3.566,0.736c-0.893,0.968-1.763,1.948-2.535,2.977C45.802,40.026,30.597,51.262,22.229,68.102
	c-0.427,9.352-0.929,20.757-0.929,22.797c0,3.556,0.508,12.191,1.016,14.731s3.048,4.064,3.048,4.064s-0.236,8.168-0.556,20.366
	c-0.421,16.057-2.529,67.077-2.529,77.018c0,6.613,3.085,18.428,3.085,18.428l-4.063,16.762l0.508,41.652
	c0,0,3.556,10.158,10.159,19.809c6.603,9.652,17.667,12.433,27.46,14.988c8.93,2.33,22.756,3.295,29.373,3.299
	c-0.016,0-0.015,0,0.038,0c0.052,0,0.053,0,0.037,0c6.615-0.004,19.908-0.969,28.839-3.299c9.793-2.556,20.856-5.336,27.46-14.988
	c6.604-9.65,10.158-19.809,10.158-19.809l0.509-41.652l-4.063-16.762C151.778,225.506,154.862,213.691,154.862,207.078z
	 M88.839,322.016c-0.043,0-0.087,0,0-0.002C88.925,322.016,88.882,322.016,88.839,322.016z"/>
<path style="fill:none;stroke:#000000;stroke-width:0.25;stroke-miterlimit:10;" d="M32.782,216.803c0,0,0.07,0.993,0.195,2.666
	c-0.046-0.902-0.082-1.777-0.109-2.611L32.782,216.803z"/>
<path style="fill:#333333;" d="M31.969,201.738c0.371,4.432,0.813,7.674,0.813,7.674l9.141,0.584c0,0,0.07-2.943,0.166-7.117
	L31.969,201.738z"/>
<path style="fill:none;stroke:#000000;stroke-miterlimit:10;" d="M31.969,201.738c0.371,4.432,0.813,7.674,0.813,7.674l9.141,0.584
	c0,0,0.07-2.943,0.166-7.117L31.969,201.738z"/>
<path style="fill:#F3A113;" d="M25.087,208.234c-1.004-22.756,0.882-45.502-0.595-68.111c-0.691,20.279-2.079,55.23-2.204,65.633"/>
<path style="fill:none;stroke:#000000;stroke-width:0.25;stroke-miterlimit:10;" d="M25.087,208.234
	c-1.004-22.756,0.882-45.502-0.595-68.111c-0.691,20.279-2.079,55.23-2.204,65.633"/>
<path style="fill:#F3A113;" d="M31.969,201.738c-0.055-0.66-0.108-1.346-0.159-2.051c-0.389-5.445-0.777-90.244-0.777-90.244
	l0.18-3.967c-0.005-0.02-0.009-0.04-0.014-0.06c-0.449-1.88-1.243-4.09-3.133-4.493c-1.056-0.226-2.127,0.218-3.115,0.651
	c-0.999,0.438-2.03,0.912-2.977,1.483c0.11,1.087,0.227,1.991,0.342,2.573c0.509,2.54,3.049,4.064,3.049,4.064
	s-0.237,8.168-0.557,20.366c-0.066,2.564-0.177,6.024-0.314,10.063c1.475,22.609-0.409,45.355,0.594,68.112
	c0.502,0.244,1.029,0.438,1.568,0.562c1.977,0.454,4.052,0.166,5.989-0.461C32.485,207.03,32.212,204.643,31.969,201.738"/>
<path style="fill:none;stroke:#000000;stroke-width:0.25;stroke-miterlimit:10;" d="M31.969,201.738
	c-0.055-0.66-0.108-1.346-0.159-2.051c-0.389-5.445-0.777-90.244-0.777-90.244l0.18-3.967c-0.005-0.02-0.009-0.04-0.014-0.06
	c-0.449-1.88-1.243-4.09-3.133-4.493c-1.056-0.226-2.127,0.218-3.115,0.651c-0.999,0.438-2.03,0.912-2.977,1.483
	c0.11,1.087,0.227,1.991,0.342,2.573c0.509,2.54,3.049,4.064,3.049,4.064s-0.237,8.168-0.557,20.366
	c-0.066,2.564-0.177,6.024-0.314,10.063c1.475,22.609-0.409,45.355,0.594,68.112c0.502,0.244,1.029,0.438,1.568,0.562
	c1.977,0.454,4.052,0.166,5.989-0.461C32.485,207.03,32.212,204.643,31.969,201.738z"/>
<g>
	<defs>
		<path id="SVGID_1_" d="M39.078,32.486c-1.05,0.864-2.093,1.869-3.11,2.964c-4.646,6.689-8.198,13.45-7.563,21.407
			c0.156,0.157,0.387,0.239,0.654,0.285c8.446-11.31,19.55-20.607,28.808-32.118c0.772-1.028,1.642-2.008,2.536-2.977
			C48.61,24.812,42.657,29.541,39.078,32.486"/>
	</defs>
	<clipPath id="SVGID_2_">
		<use xlink:href="#SVGID_1_"  style="overflow:visible;"/>
	</clipPath>
	
		<radialGradient id="SVGID_3_" cx="-313.6494" cy="578.918" r="1" gradientTransform="matrix(-24.7725 -28.6432 -28.6432 24.7725 8871.0547 -23266.2344)" gradientUnits="userSpaceOnUse">
		<stop  offset="0" style="stop-color:#1E120D"/>
		<stop  offset="0.0896" style="stop-color:#281D18"/>
		<stop  offset="0.2463" style="stop-color:#433935"/>
		<stop  offset="0.4516" style="stop-color:#6F6764"/>
		<stop  offset="0.6977" style="stop-color:#ACA7A5"/>
		<stop  offset="0.9755" style="stop-color:#F8F8F7"/>
		<stop  offset="1" style="stop-color:#FFFFFF"/>
	</radialGradient>
	<polygon style="clip-path:url(#SVGID_2_);fill:url(#SVGID_3_);" points="41.733,73.289 10.405,37.064 46.438,5.9 77.768,42.124 	
		"/>
</g>
<path style="fill:none;stroke:#000000;stroke-miterlimit:10;" d="M60.402,22.047c-11.792,2.766-17.745,7.495-21.324,10.439
	c-1.051,0.865-2.092,1.869-3.109,2.965c-4.647,6.688-8.2,13.449-7.563,21.407c0.156,0.156,0.386,0.238,0.654,0.284
	c8.447-11.31,19.55-20.606,28.808-32.117C58.64,23.996,59.51,23.016,60.402,22.047z"/>
<path style="fill:#F3A113;" d="M35.968,35.45c-7.151,7.696-13.144,19.893-13.144,19.893s-0.277,5.814-0.594,12.759
	c1.946-3.918,4.267-7.531,6.829-10.961c-0.268-0.045-0.497-0.128-0.654-0.284C27.77,48.9,31.321,42.139,35.968,35.45"/>
<path style="fill:none;stroke:#000000;stroke-width:0.25;stroke-miterlimit:10;" d="M35.968,35.45
	c-7.151,7.696-13.144,19.893-13.144,19.893s-0.277,5.814-0.594,12.759c1.946-3.918,4.267-7.531,6.829-10.961
	c-0.268-0.045-0.497-0.128-0.654-0.284C27.77,48.9,31.321,42.139,35.968,35.45z"/>
<path style="fill:#F3A113;" d="M38.033,111.777c0,0-1.167-4.862-1.167-7.974c0-3.112-0.194-6.613-0.194-6.613l-1.167-0.389
	c0,0-1.944-1.945-2.723-9.919c-0.636-6.519,0.547-27.982,1.001-35.6c-4.448,5.158-8.467,10.607-11.553,16.82
	C21.803,77.455,21.3,88.859,21.3,90.899c0,3.556,0.509,12.191,1.017,14.731c0.508,2.539,3.048,4.063,3.048,4.063
	s-0.015,0.232-0.041,0.666c0.678-0.432,1.433-0.833,2.013-0.916c1.361-0.194,3.695,0,3.695,0l0.195-4.279
	c0,0,0.389-2.334,1.167-0.972c0.777,1.361,2.139,10.113,2.139,10.113L38.033,111.777z"/>
<path style="fill:none;stroke:#000000;stroke-width:0.25;stroke-miterlimit:10;" d="M38.033,111.777c0,0-1.167-4.862-1.167-7.974
	c0-3.112-0.194-6.613-0.194-6.613l-1.167-0.389c0,0-1.944-1.945-2.723-9.919c-0.636-6.519,0.547-27.982,1.001-35.6
	c-4.448,5.158-8.467,10.607-11.553,16.82C21.803,77.455,21.3,88.859,21.3,90.899c0,3.556,0.509,12.191,1.017,14.731
	c0.508,2.539,3.048,4.063,3.048,4.063s-0.015,0.232-0.041,0.666c0.678-0.432,1.433-0.833,2.013-0.916c1.361-0.194,3.695,0,3.695,0
	l0.195-4.279c0,0,0.389-2.334,1.167-0.972c0.777,1.361,2.139,10.113,2.139,10.113L38.033,111.777z"/>
<path d="M44.191,92.56c-4.499,2.53-7.52,4.631-7.52,4.631s0.194,3.501,0.194,6.613c0,3.112,1.167,7.974,1.167,7.974l0.007,0.033
	c0.262-0.056,0.545-0.092,0.863-0.092C38.606,104.888,41.436,98.578,44.191,92.56"/>
<path style="fill:none;stroke:#000000;stroke-miterlimit:10;" d="M44.191,92.56c-4.499,2.53-7.52,4.631-7.52,4.631
	s0.194,3.501,0.194,6.613c0,3.112,1.167,7.974,1.167,7.974l0.007,0.033c0.262-0.056,0.545-0.092,0.863-0.092
	C38.606,104.888,41.436,98.578,44.191,92.56z"/>
<path d="M42.507,183.351c0.193-10.308-0.39-23.533-0.973-29.174c-0.584-5.64-7.002-39.87-7.002-39.87s-1.361-8.753-2.14-10.114
	s-1.167,0.972-1.167,0.972l-0.194,4.279c0,0,0.39,84.798,0.778,90.244c0.05,0.706,0.104,1.391,0.159,2.051l10.12,1.141
	C42.219,197.215,42.395,189.284,42.507,183.351"/>
<path style="fill:none;stroke:#000000;stroke-miterlimit:10;" d="M42.507,183.351c0.193-10.308-0.39-23.533-0.973-29.174
	c-0.584-5.64-7.002-39.87-7.002-39.87s-1.361-8.753-2.14-10.114s-1.167,0.972-1.167,0.972l-0.194,4.279
	c0,0,0.39,84.798,0.778,90.244c0.05,0.706,0.104,1.391,0.159,2.051l10.12,1.141C42.219,197.215,42.395,189.284,42.507,183.351z"/>
<g>
	<defs>
		<path id="SVGID_4_" d="M32.587,127.726l0.563,74.145l7.835,0.883c0.063-4.727,0.21-14.795,0.355-20.182
			c0.194-7.195-0.973-25.867-1.361-29.951c-0.39-4.084-4.084-25.284-4.084-25.284L32.587,127.726z"/>
	</defs>
	<clipPath id="SVGID_5_">
		<use xlink:href="#SVGID_4_"  style="overflow:visible;"/>
	</clipPath>
	
		<linearGradient id="SVGID_6_" gradientUnits="userSpaceOnUse" x1="-336.8955" y1="554.4424" x2="-335.8955" y2="554.4424" gradientTransform="matrix(10.611 -0.4515 -0.4515 -10.611 3859.1084 5896.2344)">
		<stop  offset="0" style="stop-color:#1E120D"/>
		<stop  offset="0.0896" style="stop-color:#281D18"/>
		<stop  offset="0.2463" style="stop-color:#433935"/>
		<stop  offset="0.4516" style="stop-color:#6F6764"/>
		<stop  offset="0.6977" style="stop-color:#ACA7A5"/>
		<stop  offset="0.9755" style="stop-color:#F8F8F7"/>
		<stop  offset="1" style="stop-color:#FFFFFF"/>
	</linearGradient>
	<polygon style="clip-path:url(#SVGID_5_);fill:url(#SVGID_6_);" points="29.384,127.473 41.519,126.957 44.737,202.617 
		32.604,203.134 	"/>
</g>
<path style="fill:none;stroke:#000000;stroke-miterlimit:10;" d="M40.984,202.754c0.064-4.727,0.21-14.796,0.355-20.182
	c0.194-7.196-0.973-25.867-1.361-29.951c-0.389-4.085-4.085-25.284-4.085-25.284l-3.306,0.389l0.562,74.145L40.984,202.754z"/>
<path style="fill:#86B541;" d="M24.732,228.11l-3.432,14.157l0.453,37.123c1.049,2.676,2.559,5.088,4.296,7.41
	C25.283,258.309,24.898,239.913,24.732,228.11"/>
<path style="fill:#F3A113;stroke:#000000;stroke-width:0.25;stroke-miterlimit:10;" d="M24.732,228.11l-3.432,14.157l0.453,37.123
	c1.049,2.676,2.559,5.088,4.296,7.41C25.283,258.309,24.898,239.913,24.732,228.11z"/>
<path style="fill:#86B541;" d="M21.753,279.39l0.055,4.53c0,0,1.527,4.361,4.438,10.083c-0.068-2.472-0.133-4.867-0.196-7.202
	C24.313,284.479,22.803,282.066,21.753,279.39"/>
<path style="fill:#F3A113;stroke:#000000;stroke-width:0.25;stroke-miterlimit:10;" d="M21.753,279.39l0.055,4.53
	c0,0,1.527,4.361,4.438,10.083c-0.068-2.472-0.133-4.867-0.196-7.202C24.313,284.479,22.803,282.066,21.753,279.39z"/>
<path style="fill:#FEF566;" d="M24.806,207.919l0.28,0.316C25.086,208.235,24.935,206.866,24.806,207.919"/>
<path style="fill:none;stroke:#000000;stroke-width:0.25;stroke-miterlimit:10;" d="M24.806,207.919l0.28,0.316
	C25.086,208.235,24.935,206.866,24.806,207.919z"/>
<path style="fill:#78AD2C;" d="M22.279,207.078c0,4.576,1.478,11.643,2.388,15.561c-0.101-10.069,0.008-13.648,0.139-14.719
	l-2.508-2.816C22.286,205.872,22.279,206.539,22.279,207.078"/>
<path style="fill:#F3A113;stroke:#000000;stroke-width:0.25;stroke-miterlimit:10;" d="M22.279,207.078
	c0,4.576,1.478,11.643,2.388,15.561c-0.101-10.069,0.008-13.648,0.139-14.719l-2.508-2.816
	C22.286,205.872,22.279,206.539,22.279,207.078z"/>
<path d="M32.782,209.412c0,0-0.194,10.309,0.972,18.866c1.167,8.557,7.197,31.896,7.197,31.896l0.972-50.179L32.782,209.412z"/>
<path style="fill:none;stroke:#000000;stroke-miterlimit:10;" d="M32.782,209.412c0,0-0.194,10.309,0.972,18.866
	c1.167,8.557,7.197,31.896,7.197,31.896l0.972-50.179L32.782,209.412z"/>
<path style="fill:none;stroke:#000000;stroke-width:0.25;stroke-miterlimit:10;" d="M32.868,216.857l-0.086-0.055
	c0,0,0.072,0.993,0.195,2.666C32.932,218.565,32.896,217.691,32.868,216.857z"/>
<g>
	<defs>
		<path id="SVGID_7_" d="M39.979,214.469l-5.058,0.194c0,0-0.972,0.973,1.167,15.754c0.54,3.731,2.45,12.608,3.455,17.188
			c0.099,0.448,0.754,0.395,0.777-0.063c0.13-2.597,0.319-6.377,0.436-8.956c0.194-4.279,0.194-20.616,0.194-22.561
			c0-1.39-0.496-1.588-0.779-1.588C40.058,214.438,39.979,214.469,39.979,214.469"/>
	</defs>
	<clipPath id="SVGID_8_">
		<use xlink:href="#SVGID_7_"  style="overflow:visible;"/>
	</clipPath>
	
		<linearGradient id="SVGID_9_" gradientUnits="userSpaceOnUse" x1="-333.7222" y1="557.0938" x2="-332.7222" y2="557.0938" gradientTransform="matrix(12.4171 -0.6773 -0.6773 -12.4171 4556.9009 6922.792)">
		<stop  offset="0" style="stop-color:#1E120D"/>
		<stop  offset="0.0896" style="stop-color:#281D18"/>
		<stop  offset="0.2463" style="stop-color:#433935"/>
		<stop  offset="0.4516" style="stop-color:#6F6764"/>
		<stop  offset="0.6977" style="stop-color:#ACA7A5"/>
		<stop  offset="0.9755" style="stop-color:#F8F8F7"/>
		<stop  offset="1" style="stop-color:#FFFFFF"/>
	</linearGradient>
	<polygon style="clip-path:url(#SVGID_8_);fill:url(#SVGID_9_);" points="32.121,214.537 40.93,214.057 42.778,247.954 
		33.97,248.435 	"/>
</g>
<path style="fill:none;stroke:#000000;stroke-miterlimit:10;" d="M34.922,214.664l5.057-0.195c0,0,0.972-0.389,0.972,1.556
	c0,1.945,0,18.283-0.193,22.562c-0.117,2.58-0.306,6.359-0.437,8.955c-0.022,0.459-0.679,0.514-0.777,0.065
	c-1.005-4.582-2.915-13.459-3.454-17.188C33.949,215.636,34.922,214.664,34.922,214.664z"/>
<path style="fill:#BF0411;" d="M28.575,282.566c0,0,1.692-2.201,2.539-1.693s1.862,3.217,4.233,6.942s14.901,20.996,14.901,20.996
	s-8.976-2.709-13.208-6.265c-4.233-3.557-6.942-9.482-7.45-13.547C29.083,284.938,28.575,282.566,28.575,282.566"/>
<path style="fill:none;stroke:#000000;stroke-miterlimit:10;" d="M28.575,282.566c0,0,1.692-2.201,2.539-1.693
	s1.862,3.217,4.233,6.942s14.901,20.996,14.901,20.996s-8.976-2.709-13.208-6.265c-4.233-3.557-6.942-9.482-7.45-13.547
	C29.083,284.938,28.575,282.566,28.575,282.566z"/>
<path style="fill:#333333;" d="M138.238,111.718c0.298-6.831-2.531-13.141-5.288-19.159c-4.414-2.483-10.252-5.378-16.063-7.109
	c-11.733-3.495-28.049-2.746-28.049-2.746s-16.852-0.749-28.584,2.746c-5.812,1.731-11.648,4.626-16.063,7.109
	c-2.756,6.018-5.585,12.328-5.288,19.159c-0.318,0-0.602,0.036-0.863,0.092l7.236,39.542c0,0,15.728-2.246,25.962-2.496
	c10.235-0.25,17.601,0,17.601,0s6.83-0.25,17.064,0c10.235,0.25,25.962,2.496,25.962,2.496l7.237-39.542
	C138.841,111.754,138.558,111.718,138.238,111.718"/>
<path style="fill:none;stroke:#000000;stroke-miterlimit:10;" d="M138.238,111.718c0.298-6.831-2.531-13.141-5.288-19.159
	c-4.414-2.483-10.252-5.378-16.063-7.109c-11.733-3.495-28.049-2.746-28.049-2.746s-16.852-0.749-28.584,2.746
	c-5.812,1.731-11.648,4.626-16.063,7.109c-2.756,6.018-5.585,12.328-5.288,19.159c-0.318,0-0.602,0.036-0.863,0.092l7.236,39.542
	c0,0,15.728-2.246,25.962-2.496c10.235-0.25,17.601,0,17.601,0s6.83-0.25,17.064,0c10.235,0.25,25.962,2.496,25.962,2.496
	l7.237-39.542C138.841,111.754,138.558,111.718,138.238,111.718z"/>
<path style="fill:none;stroke:#000000;stroke-width:0.25;stroke-miterlimit:10;" d="M51.603,310.505l-1.354-1.692
	c0,0,1.662-1.553,2.71-2.201c0.989-0.614,1.206-0.723,1.206-0.723"/>
<line style="fill:none;stroke:#000000;stroke-width:0.25;stroke-miterlimit:10;" x1="41.274" y1="296.169" x2="48.724" y2="296.056"/>
<path d="M14.011,130.237l14.575-5.333v-1.902l-14.336,5.2C14.011,129.419,14.011,130.237,14.011,130.237"/>
<path style="fill:none;stroke:#000000;stroke-miterlimit:10;" d="M14.011,130.237l14.575-5.333v-1.902l-14.336,5.2
	C14.011,129.419,14.011,130.237,14.011,130.237z"/>
<path style="fill:#333333;" d="M37.118,127.749l-2.586-13.443l-7.724,2.778c0,0-7.109,1.778-9.953,5.333
	c-1.599,1.998-2.299,4.221-2.606,5.785l14.338-5.2v-0.585h2.488v6.043L37.118,127.749z"/>
<path style="fill:none;stroke:#000000;stroke-miterlimit:10;" d="M37.118,127.749l-2.586-13.443l-7.724,2.778
	c0,0-7.109,1.778-9.953,5.333c-1.599,1.998-2.299,4.221-2.606,5.785l14.338-5.2v-0.585h2.488v6.043L37.118,127.749z"/>
<path style="fill:none;stroke:#000000;stroke-width:0.25;stroke-miterlimit:10;" d="M144.36,216.803c0,0-0.071,0.993-0.196,2.666
	c0.046-0.902,0.082-1.777,0.11-2.611L144.36,216.803z"/>
<path style="fill:#333333;" d="M145.173,201.738c-0.371,4.432-0.813,7.674-0.813,7.674l-9.142,0.584c0,0-0.069-2.943-0.166-7.117
	L145.173,201.738z"/>
<path style="fill:none;stroke:#000000;stroke-miterlimit:10;" d="M145.173,201.738c-0.371,4.432-0.813,7.674-0.813,7.674
	l-9.142,0.584c0,0-0.069-2.943-0.166-7.117L145.173,201.738z"/>
<path style="fill:#78AD2C;" d="M152.056,208.234c1.003-22.756-0.882-45.502,0.594-68.111c0.692,20.279,2.079,55.23,2.204,65.633"/>
<path style="fill:#F3A113;stroke:#000000;stroke-width:0.25;stroke-miterlimit:10;" d="M152.056,208.234
	c1.003-22.756-0.882-45.502,0.594-68.111c0.692,20.279,2.079,55.23,2.204,65.633"/>
<path style="fill:#78AD2C;" d="M145.173,201.738c0.056-0.66,0.109-1.346,0.159-2.051c0.39-5.445,0.778-90.244,0.778-90.244
	l-0.18-3.967c0.005-0.02,0.009-0.04,0.014-0.06c0.449-1.88,1.243-4.09,3.132-4.493c1.056-0.226,2.127,0.218,3.116,0.651
	c0.999,0.438,2.029,0.912,2.976,1.483c-0.109,1.087-0.226,1.991-0.342,2.573c-0.508,2.54-3.048,4.064-3.048,4.064
	s0.237,8.168,0.556,20.366c0.067,2.564,0.177,6.024,0.315,10.063c-1.476,22.609,0.409,45.355-0.594,68.112
	c-0.503,0.244-1.029,0.438-1.568,0.562c-1.978,0.454-4.052,0.166-5.99-0.461C144.657,207.03,144.931,204.643,145.173,201.738"/>
<path style="fill:#F3A113;stroke:#000000;stroke-width:0.25;stroke-miterlimit:10;" d="M145.173,201.738
	c0.056-0.66,0.109-1.346,0.159-2.051c0.39-5.445,0.778-90.244,0.778-90.244l-0.18-3.967c0.005-0.02,0.009-0.04,0.014-0.06
	c0.449-1.88,1.243-4.09,3.132-4.493c1.056-0.226,2.127,0.218,3.116,0.651c0.999,0.438,2.029,0.912,2.976,1.483
	c-0.109,1.087-0.226,1.991-0.342,2.573c-0.508,2.54-3.048,4.064-3.048,4.064s0.237,8.168,0.556,20.366
	c0.067,2.564,0.177,6.024,0.315,10.063c-1.476,22.609,0.409,45.355-0.594,68.112c-0.503,0.244-1.029,0.438-1.568,0.562
	c-1.978,0.454-4.052,0.166-5.99-0.461C144.657,207.03,144.931,204.643,145.173,201.738z"/>
<g>
	<defs>
		<path id="SVGID_10_" d="M119.274,25.024c9.259,11.511,20.361,20.808,28.809,32.118c0.268-0.046,0.497-0.128,0.654-0.285
			c0.636-7.957-2.916-14.718-7.563-21.407c-1.018-1.095-2.059-2.1-3.109-2.964c-3.58-2.945-9.532-7.674-21.325-10.439
			C117.633,23.016,118.502,23.996,119.274,25.024"/>
	</defs>
	<clipPath id="SVGID_11_">
		<use xlink:href="#SVGID_10_"  style="overflow:visible;"/>
	</clipPath>
	
		<radialGradient id="SVGID_12_" cx="-321.7837" cy="569.5107" r="1.0003" gradientTransform="matrix(24.7725 -28.6432 28.6432 24.7725 -8222.9609 -23266.2344)" gradientUnits="userSpaceOnUse">
		<stop  offset="0" style="stop-color:#1E120D"/>
		<stop  offset="0.0896" style="stop-color:#281D18"/>
		<stop  offset="0.2463" style="stop-color:#433935"/>
		<stop  offset="0.4516" style="stop-color:#6F6764"/>
		<stop  offset="0.6977" style="stop-color:#ACA7A5"/>
		<stop  offset="0.9755" style="stop-color:#F8F8F7"/>
		<stop  offset="1" style="stop-color:#FFFFFF"/>
	</radialGradient>
	<polygon style="clip-path:url(#SVGID_11_);fill:url(#SVGID_12_);" points="135.408,73.289 157.205,35.977 130.704,5.9 
		99.375,42.124 	"/>
</g>
<path style="fill:none;stroke:#000000;stroke-miterlimit:10;" d="M116.739,22.047c11.793,2.766,17.745,7.495,21.324,10.439
	c1.051,0.865,2.092,1.869,3.11,2.965c4.646,6.688,8.2,13.449,7.563,21.407c-0.155,0.156-0.386,0.238-0.653,0.284
	c-8.447-11.31-19.551-20.606-28.809-32.117C118.503,23.996,117.633,23.016,116.739,22.047z"/>
<path style="fill:#389B3D;" d="M141.174,35.45c7.152,7.696,13.145,19.893,13.145,19.893s0.276,5.814,0.594,12.759
	c-1.947-3.918-4.268-7.531-6.829-10.961c0.267-0.045,0.497-0.128,0.654-0.284C149.373,48.9,145.821,42.139,141.174,35.45"/>
<path style="fill:#F3A113;stroke:#000000;stroke-width:0.25;stroke-miterlimit:10;" d="M141.174,35.45
	c7.152,7.696,13.145,19.893,13.145,19.893s0.276,5.814,0.594,12.759c-1.947-3.918-4.268-7.531-6.829-10.961
	c0.267-0.045,0.497-0.128,0.654-0.284C149.373,48.9,145.821,42.139,141.174,35.45z"/>
<path style="fill:#F3A113;" d="M139.108,111.777c0,0,1.167-4.862,1.167-7.974c0-3.112,0.194-6.613,0.194-6.613l1.167-0.389
	c0,0,1.945-1.945,2.723-9.919c0.637-6.519-0.547-27.982-1.001-35.6c4.448,5.158,8.468,10.607,11.554,16.82
	c0.428,9.352,0.93,20.757,0.93,22.797c0,3.556-0.508,12.191-1.016,14.731c-0.509,2.539-3.049,4.063-3.049,4.063
	s0.016,0.232,0.041,0.666c-0.678-0.432-1.433-0.833-2.013-0.916c-1.361-0.194-3.695,0-3.695,0l-0.194-4.279
	c0,0-0.39-2.334-1.167-0.972c-0.778,1.361-2.14,10.113-2.14,10.113L139.108,111.777z"/>
<path style="fill:none;stroke:#000000;stroke-width:0.25;stroke-miterlimit:10;" d="M139.108,111.777c0,0,1.167-4.862,1.167-7.974
	c0-3.112,0.194-6.613,0.194-6.613l1.167-0.389c0,0,1.945-1.945,2.723-9.919c0.637-6.519-0.547-27.982-1.001-35.6
	c4.448,5.158,8.468,10.607,11.554,16.82c0.428,9.352,0.93,20.757,0.93,22.797c0,3.556-0.508,12.191-1.016,14.731
	c-0.509,2.539-3.049,4.063-3.049,4.063s0.016,0.232,0.041,0.666c-0.678-0.432-1.433-0.833-2.013-0.916c-1.361-0.194-3.695,0-3.695,0
	l-0.194-4.279c0,0-0.39-2.334-1.167-0.972c-0.778,1.361-2.14,10.113-2.14,10.113L139.108,111.777z"/>
<path d="M132.95,92.56c4.499,2.53,7.521,4.631,7.521,4.631s-0.195,3.501-0.195,6.613c0,3.112-1.167,7.974-1.167,7.974l-0.006,0.033
	c-0.262-0.056-0.545-0.092-0.864-0.092C138.535,104.888,135.706,98.578,132.95,92.56"/>
<path style="fill:none;stroke:#000000;stroke-miterlimit:10;" d="M132.95,92.56c4.499,2.53,7.521,4.631,7.521,4.631
	s-0.195,3.501-0.195,6.613c0,3.112-1.167,7.974-1.167,7.974l-0.006,0.033c-0.262-0.056-0.545-0.092-0.864-0.092
	C138.535,104.888,135.706,98.578,132.95,92.56z"/>
<path d="M134.636,183.351c-0.194-10.308,0.389-23.533,0.972-29.174c0.584-5.64,7.002-39.87,7.002-39.87s1.362-8.753,2.14-10.114
	c0.778-1.361,1.167,0.972,1.167,0.972l0.194,4.279c0,0-0.389,84.798-0.778,90.244c-0.05,0.706-0.104,1.391-0.158,2.051l-10.12,1.141
	C134.924,197.215,134.747,189.284,134.636,183.351"/>
<path style="fill:none;stroke:#000000;stroke-miterlimit:10;" d="M134.636,183.351c-0.194-10.308,0.389-23.533,0.972-29.174
	c0.584-5.64,7.002-39.87,7.002-39.87s1.362-8.753,2.14-10.114c0.778-1.361,1.167,0.972,1.167,0.972l0.194,4.279
	c0,0-0.389,84.798-0.778,90.244c-0.05,0.706-0.104,1.391-0.158,2.051l-10.12,1.141C134.924,197.215,134.747,189.284,134.636,183.351
	z"/>
<g>
	<defs>
		<path id="SVGID_13_" d="M137.164,152.621c-0.389,4.084-1.556,22.756-1.362,29.951c0.146,5.387,0.291,15.455,0.355,20.182
			l7.836-0.883l0.561-74.145l-3.306-0.389C141.248,127.337,137.552,148.537,137.164,152.621"/>
	</defs>
	<clipPath id="SVGID_14_">
		<use xlink:href="#SVGID_13_"  style="overflow:visible;"/>
	</clipPath>
	
		<linearGradient id="SVGID_15_" gradientUnits="userSpaceOnUse" x1="-292.5942" y1="552.5566" x2="-291.5942" y2="552.5566" gradientTransform="matrix(-10.611 -0.4515 0.4515 -10.611 -3211.0303 5896.2344)">
		<stop  offset="0" style="stop-color:#1E120D"/>
		<stop  offset="0.0896" style="stop-color:#281D18"/>
		<stop  offset="0.2463" style="stop-color:#433935"/>
		<stop  offset="0.4516" style="stop-color:#6F6764"/>
		<stop  offset="0.6977" style="stop-color:#ACA7A5"/>
		<stop  offset="0.9755" style="stop-color:#F8F8F7"/>
		<stop  offset="1" style="stop-color:#FFFFFF"/>
	</linearGradient>
	<polygon style="clip-path:url(#SVGID_14_);fill:url(#SVGID_15_);" points="147.758,127.473 135.624,126.957 132.404,202.617 
		144.538,203.134 	"/>
</g>
<path style="fill:none;stroke:#000000;stroke-miterlimit:10;" d="M136.157,202.754c-0.063-4.727-0.21-14.796-0.354-20.182
	c-0.195-7.196,0.972-25.867,1.361-29.951c0.389-4.085,4.085-25.284,4.085-25.284l3.306,0.389l-0.563,74.145L136.157,202.754z"/>
<path style="fill:#86B541;" d="M152.409,228.11l3.433,14.157l-0.453,37.123c-1.049,2.676-2.56,5.088-4.296,7.41
	C151.858,258.309,152.243,239.913,152.409,228.11"/>
<path style="fill:#F3A113;stroke:#000000;stroke-width:0.25;stroke-miterlimit:10;" d="M152.409,228.11l3.433,14.157l-0.453,37.123
	c-1.049,2.676-2.56,5.088-4.296,7.41C151.858,258.309,152.243,239.913,152.409,228.11z"/>
<path style="fill:#86B541;" d="M155.389,279.39l-0.055,4.53c0,0-1.527,4.361-4.437,10.083c0.067-2.472,0.133-4.867,0.195-7.202
	C152.829,284.479,154.339,282.066,155.389,279.39"/>
<path style="fill:#F3A113;stroke:#000000;stroke-width:0.25;stroke-miterlimit:10;" d="M155.389,279.39l-0.055,4.53
	c0,0-1.527,4.361-4.437,10.083c0.067-2.472,0.133-4.867,0.195-7.202C152.829,284.479,154.339,282.066,155.389,279.39z"/>
<path style="fill:#FEF566;" d="M152.337,207.919l-0.281,0.316C152.056,208.235,152.208,206.866,152.337,207.919"/>
<path style="fill:none;stroke:#000000;stroke-width:0.25;stroke-miterlimit:10;" d="M152.337,207.919l-0.281,0.316
	C152.056,208.235,152.208,206.866,152.337,207.919z"/>
<path style="fill:#78AD2C;" d="M154.862,207.078c0,4.576-1.477,11.643-2.387,15.561c0.1-10.069-0.008-13.648-0.139-14.719
	l2.508-2.816C154.855,205.872,154.862,206.539,154.862,207.078"/>
<path style="fill:#F3A113;stroke:#000000;stroke-width:0.25;stroke-miterlimit:10;" d="M154.862,207.078
	c0,4.576-1.477,11.643-2.387,15.561c0.1-10.069-0.008-13.648-0.139-14.719l2.508-2.816
	C154.855,205.872,154.862,206.539,154.862,207.078z"/>
<path d="M144.36,209.412c0,0,0.193,10.309-0.973,18.866c-1.167,8.557-7.196,31.896-7.196,31.896l-0.973-50.179L144.36,209.412z"/>
<path style="fill:none;stroke:#000000;stroke-miterlimit:10;" d="M144.36,209.412c0,0,0.193,10.309-0.973,18.866
	c-1.167,8.557-7.196,31.896-7.196,31.896l-0.973-50.179L144.36,209.412z"/>
<path style="fill:none;stroke:#000000;stroke-width:0.25;stroke-miterlimit:10;" d="M144.274,216.857l0.086-0.055
	c0,0-0.071,0.993-0.196,2.666C144.21,218.565,144.246,217.691,144.274,216.857z"/>
<g>
	<defs>
		<path id="SVGID_16_" d="M136.192,216.025c0,1.944,0,18.281,0.193,22.561c0.117,2.579,0.306,6.359,0.437,8.956
			c0.022,0.458,0.678,0.512,0.776,0.063c1.006-4.58,2.915-13.457,3.455-17.188c2.14-14.781,1.168-15.754,1.168-15.754l-5.058-0.194
			c0,0-0.08-0.031-0.192-0.031C136.688,214.438,136.192,214.636,136.192,216.025"/>
	</defs>
	<clipPath id="SVGID_17_">
		<use xlink:href="#SVGID_16_"  style="overflow:visible;"/>
	</clipPath>
	
		<linearGradient id="SVGID_18_" gradientUnits="userSpaceOnUse" x1="-295.9082" y1="555.0313" x2="-294.9082" y2="555.0313" gradientTransform="matrix(-12.4171 -0.6773 0.6773 -12.4171 -3908.8228 6922.792)">
		<stop  offset="0" style="stop-color:#1E120D"/>
		<stop  offset="0.0896" style="stop-color:#281D18"/>
		<stop  offset="0.2463" style="stop-color:#433935"/>
		<stop  offset="0.4516" style="stop-color:#6F6764"/>
		<stop  offset="0.6977" style="stop-color:#ACA7A5"/>
		<stop  offset="0.9755" style="stop-color:#F8F8F7"/>
		<stop  offset="1" style="stop-color:#FFFFFF"/>
	</linearGradient>
	<polygon style="clip-path:url(#SVGID_17_);fill:url(#SVGID_18_);" points="145.021,214.537 136.213,214.057 134.364,247.954 
		143.173,248.435 	"/>
</g>
<path style="fill:none;stroke:#000000;stroke-miterlimit:10;" d="M142.221,214.664l-5.057-0.195c0,0-0.973-0.389-0.973,1.556
	c0,1.945,0,18.283,0.194,22.562c0.118,2.58,0.305,6.359,0.436,8.955c0.023,0.459,0.68,0.514,0.777,0.065
	c1.005-4.582,2.915-13.459,3.455-17.188C143.192,215.636,142.221,214.664,142.221,214.664z"/>
<path style="fill:#F3A113;" d="M143.388,228.277c-1.167,8.559-7.196,31.897-7.196,31.897s-3.696,1.556-6.419,2.14
	c-2.722,0.582-13.03,1.36-19.838,2.139c-5.24,0.599-16.256,0.621-21.096,0.601c-4.84,0.021-16.392-0.002-21.632-0.601
	c-6.808-0.778-17.115-1.557-19.839-2.139c-2.723-0.584-6.418-2.14-6.418-2.14s-6.028-23.339-7.195-31.897
	c-0.105-0.77-0.199-1.554-0.283-2.343c0.689,8.825,1.767,21.776,2.617,28.21c1.36,10.309,3.501,30.924,8.557,39.678
	c5.057,8.752,14.198,19.449,29.174,20.42c7.337,0.478,12.301,0.674,15.02,0.75c2.718-0.076,7.146-0.272,14.483-0.75
	c14.977-0.971,24.117-11.668,29.173-20.42c5.058-8.754,7.197-29.369,8.559-39.678c0.85-6.434,1.927-19.385,2.617-28.21
	C143.586,226.724,143.492,227.508,143.388,228.277"/>
<path style="fill:none;stroke:#000000;stroke-width:0.25;stroke-linejoin:bevel;stroke-miterlimit:10;" d="M143.388,228.277
	c-1.167,8.559-7.196,31.897-7.196,31.897s-3.696,1.556-6.419,2.14c-2.722,0.582-13.03,1.36-19.838,2.139
	c-5.24,0.599-16.256,0.621-21.096,0.601c-4.84,0.021-16.392-0.002-21.632-0.601c-6.808-0.778-17.115-1.557-19.839-2.139
	c-2.723-0.584-6.418-2.14-6.418-2.14s-6.028-23.339-7.195-31.897c-0.105-0.77-0.199-1.554-0.283-2.343
	c0.689,8.825,1.767,21.776,2.617,28.21c1.36,10.309,3.501,30.924,8.557,39.678c5.057,8.752,14.198,19.449,29.174,20.42
	c7.337,0.478,12.301,0.674,15.02,0.75c2.718-0.076,7.146-0.272,14.483-0.75c14.977-0.971,24.117-11.668,29.173-20.42
	c5.058-8.754,7.197-29.369,8.559-39.678c0.85-6.434,1.927-19.385,2.617-28.21C143.586,226.724,143.492,227.508,143.388,228.277z"/>
<g>
	<defs>
		<path id="SVGID_19_" d="M118.298,285.07c-9.772,2.475-22.229,2.768-29.46,2.691c-7.229,0.076-20.221-0.217-29.993-2.691
			c-14.588-3.696-16.922-14.004-16.922-14.004c0,0.777,3.112,19.448,7.002,25.479c3.891,6.029,10.309,15.559,23.728,16.532
			c8.37,0.604,13.69,0.909,16.186,1.053c2.495-0.144,7.281-0.448,15.651-1.053c13.42-0.974,19.838-10.503,23.728-16.532
			c3.89-6.03,7.003-24.701,7.003-25.479C135.22,271.066,132.886,281.374,118.298,285.07"/>
	</defs>
	<clipPath id="SVGID_20_">
		<use xlink:href="#SVGID_19_"  style="overflow:visible;"/>
	</clipPath>
	
		<linearGradient id="SVGID_21_" gradientUnits="userSpaceOnUse" x1="-316.5239" y1="569.0059" x2="-315.5239" y2="569.0059" gradientTransform="matrix(93.2958 0 0 -93.2958 29572.3086 53378.3984)">
		<stop  offset="0" style="stop-color:#1E120D"/>
		<stop  offset="0.0896" style="stop-color:#281D18"/>
		<stop  offset="0.2463" style="stop-color:#433935"/>
		<stop  offset="0.4516" style="stop-color:#6F6764"/>
		<stop  offset="0.6977" style="stop-color:#ACA7A5"/>
		<stop  offset="0.9755" style="stop-color:#F8F8F7"/>
		<stop  offset="1" style="stop-color:#FFFFFF"/>
	</linearGradient>
	<rect x="41.923" y="271.066" style="clip-path:url(#SVGID_20_);fill:url(#SVGID_21_);" width="93.296" height="43.063"/>
</g>
<path style="fill:none;stroke:#000000;stroke-miterlimit:10;" d="M118.298,285.069c-9.772,2.476-22.229,2.769-29.46,2.692
	c-7.229,0.076-20.221-0.217-29.994-2.692c-14.587-3.694-16.921-14.003-16.921-14.003c0,0.777,3.112,19.449,7.002,25.479
	c3.89,6.028,10.309,15.559,23.729,16.531c8.37,0.605,13.689,0.91,16.185,1.053c2.495-0.143,7.281-0.447,15.651-1.053
	c13.42-0.973,19.838-10.503,23.728-16.531c3.891-6.029,7.002-24.701,7.002-25.479C135.219,271.066,132.885,281.375,118.298,285.069z
	"/>
<path style="fill:#BF0411;" d="M148.567,282.566c0,0-1.693-2.201-2.54-1.693c-0.846,0.508-1.862,3.217-4.233,6.942
	c-2.369,3.726-14.899,20.996-14.899,20.996s8.974-2.709,13.207-6.265c4.232-3.557,6.941-9.482,7.45-13.547
	C148.06,284.938,148.567,282.566,148.567,282.566"/>
<path style="fill:none;stroke:#000000;stroke-miterlimit:10;" d="M148.567,282.566c0,0-1.693-2.201-2.54-1.693
	c-0.846,0.508-1.862,3.217-4.233,6.942c-2.369,3.726-14.899,20.996-14.899,20.996s8.974-2.709,13.207-6.265
	c4.232-3.557,6.941-9.482,7.45-13.547C148.06,284.938,148.567,282.566,148.567,282.566z"/>
<path style="fill:#86B541;" d="M147.721,291.879c0,0-1.186,4.911-4.233,8.637c-3.048,3.725-7.958,6.095-11.344,7.789
	c-3.387,1.692-6.604,2.201-6.604,2.201s-12.19,6.264-17.609,6.603c-4.089,0.256-14.303,0.801-19.091,1.053
	c-4.789-0.252-15.537-0.797-19.627-1.053c-5.418-0.339-17.609-6.603-17.609-6.603s-3.217-0.509-6.604-2.201
	c-3.387-1.694-8.297-4.064-11.345-7.789c-3.048-3.726-4.233-8.637-4.233-8.637l-3.354-5.051l0.133,7.085
	c1.539,3.034,3.467,6.455,5.768,9.815c6.603,9.652,17.667,12.433,27.46,14.988c8.93,2.33,22.756,3.295,29.373,3.299
	c-0.016,0-0.015,0,0.038,0c0.052,0,0.053,0,0.037,0c6.615-0.004,19.908-0.969,28.839-3.299c9.793-2.556,20.856-5.336,27.46-14.988
	c2.3-3.36,4.229-6.781,5.768-9.815l0.133-7.085L147.721,291.879z M88.839,322.016c-0.043,0-0.087,0,0-0.002
	C88.925,322.016,88.882,322.016,88.839,322.016"/>
<path style="fill:#F3A113;stroke:#000000;stroke-width:0.25;stroke-miterlimit:10;" d="M147.721,291.879
	c0,0-1.186,4.911-4.233,8.637c-3.048,3.725-7.958,6.095-11.344,7.789c-3.387,1.692-6.604,2.201-6.604,2.201
	s-12.19,6.264-17.609,6.603c-4.089,0.256-14.303,0.801-19.091,1.053c-4.789-0.252-15.537-0.797-19.627-1.053
	c-5.418-0.339-17.609-6.603-17.609-6.603s-3.217-0.509-6.604-2.201c-3.387-1.694-8.297-4.064-11.345-7.789
	c-3.048-3.726-4.233-8.637-4.233-8.637l-3.354-5.051l0.133,7.085c1.539,3.034,3.467,6.455,5.768,9.815
	c6.603,9.652,17.667,12.433,27.46,14.988c8.93,2.33,22.756,3.295,29.373,3.299c-0.016,0-0.015,0,0.038,0c0.052,0,0.053,0,0.037,0
	c6.615-0.004,19.908-0.969,28.839-3.299c9.793-2.556,20.856-5.336,27.46-14.988c2.3-3.36,4.229-6.781,5.768-9.815l0.133-7.085
	L147.721,291.879z M88.839,322.016c-0.043,0-0.087,0,0-0.002C88.925,322.016,88.882,322.016,88.839,322.016z"/>
<path style="fill:none;stroke:#000000;stroke-width:0.25;stroke-miterlimit:10;" d="M125.539,310.505l1.355-1.692
	c0,0-1.662-1.553-2.71-2.201c-0.989-0.614-1.206-0.723-1.206-0.723"/>
<line style="fill:none;stroke:#000000;stroke-width:0.25;stroke-miterlimit:10;" x1="135.868" y1="296.169" x2="128.418" y2="296.056"/>
<g>
	<defs>
		<path id="SVGID_22_" d="M88.838,91.192c-0.004-0.005-0.009-0.003-0.013,0c-0.531,0.024-17.219,0.765-25.326,1.747
			c-8.236,0.999-18.972,4.244-18.972,4.244l-3.744,8.737l5.992,40.69c0,0,15.476-3.246,23.215-3.495
			c7.738-0.25,18.848-0.25,18.848-0.25s10.575,0,18.313,0.25c7.739,0.249,23.217,3.495,23.217,3.495l5.99-40.69l-3.744-8.737
			c0,0-10.734-3.245-18.972-4.244c-8.104-0.982-24.27-1.722-24.79-1.747c-0.003-0.002-0.005-0.003-0.008-0.003
			S88.84,91.19,88.838,91.192"/>
	</defs>
	<clipPath id="SVGID_23_">
		<use xlink:href="#SVGID_22_"  style="overflow:visible;"/>
	</clipPath>
	
		<linearGradient id="SVGID_24_" gradientUnits="userSpaceOnUse" x1="-316.4639" y1="569.0527" x2="-315.4639" y2="569.0527" gradientTransform="matrix(95.5752 0 0 -95.5752 30286.8438 54506.2344)">
		<stop  offset="0" style="stop-color:#1E120D"/>
		<stop  offset="0.0896" style="stop-color:#281D18"/>
		<stop  offset="0.2463" style="stop-color:#433935"/>
		<stop  offset="0.4516" style="stop-color:#6F6764"/>
		<stop  offset="0.6977" style="stop-color:#ACA7A5"/>
		<stop  offset="0.9755" style="stop-color:#F8F8F7"/>
		<stop  offset="1" style="stop-color:#FFFFFF"/>
	</linearGradient>
	<rect x="40.783" y="91.187" style="clip-path:url(#SVGID_23_);fill:url(#SVGID_24_);" width="95.575" height="55.423"/>
</g>
<g>
	<defs>
		<polygon id="SVGID_25_" points="84.948,24.772 88.563,28.872 92.193,24.772 88.563,21.14 		"/>
	</defs>
	<clipPath id="SVGID_26_">
		<use xlink:href="#SVGID_25_"  style="overflow:visible;"/>
	</clipPath>
	
		<radialGradient id="SVGID_27_" cx="-306.7612" cy="576.2207" r="0.9976" gradientTransform="matrix(-33.5998 1.4769 1.4769 33.5998 -11054.6885 -18884.6641)" gradientUnits="userSpaceOnUse">
		<stop  offset="0" style="stop-color:#1E120D"/>
		<stop  offset="0.0896" style="stop-color:#281D18"/>
		<stop  offset="0.2463" style="stop-color:#433935"/>
		<stop  offset="0.4516" style="stop-color:#6F6764"/>
		<stop  offset="0.6977" style="stop-color:#ACA7A5"/>
		<stop  offset="0.9755" style="stop-color:#F8F8F7"/>
		<stop  offset="1" style="stop-color:#FFFFFF"/>
	</radialGradient>
	<polygon style="clip-path:url(#SVGID_26_);fill:url(#SVGID_27_);" points="92.532,28.857 84.962,29.19 84.609,21.155 92.18,20.822 
			"/>
</g>
<polygon style="fill:none;stroke:#000000;stroke-miterlimit:10;" points="88.563,21.14 84.948,24.771 88.563,28.873 92.193,24.771 
	"/>
<path d="M153.599,129.149l-5.043-4.245v-1.902l4.804,4.112C153.599,128.331,153.599,129.149,153.599,129.149"/>
<path style="fill:none;stroke:#000000;stroke-miterlimit:10;" d="M153.599,129.149l-5.043-4.245v-1.902l4.804,4.112
	C153.599,128.331,153.599,129.149,153.599,129.149z"/>
<path style="fill:#333333;" d="M140.023,127.749l2.586-13.443l7.724,2.778c0,0,7.109,1.778,9.953,5.333
	c1.6,1.998-7.233,3.133-6.926,4.697l-4.805-4.112v-0.585h-2.488v6.043L140.023,127.749z"/>
<path style="fill:none;stroke:#000000;stroke-miterlimit:10;" d="M140.023,127.749l2.586-13.443l7.724,2.778
	c0,0,7.109,1.778,9.953,5.333c1.6,1.998-7.233,3.133-6.926,4.697l-4.805-4.112v-0.585h-2.488v6.043L140.023,127.749z"/>
<path style="fill:#FAB843;" d="M130.139,262.23c-0.123,0.029-0.245,0.057-0.365,0.083c-2.723,0.584-13.031,1.362-19.838,2.14
	c-5.241,0.599-16.257,0.621-21.097,0.601c-4.841,0.021-16.392-0.002-21.632-0.601c-6.808-0.777-17.115-1.556-19.838-2.14
	c-0.12-0.026-0.243-0.054-0.366-0.083c-0.252,2.663-0.164,5.436,1.543,7.4c1,1.15,2.418,1.836,3.816,2.438
	c11.289,4.844,24.11,6.018,36.477,6.182c12.365-0.164,24.651-1.338,35.94-6.182c1.399-0.602,2.818-1.287,3.816-2.438
	C130.304,267.666,130.391,264.894,130.139,262.23"/>
<path style="fill:none;stroke:#000000;stroke-width:0.25;stroke-linejoin:bevel;stroke-miterlimit:10;" d="M130.139,262.23
	c-0.123,0.029-0.245,0.057-0.365,0.083c-2.723,0.584-13.031,1.362-19.838,2.14c-5.241,0.599-16.257,0.621-21.097,0.601
	c-4.841,0.021-16.392-0.002-21.632-0.601c-6.808-0.777-17.115-1.556-19.838-2.14c-0.12-0.026-0.243-0.054-0.366-0.083
	c-0.252,2.663-0.164,5.436,1.543,7.4c1,1.15,2.418,1.836,3.816,2.438c11.289,4.844,24.11,6.018,36.477,6.182
	c12.365-0.164,24.651-1.338,35.94-6.182c1.399-0.602,2.818-1.287,3.816-2.438C130.304,267.666,130.391,264.894,130.139,262.23z"/>
</svg>
